<svg xmlns="http://www.w3.org/2000/svg" viewBox="0 0 1920.94 815.83"><defs><style>.cls-1{opacity:0.02;}.cls-2{fill:#fff;stroke:#fff;stroke-miterlimit:10;}</style></defs><g id="Layer_2" data-name="Layer 2"><g id="Layer_2-2" data-name="Layer 2"><g class="cls-1"><path class="cls-2" d="M85.74,814.39l-.14-.25-.4.25Z"/><path class="cls-2" d="M45.5,814.39h1.59a5.47,5.47,0,0,0-.57-.75Z"/><path class="cls-2" d="M1605.44,806c1.84-.19,2.89-.28,3.65-.34l-3.65.25Z"/><path class="cls-2" d="M1889,5.9c7.29.53,18.13-10,21.85-.93l-3.63,1c.28,1.57,2.45,6.41,7.35,3.05,1.2-.61,2.07-3.09,1.42-4.07l-1-.39a.93.93,0,0,1,1,.39l2.71,1.14c-1.76,4.29-10.86,5.52-16.58,6.74,1.79-1.77,6.21-3.17,4.86-5.88-5.08,1.4-9.94,4.31-14.85,5.74a6.13,6.13,0,0,1-2.51,1.38,6.17,6.17,0,0,0,.15-.82,16.56,16.56,0,0,1-1.66.24,5.71,5.71,0,0,1-2.39,0,19,19,0,0,0,2.39,0c.77-.24,1.19-.8,1.49-1.93a1.91,1.91,0,0,1,.17,1.69c.8-.14,1.56-.34,2.36-.56,2-1.74,3.22-4.52,4.16-6.25-5.5-2.29-4.12,3-8.29,3.37-1.58-1.75-2.67-2.89-1.61-4.25-5.2,1.78-9.35,2.2-14.87-.09,0,0,5.11-2.62,3.49-5h-3c-8.18,2.76-10.72,7.4-20.73,10.15-12.66,7.29-24.55-4.47-33.35.85-.48,1.95,6.58,3.43.87,4.65,1-3.9-3.43-2.5-3.71-4-6.19,5.69-9.13-1.27-13.53,2.63,1-1.36-2.58-2.87-5-4.21a7.3,7.3,0,0,1-.53,1.92l.48-1.95,0,0c.69-4.82-6.84-1.92,2.19-8.81-9.29,7.28-16.44-1.8-23.34,9.31l2.38,1.35-9.34-2.26.4.11a26.11,26.11,0,0,1,5,1.6l-5-1.6c-4-.79-4.66.48-10.1-4.52,2.34-1.18,5.71-1.2,8-2.39-5-4.25-10.35,3.58-15.86,3.83.25-3.51,5.75-1.24,4.12-5.5-3.92-.55-7.28,2-10.92,3l.52-1.93c-9.72-4.42-3.8,9.55-10.92,3,.23,1.14-.68,2.39-.24,3.52.57.44,1,.85,1.08,1.15a2.36,2.36,0,0,1-1.08-1.15c-2.64-2.06-8.83-5.53-2.7-8-3.38,0-7.22,1.69-8.95,3.87,2.86,2.87,3.57,1.42,4.65,5.1l-13.63,2c-1.52,0,1.12-1.89,3-1.92-16-10.3-32.38,8.7-50.42-3.67,2,3.16-1.31,2.81-3,5-5.85-1-14.7-.17-20.11-2.11l1.72-2.18c-13.92,2.67-23.52,6.1-32.71,4.74-.45.95.07-3.12,1.73-3.75-6.79,4-14.92-8.64-16.78-.19l2.5.66c-13.42-1.41-28.27,4.69-42.14,5.77-3.25-5.05,8-.53,5.16-6.52-9.62-2-19.38,2.27-29.84.58,1.7-.62,1.31-1.22,2.13-1.55-10.42-3.25,1.15,5-7.64,4.3.48-2.49,0-3.12-2.87-4.41l-2.58,4c-.39-.57-.36-3.18.61-4.6-4.19,4.71-15.33,1.44-18.32,6.28-.79-1.27,1.39-5.95.18-7.85-4.66-1.48-7.86.51-11,2.41-.07,2.55-1.85,2.46-4.14,2.12a8.18,8.18,0,0,1-6-.08c1.9-.68,4.11-.22,6,.08a24.55,24.55,0,0,0,4.14-2.12,0,0,0,0,1,0,0c-3.29-3.5-11.29-3-9.59-3.58-8.39-1.65-1.33,2.81-7.7,5.88l6.68,2.25-11.81,1.13,4.68-2.45c-5.41-1.95-11,2.39-17.29,2.29l2.89,2.89-7.19,1.77c-.71-5.95-9.21-1.34-5.26-8.21-13.19-2.94-21.72,4.52-33.64,5.2,1.43-.19.81-1.28,1.19-2.14-7.1-1.34-11.37,1.75-15.63,4.83.87-1.86,2.57-2.47,2.6-4-8.41-.08-5.11,3.4-14.38,5.18,2.56-2.49,1.76-3.76-.77-4.4.39,2.19-1.75,3.73-3.45,4.35,6.89-11.69-9.94-5-6.14-13.86-1.46,2.5-13.39,7.1-11,11.46h0v0a3.12,3.12,0,0,0,.42.6l2.52-.88c.29,3.27-3.14,2-5.73,2.21-1.84.73-3.51,1.07-1,.2a4,4,0,0,1,1-.2c1.33-.54,2.73-1.27,2.79-1.93v0c-13.13,3.91-26.91.3-41.67,3.26,1.28-1.23,7.23-3.36,3.43-4.34-14.65-1.74-23.18,4.43-38,7.39-.67-7.55,16-1.07,16.55-8.26A438.23,438.23,0,0,0,1258.17,22c-6.05-11.06-16.9,4.51-27.64-4.12,1,3.71-4.32,5.05-10.15,5.15,0,0,0,0,0,.08l-.87-.08a44.05,44.05,0,0,1-7.94-.66l7.94.66h.89c2-3-4.15-3.1-2.44-5.28-5.11,3.39-19.86,4.79-19.28-2.42-1.33,7-11-.34-15.16,4.6A11.34,11.34,0,0,1,1188,23l-5.4-1.94a3.87,3.87,0,0,1,.93-1.16c-6.45-2.62-13.82,1.46-21.91-.65,2.56,4-6,2.49-9.87,3.5-.39.18-.82.33-1.13.44a4.23,4.23,0,0,1,1.13-.44c.67-.31,1.25-.7,1-1.09-2.43-3.81-9.31,3.33-13.87,1.07-2.07-1.58.51-4.05-2.85-4.41-.07,3.13-12.34,6.77-16.89,2.94,2.1,0,2.14-1.56,3.42-2.78C1101,23.87,1078,17.34,1056,23.65l3.9-5.26c-13.74-6.77-9,8.66-19.92,7.9-29.8-2.56-60.72-10.12-89.78-6.7-2.13,1.54,1.23,1.89,1.59,4.09-2.53-.65-3.25-5.06-6.68-2.27l.77,2.83c-13.28-7.69-38.34,5.21-48.17-6.84C885,21.94,876.09,14.14,860.66,21c-4.87-2.53,5.66-4.89-.92-5.6l-14.29,4.44c-13.86,7.43-36-9.82-53-3.82l.74-.41c.4-2-3.17-4.35-6-3.68-1,1.39.91,2.12,2.59,3.8-15.43,3.31-18.82,3.46-31,4.12,5.27-2.93-4.88-2.55-5.41-6.63-3.21,2.66,1.85,4.23-5.3,6.46-10.16.38-19.52-3.14-28-4.57-3.42,3.62-7.91,2.62-8.13,7.11-11.48.26-17.88,2-32,2l-.36-1.54c-3.79,5.6-12.21-2.84-14.84.39.39-2,1.89-2.8,1.52-4.35l-6.41,1.8c3-1.69,4.75-7-.51-7.59-5.48,3.92,1.5,2.68-1.16,5.89l-1.66-5.2c-4.13.57-5.29,6.44-.24,8-14.1-.06-28,2.42-40.58,1.56l1.34-3.38C610.15,21,600.76,21,596.63,18c-.19,1-1.9,2.8-.79,3.92-7.64,4.24-2-4.09-8.11-1.48-.43.2-.87.4-1.3.62.48-.25.92-.46,1.3-.62,1.73-.8,3.36-1.56,3.64-3L574.43,21.6c-.18-2.52-10.47-8.17-17.62-5.94-.28,1.41,1.77,3.33,3.6,3.62l1.82-.54a2,2,0,0,1-1.82.54l-4.59,1.26-3.52-5.88-6.64,5.16,0,1.13-1.32-.14,1.3-1-.12-4.92c-4.88,1-6.82,7.29-10.77,6.86-14.8-3.14-11.79-4.82-22.3-9.47-1.18,9.4-16.72-.35-19.39,6.39-14-7.06-34.38-2.78-52.77-4.81l1.5-.83c-7.86-4.36-8.95,7.13-17.43,5.23l2.13-1.39c-10.89-5-30-.43-40.33,3.54,2.12-1.41,1.05-4.42-2.29-4.1-2.81,1.84,2.74,6.58-3.11,4.81,1.44-.91.3-3-1-3L374,22.79c-15-3.22-32.7-6.59-48.27-3.88-2.89-1.66-.78-3.35-.09-5-12.35,1-24.64,4.91-35.79,5.76l-1.13-5.42c-5.46,0-3.38,8.31-10.49,3.47-1.58-.73,4.7-.35,6.65-2.76-11-4.11-6.48,5.29-16.95,4.69l2.74-6.13c-8-3.62-9.17,3.23-12.08,6.84-11.28,7.21-8-11.81-23.36-6.4-2.43,3,.81,4.45-1.62,7.46-10.79-1.58-12.08,2.75-22.9,1.18-5.77-9.14,5.51,0-.77-8.54l8.22,2.06c-7.09-4.81,6.44-1.22,5.33-6.63-5.31-1.57-13.39,3-20.33,4.82,0-4.1,8.06-.48,4.86-6L204.46,10c1-1.21,1.15-2.76,3.23-2.65-1.28-3.85-4.18-.23-7.57-.13a17.94,17.94,0,0,0,1.06,8.09,3.43,3.43,0,0,0-.9-1.46c-6.95,5.88-18.69,1.42-24.66,6.11,1-1.22.14-1.57-.17-2.54-4.21-.23-8.53,5.18-14.18,6.73-3.07-3,1.78-9-7.25-7.35-1.61,3.39,2.41,9.28-5.16,9.15,0,0,6.61-2.77,3.07-5.16-7.43,2.38-2.41-1.09-9.18-4.94-3.87,4.8-7.41-1.69-8.23,6.12-2.41-5.18-1.76-3.26-6.44-7,2.08,4.22-8.85,4.21-8.54,9.27-1.92-5.79,7.91-7.09,1.79-13.12-4.18,3.85-12,5.28-12.59,11.53-3.12-1.39-4.59-3.58-9.26-4.28a.76.76,0,0,1-.39-.06l.39.06c.69-.06,1.45-1,1.86-1.49-8.86,4.2-21.93,0-26.93,7.56,1.78-9-18.83-1.11-12.07-9.52-3.7.29-9.53,4.13-10.8,5.81a7,7,0,0,1,0,.8c-.45,0-.35-.35,0-.8.4-7-9.18-1.78-13.2-5.94-2.08,3.94-8.72,2.62-12.75,4.91,1.8-.84,2.76-2.06,2.12-4-4.52,2.88-3.4.13-7.26-3.24-6.13,2.16,1.13,5.38-2.58,8.68-5.31-1.61-.8-4.47-1.76-7.37L8.2,20.9a6.28,6.28,0,0,1-3.38-4C3.38,18,2,19.35.5,19.89V814c3.49-5.85,4.31-3.81,7.6-8.84,1.54,3.44,0,6.69-2.16,9.21H20.68a9.14,9.14,0,0,1-.45-.94l3.62-1c-.28-1.56-2.45-6.41-7.35-3.05-1.19.61-2.06,3.09-1.41,4.07l.95.4a.92.92,0,0,1-.95-.4l-2.72-1.13c1.77-4.29,10.86-5.52,16.58-6.74-1.79,1.76-6.21,3.17-4.86,5.87,5.09-1.4,9.94-4.3,14.86-5.73a6.23,6.23,0,0,1,2.5-1.39c-.07.3-.11.54-.15.83.54-.1,1.09-.19,1.66-.24a5.67,5.67,0,0,1,2.39-.05,21.14,21.14,0,0,0-2.39.05c-.76.24-1.19.8-1.48,1.93a1.88,1.88,0,0,1-.18-1.69,22.24,22.24,0,0,0-2.35.56c-2,1.74-3.22,4.51-4.17,6.24,5.5,2.3,4.12-3,8.29-3.37,1.59,1.75,2.67,2.9,1.62,4.25,5.2-1.78,9.34-2.2,14.86.09a14.49,14.49,0,0,0-2.17,1.44h8.94c3.73-2.32,7.07-4.86,13.5-6.62,12.66-7.3,24.54,4.46,33.34-.85.48-1.95-6.58-3.44-.87-4.66-1,3.9,3.43,2.5,3.71,4.06,6.2-5.7,9.14,1.27,13.53-2.63-1,1.36,2.58,2.86,4.95,4.2A7.51,7.51,0,0,1,135,806l-.48,1.95s0,0-.05,0c-.6,4.17,4.93,2.58.64,6.5h1.28c7.36-2.66,13.39,2.43,19.23-7L153.26,806l9.33,2.27-.4-.12a26.15,26.15,0,0,1-5-1.59l5,1.59c4,.8,4.67-.47,10.1,4.53-1.75.88-4.07,1.11-6.11,1.67h6.65c2.38-1.38,4.81-3,7.28-3.11-.18,2.47-2.94,2.08-4,3.11h9c.6-.23,1.2-.44,1.81-.61l-.16.61h5.75c.93-2.41.7-5.45,4.81-1.67-.22-1.15.68-2.39.24-3.52-.56-.45-1-.86-1.07-1.15a2.3,2.3,0,0,1,1.07,1.15c1.74,1.35,5,3.31,5.3,5.19h5.25a6.73,6.73,0,0,0,1.1-1.1c-2.86-2.87-3.57-1.41-4.65-5.1l13.64-2c1.52,0-1.13,1.89-3,1.91,16,10.31,32.37-8.7,50.41,3.67-2-3.16,1.31-2.8,3.05-5,5.85,1,14.7.17,20.12,2.11L287,811.08c13.93-2.66,23.52-6.1,32.72-4.74.44-.94-.07,3.13-1.73,3.75,6.78-4,14.92,8.65,16.78.19l-2.5-.66c13.42,1.41,28.26-4.68,42.13-5.77,3.25,5.06-8,.53-5.15,6.52,9.61,2,19.37-2.27,29.84-.57-1.71.61-1.32,1.21-2.13,1.54,10.42,3.25-1.15-5,7.63-4.3-.48,2.5-.05,3.12,2.87,4.41l2.58-4a5.87,5.87,0,0,1-.6,4.6c4.18-4.7,15.32-1.43,18.32-6.27.78,1.26-1.4,5.94-.19,7.85,4.66,1.48,7.87-.52,11-2.42.06-2.55,1.84-2.46,4.13-2.11a8.13,8.13,0,0,1,6,.07c-1.89.69-4.1.23-6-.07a23.69,23.69,0,0,0-4.13,2.11s0,0,0,0c2.31,2.46,6.93,2.93,8.9,3.2h5.16c.47-1.19-.69-3.61,3.24-5.49l-6.69-2.26,11.81-1.13L456.26,808c5.42,1.95,11-2.38,17.29-2.28l-2.89-2.89,7.2-1.78c.7,6,9.2,1.34,5.26,8.22,13.18,2.94,21.72-4.53,33.63-5.21-1.43.19-.8,1.28-1.19,2.14,7.1,1.34,11.38-1.74,15.63-4.83-.87,1.86-2.56,2.47-2.59,4.06,8.4.07,5.1-3.41,14.38-5.19-2.57,2.49-1.76,3.77.76,4.41-.39-2.19,1.75-3.74,3.46-4.36-6.9,11.69,9.93,5,6.13,13.86,1.46-2.49,13.39-7.1,11-11.46h0a3.26,3.26,0,0,0-.41-.61l-2.53.88c-.29-3.27,3.14-2,5.73-2.21,1.84-.73,3.51-1.07,1.05-.2a3.56,3.56,0,0,1-1.05.2c-1.32.55-2.73,1.27-2.79,1.94h0c13.14-3.91,26.92-.3,41.68-3.26-1.28,1.23-7.23,3.37-3.44,4.35,14.66,1.74,23.18-4.44,38-7.4.67,7.55-16,1.07-16.55,8.27a442.5,442.5,0,0,0,48.92-8.19c6.05,11.06,16.9-4.52,27.64,4.11-1-3.7,4.33-5,10.16-5.14,0,0,0,0,0-.08l.87.08a44.17,44.17,0,0,1,7.95.66l-7.95-.66c-.3,0-.58,0-.88,0-2,3,4.15,3.09,2.44,5.27,5.11-3.39,19.85-4.78,19.27,2.43,1.34-7,11,.33,15.17-4.61a11.27,11.27,0,0,1-4.48-3.09l5.4,1.94a3.8,3.8,0,0,1-.92,1.15c6.44,2.62,13.82-1.45,21.9.65-2.56-4,6-2.49,9.87-3.49a12,12,0,0,1,1.13-.45,4.23,4.23,0,0,1-1.13.45c-.67.31-1.25.7-1,1.09,2.43,3.81,9.32-3.34,13.88-1.08,2.06,1.59-.51,4.06,2.84,4.41.08-3.12,12.34-6.76,16.89-2.93-2.1,0-2.14,1.56-3.42,2.77,21.53-5.36,44.5,1.17,66.5-5.14l-3.9,5.27c13.73,6.77,9-8.67,19.92-7.91,29.79,2.56,60.71,10.13,89.78,6.71,2.13-1.54-1.24-1.89-1.59-4.09,2.52.65,3.24,5,6.67,2.27l-.76-2.84c13.27,7.69,38.33-5.2,48.17,6.84,12.7-4.53,21.65,3.27,37.07-3.54,4.87,2.52-5.65,4.88.93,5.59l14.29-4.43c13.85-7.44,36,9.82,53,3.81l-.74.42c-.4,2,3.17,4.35,6,3.67,1-1.39-.91-2.11-2.58-3.79,15.43-3.32,18.81-3.47,31-4.13-5.27,2.93,4.88,2.55,5.41,6.63,3.21-2.66-1.84-4.23,5.3-6.46,10.16-.37,19.53,3.15,28,4.58,3.42-3.63,7.91-2.63,8.14-7.11,11.48-.26,17.87-2,32-2l.36,1.55c3.79-5.6,12.22,2.83,14.84-.39-.39,2-1.89,2.79-1.51,4.35l6.4-1.81c-3,1.69-4.75,7,.52,7.6,5.48-3.93-1.51-2.68,1.16-5.9l1.65,5.2c4.14-.56,5.3-6.43.24-8,14.1.06,28-2.43,40.58-1.57l-1.34,3.39c7-1.25,16.36-1.22,20.49,1.75.19-1,1.9-2.81.79-3.92,7.63-4.24,2,4.08,8.1,1.48.44-.2.88-.41,1.3-.63-.48.26-.91.46-1.3.63-1.73.8-3.35,1.55-3.63,3l16.93-4.16c.18,2.52,10.47,8.17,17.63,6,.28-1.42-1.78-3.34-3.6-3.63l-1.83.54a2,2,0,0,1,1.83-.54l4.58-1.26,3.53,5.88,6.63-5.16,0-1.12,1.32.13-1.3,1,.12,4.92c4.89-1,6.83-7.28,10.78-6.85,14.79,3.13,11.78,4.81,22.29,9.47,1.18-9.4,16.73.35,19.4-6.4,14,7.07,34.37,2.78,52.77,4.81l-1.51.83c7.86,4.36,9-7.13,17.43-5.23l-2.12,1.39c10.88,5,30,.43,40.32-3.53-2.11,1.4-1,4.42,2.29,4.09,2.81-1.84-2.74-6.58,3.12-4.8-1.45.9-.31,3,1,3l5.74-4.68c15,3.21,32.7,6.58,48.28,3.87,2.89,1.66.77,3.36.09,5,12.35-1,24.63-4.9,35.78-5.76l1.13,5.43c5.47,0,3.39-8.31,10.49-3.48,1.59.73-4.69.35-6.64,2.76,11,4.12,6.47-5.29,17-4.68l-2.74,6.12c8,3.62,9.16-3.23,12.08-6.84,11.28-7.21,8,11.81,23.35,6.41,2.43-3-.8-4.46,1.63-7.46,10.79,1.58,12.07-2.75,22.89-1.18,5.77,9.14-5.51,0,.78,8.54l-8.22-2.07c7.08,4.81-6.45,1.22-5.34,6.64,5.31,1.56,13.39-3,20.33-4.82,0,4.1-8.06.48-4.86,6l3.56-1.67c-1,1.2-1.15,2.75-3.23,2.64,1.28,3.85,4.18.23,7.58.13a17.94,17.94,0,0,0-1.07-8.08,3.42,3.42,0,0,0,.91,1.46c7-5.88,18.69-1.43,24.65-6.11-1,1.21-.14,1.57.17,2.54,4.21.22,8.54-5.18,14.18-6.74,3.08,3-1.78,9,7.26,7.35,1.6-3.38-2.41-9.28,5.16-9.15,0,0-6.61,2.77-3.08,5.16,7.44-2.37,2.41,1.09,9.18,4.94,3.88-4.79,7.41,1.7,8.23-6.12,2.41,5.18,1.76,3.26,6.44,7-2.08-4.22,8.85-4.21,8.54-9.27,1.92,5.79-7.9,7.1-1.79,13.13,4.19-3.86,12-5.29,12.6-11.53,3.12,1.39,4.58,3.58,9.25,4.27a.75.75,0,0,1,.39.06l-.39-.06c-.69.06-1.44,1-1.86,1.49,8.86-4.19,21.93,0,26.94-7.55-1.79,9,18.82,1.1,12.06,9.51,3.7-.29,9.53-4.12,10.8-5.81a6.92,6.92,0,0,1,0-.79c.44,0,.34.34,0,.79-.4,7,9.19,1.78,13.21,6,2.08-4,8.71-2.62,12.74-4.92-1.79.84-2.75,2.06-2.12,4,4.53-2.88,3.4-.13,7.26,3.25,6.14-2.17-1.13-5.39,2.58-8.68,5.31,1.6.8,4.46,1.76,7.37l5.39-4.83V.5H1891.5ZM15.75,804.47c-.21.5-.78.53-1.45.53l-3.06,1.13c.69-1.28,2-1.14,3.06-1.13l1.45-.53a1.28,1.28,0,0,0,.16-.72l1.31.19Zm37.86-.09L53.2,806a3.22,3.22,0,0,1,.41-1.63l.34-1.29c3.64-1,7.57,2.08,10.18,2.45C61.65,808.28,55.32,802,53.61,804.38Zm147.59-789a13.07,13.07,0,0,0,2.31,4C194.63,19.68,202,18.54,201.2,15.35ZM377.26,808.28l1.76-3.74,3.69,2.53ZM1552.08,13.87l-3.69-2.53,5.45-1.2ZM1729.9,803.06a13.07,13.07,0,0,0-2.31-4C1736.48,798.74,1729.13,799.87,1729.9,803.06ZM1877.5,14l-.34,1.3c-3.64,1-7.58-2.08-10.19-2.45,2.48-2.74,8.82,3.57,10.53,1.15l.41-1.62A3.32,3.32,0,0,1,1877.5,14Zm39.31-.62-1.46.53a1.24,1.24,0,0,0-.15.72l-1.31-.18,1.46-.54c.21-.49.79-.53,1.46-.53l3.06-1.12C1919.17,13.57,1917.87,13.43,1916.81,13.41Z"/><path class="cls-2" d="M1597,806.22a61,61,0,0,1-6.44-.18c2.21,1.31,5.71,2.2,4.9,3.24C1597,809.36,1597.55,807.77,1597,806.22Z"/><path class="cls-2" d="M34.38,814.39h6.83l.87-1.88C39.75,812.34,37.07,813.3,34.38,814.39Z"/><path class="cls-2" d="M234.19,814.39h.94c0-.09,0-.19,0-.28C234.77,814.2,234.47,814.29,234.19,814.39Z"/><polygon class="cls-2" points="0.5 18.44 2.58 18.37 0.5 15.49 0.5 18.44"/><path class="cls-2" d="M1696,4.31c3.14-.89,4.44-2.24,4.8-3.81h-5A14.69,14.69,0,0,0,1696,4.31Z"/><path class="cls-2" d="M1849.43.5h-6l2,3.78C1847.91,2.84,1849,1.59,1849.43.5Z"/><path class="cls-2" d="M325.66,12.44c-1.84.2-2.89.29-3.65.35l3.65-.26Z"/><path class="cls-2" d="M3.69,814.39a1.7,1.7,0,0,0-.42-.82c-.45.31-.9.57-1.34.82Z"/><path class="cls-2" d="M1884.59,4.77l5.8-4.27h-7.2A5.15,5.15,0,0,0,1884.59,4.77Z"/><path class="cls-2" d="M334.07,12.2a64.23,64.23,0,0,1,6.45.17c-2.22-1.3-5.72-2.2-4.91-3.23C334.12,9.06,333.55,10.65,334.07,12.2Z"/></g></g></g></svg>