<svg xmlns="http://www.w3.org/2000/svg" viewBox="0 0 246.82 247.48"><defs><style>.cls-1{fill:#6d960e;}.cls-2{fill:#1e1e21;}</style></defs><g id="Layer_2" data-name="Layer 2"><g id="Layer_2-2" data-name="Layer 2"><circle class="cls-1" cx="123.41" cy="123.41" r="123.41"/><path class="cls-2" d="M180.42,78.72C189,71.22,198.05,64.23,205.83,56c3.5-3.72,5.15-9.13,11.31-9.91a1.08,1.08,0,0,1,1.16,1.37c-1.42,4.95-5.37,6.95-9.6,9.8-7.68,5.18-14.08,12.27-20.81,18.51a1.07,1.07,0,0,0-.17,1.38c20.19,30.41,32,62.6,24.75,99.68-1.54,7.83-2.67,15.74-4.08,24.82a1.08,1.08,0,0,1-2.13.06,25.66,25.66,0,0,1-.8-7.26c.85-10.59,3-21.09,3.56-31.68,1.17-23.93-5-46-18.44-67.08a1.1,1.1,0,0,0-1.74-.13c-9.23,10.48-18.14,20.54-27,30.65q-7,8-14,16l-7.5,8.59c-1,1.18-3.84,4.33-5,5.36-.94.83-.91,1.18-.85,1.79.68,7,3.21,13.89,4.57,20.52,1.82,8.87,1.12,16.75,3.86,25.38,1.2,3.75,3,5.66,2.78,8.44a7.69,7.69,0,0,0,.53,3.42c1.58,3.9.93,4,3.3,6.89,1.67,2,2.25,4.75,3.69,6.92.77,1.14,4.3,7.72,6.4,10.39a1.08,1.08,0,0,1-.52,1.71c-24.31,7.76-48.43,8.06-74.2-.91a1.1,1.1,0,0,1-.55-1.63c2.84-4.44,5.27-8.58,8.15-12.39s1.24-15.92-2.83-18.87c-5.84-4.24-10.11-10-18-9.89-7.43.09-13.68,4.83-20.17,7.81a76.33,76.33,0,0,1-9.08,3.07c-3.39,1.05-3.52-3.72-4-5.95a17.34,17.34,0,0,1-.16-7.75c1-4.33,4.08-7.58,7.69-10,8.65-5.72,18.62-9.44,25.37-17.68a74.75,74.75,0,0,1,5.09-5.72c1.58-1.58,3.41-3.2,3.71-5.56.37-3-2.42-5.22-4.73-6.58-3.48-2-7.13-4-10.15-6.62-7.4-6.43-8.23-14.35-2.87-22.58C65.23,116,71.09,113,76,111.53c2.14-.65,4.75-1.28,7-.6,1.86.58,3.34,2.8,4.85,4,2.08,1.67,4.42,3,6.57,4.59a16.56,16.56,0,0,1,5,5.49,60.86,60.86,0,0,0,2.9,5.4c1.1,1.69,2.79,3.11,3.57,5s-.2,3.16-1.48,4.4c-1.52,1.46-2.55,2.61-2.71,4.83-.06.86-.1,1.8-.08,2.71a1.08,1.08,0,0,0,1.74.83c1.35-1,2.7-2.85,3.62-3.67l5.31-4.76,10.59-9.5L144,111.36l36.68-32.88Zm-40.8,41.81.51.65a1.1,1.1,0,0,0,1.6.13c3.44-3.22,6.87-6.44,10.33-9.63,1.94-1.78,3.87-3.56,5.91-5.22,5.24-4.23,10.67-8.24,15.72-12.69,1.4-1.22,2.08-3.25,3-5.06a1.09,1.09,0,0,0-.39-1.37h0a1.08,1.08,0,0,0-1.32.1l-35.19,31.61A1.1,1.1,0,0,0,139.62,120.53Z"/><path class="cls-2" d="M180.42,78.72l.25-.24c-3-.66-6.66-.43-8.9-2.11C146.66,57.63,118.45,49.5,87.32,50.73c-6,.24-12.13.9-18.12.43-3.2-.25-6.24-2.49-9.36-3.84,8.17,0,15.5.43,22.76-.08,33.62-2.35,65.23,3,92.86,23.72C177.76,72.68,178.8,76.1,180.42,78.72Z"/></g></g></svg>