<svg xmlns="http://www.w3.org/2000/svg" viewBox="0 0 627.98 628.01"><defs><style>.cls-1{fill:#221f20;}.cls-2{fill:#eeeded;}.cls-3{fill:#0980aa;}.cls-4{fill:#b83232;}.cls-5{fill:#ede21a;}</style></defs><g id="Layer_2" data-name="Layer 2"><g id="Layer_1-2" data-name="Layer 1"><path class="cls-1" d="M339.29,568.76c.11,1.41.25,2.41.26,3.4a1.51,1.51,0,0,1-1.35,1.76c-1.24.15-1.83-.5-2-1.67-.65-6-1.32-11.89-2-17.83a2.36,2.36,0,0,1,.64-2.26c1.62-1.4,11.39-1.3,13,.35,3,3.11,3.11,6.32.16,9.7-2.33,2.67,1.23,3.91,1.75,5.91.38,1.42,3.2,2.57,1.32,4s-3.22-.51-4.21-2.13c-.61-1-1.28-1.94-1.91-2.92-1.09-1.69-2.11-3.63-4.63-2.71C337.66,565.4,340,567.65,339.29,568.76Zm-1.24-11.36c.51,1.48-.66,4.27,2.82,3.86,2.46-.29,5.37-.06,5.68-3.48.26-2.79-1.62-3.84-4.16-3.58C340.46,554.4,337.63,553.59,338.05,557.4Z"/><path class="cls-1" d="M276.89,555.1c-.16,1.36,0,3.38-1.32,4-4.94,2.35-3.2,5.86-2.13,9.45.29,1,1.8,2.63-.48,3.12-1.43.31-2.42-.64-2.8-2.2-.46-1.94-1.22-3.81-1.64-5.75a3.17,3.17,0,0,0-3.51-2.81c-2,0-1.33,1.92-1.95,2.93-1.08,1.76.59,6-2.68,5.24s-.73-4.19-.5-6.29c.46-4.28,1.65-8.48,2.3-12.74.33-2.16,1.17-2.9,3.28-2.38,2.42.6,4.91.92,7.28,1.64C275.42,550.13,276.65,552.24,276.89,555.1Zm-7.84,3.53c2.3-.06,4.29-.48,4.31-3.13,0-3.75-3-3.84-5.57-4.21-3.64-.53-2.88,2.74-3.12,4.39C264.15,559.26,267.63,557.66,269.05,558.63Z"/><path class="cls-1" d="M278.23,563.91c.35-2.3.51-4.65,1.08-6.89,1.11-4.37,4.2-6.31,8.57-5.87s6.62,3.27,7,7.67c.46,5-2.5,9.55-1.52,14.56.05.27-.78,1-.84,1-3.45-2.22-7.89.49-11.26-2.38C278.71,569.76,278,567.1,278.23,563.91Zm13.11-3.16c.23-3.55-.36-6.27-4.1-6.52-3.4-.22-4.54,2.15-4.89,5.06a60.3,60.3,0,0,0-.67,6.41,4.18,4.18,0,0,0,3.17,4.49c3.28.86,1.83-1.46,1.87-2.81,0-.24.43-.69.61-.66C293.37,567.52,290,562.43,291.34,560.75Z"/><path class="cls-1" d="M317.72,563c-.79-11,.25-11.92,11.51-10.79,1,.11,2.09,0,2.24,1.33.2,1.72-1.05,1.76-2.28,1.79-1.66,0-3.32.2-5,.14-2.72-.12-3.29,1.2-3.19,3.69s1.22,2.82,3.43,2.93c1.95.1,5.51-2,5.6,1.38.08,2.79-3.51,1.31-5.4,1.47-2.49.21-3.44.94-3.37,3.6.08,2.86,1.48,3.09,3.79,3.16s6.82-1.75,6.84,1c0,3.43-4.51,1.7-6.94,1.87-7.74.54-6.5,1.31-7-6.14C317.85,566.67,317.8,564.84,317.72,563Z"/><path class="cls-1" d="M207.56,552.06c-1.69-.2-4.21-1.92-7-3-1.6-.64-1.63-1.79-.95-3.23,2.47-5.25,4.87-10.54,7.3-15.81.52-1.12,1.2-2.2,2.63-1.39,3.75,2.13,8.9,2.61,10,8,.78,4-3.41,12.78-6.82,14.79C211.52,552.11,210.27,552.34,207.56,552.06Zm8.65-13.16c.43-3.66-2-4.84-4.51-5.89-3.21-1.34-2.95,1.76-3.78,3.2a40.07,40.07,0,0,0-3.14,6.74c-.48,1.4-2.86,3.07,0,4.53,2.4,1.23,5,2.67,7.23.09S215.22,541.82,216.21,538.9Z"/><path class="cls-1" d="M231.13,558.91c-.43,1.83-1.15,2.34-2.61,1.76-3.09-1.23-6.2-2.38-9.31-3.52-1.94-.7-1.81-1.86-1.16-3.53,2-5.09,3.82-10.24,5.73-15.36.52-1.4.93-2.92,3.09-2,3.08,1.23,6.24,2.28,9.34,3.47,1,.37,1.76,1,1.29,2.26s-1.53.93-2.47.58c-1.56-.56-3.15-1.08-4.66-1.75-2.15-.95-3.58-.93-4.58,1.73s.05,3.66,2.29,4.33a6.26,6.26,0,0,1,1.85.72c1,.74,3.59.27,2.72,2.58s-2.47.4-3.76.23c-1.84-.23-3.54-2.36-5.46-.76-2.38,2-1.61,5,1.36,6.36C227,556.92,229.51,557.16,231.13,558.91Z"/><path class="cls-1" d="M255.75,565.8c-.05.7.88,2.24-1.07,2.34-1.29.07-1.89-.79-2.31-2.11-1.55-4.83-6.28-6-10.28-2.64-1.05.89-2.06,1.34-3.07.52-1.39-1.11,0-2.08.56-2.93,3.31-4.79,6.67-9.54,10-14.29.75-1.07,1.4-2.52,3.06-2s1.46,2,1.58,3.37C254.73,553.89,255.23,559.69,255.75,565.8Zm-4.88-14.7c-1.42,2.5-5,3.84-3.94,7.12.22.73,3.33,1.54,3.89,1C253.4,556.83,250.9,553.89,250.87,551.1Z"/><path class="cls-1" d="M313.82,561.45c-.1,2.16-.11,4.34-.31,6.49-.44,4.57-3.22,6.79-7.63,7a7.52,7.52,0,0,1-8.16-7.06c-.21-4.47.23-9,.39-13.47,0-1.36.54-2.34,2.09-2s1.46,1.9,1.15,2.8c-1.23,3.52-.87,7.13-1,10.72s1.78,5.72,5.18,5.88c3.65.18,4.7-2.46,4.76-5.66s.14-6.67.28-10c.06-1.4-.36-3.41,2-3.21s1.46,2.2,1.49,3.55C314.08,558.12,313.9,559.79,313.82,561.45Z"/><path class="cls-1" d="M362.05,567c.75-5.5,1.53-11.09,2.25-16.7.18-1.34.18-2.74,1.82-3.17s2,.83,2.64,1.78q5,7.76,10,15.53c.52.83,1.24,1.83,0,2.54a2.22,2.22,0,0,1-2.69-.47c-4.63-3.89-8.19-3.1-10.77,2.38-.52,1.1-1.32,1.68-2.28,1.48C360.8,569.92,362.24,568.26,362.05,567Zm5.13-13.53c-.28,1.93-.62,3.68-.77,5.46-.08,1-.79,2.66.81,2.84a6.59,6.59,0,0,0,4.22-1c1.27-.9-.12-2.11-.7-2.93C369.74,556.42,369.33,554.47,367.18,553.48Z"/><path class="cls-1" d="M352.6,552c-.29-1.27,0-2.38,1.46-2.57,1.66-.21,1.79,1.19,2,2.28,1,5.71,1.89,11.43,2.85,17.14.22,1.27.26,2.37-1.41,2.5-1.2.1-1.79-.56-2-1.72C354.55,563.72,353.57,557.85,352.6,552Z"/><path class="cls-1" d="M352,547.52c1.52-2.38.5-4.85,3.13-5.59.7-.2,1.62,0,1.38.81C356,544.51,355.78,546.7,352,547.52Z"/><path class="cls-2" d="M338.05,557.4c-.42-3.81,2.41-3,4.34-3.2,2.54-.26,4.42.79,4.16,3.58-.31,3.42-3.22,3.19-5.68,3.48C337.39,561.67,338.56,558.88,338.05,557.4Z"/><path class="cls-2" d="M269.05,558.63c-1.42-1-4.9.63-4.38-3,.24-1.65-.52-4.92,3.12-4.39,2.57.37,5.6.46,5.57,4.21C273.34,558.15,271.35,558.57,269.05,558.63Z"/><path class="cls-2" d="M291.34,560.75c-1.31,1.68,2,6.77-4,6-.18,0-.61.42-.61.66,0,1.35,1.41,3.67-1.87,2.81a4.18,4.18,0,0,1-3.17-4.49,60.3,60.3,0,0,1,.67-6.41c.35-2.91,1.49-5.28,4.89-5.06C291,554.48,291.57,557.2,291.34,560.75Z"/><path class="cls-2" d="M216.21,538.9c-1,2.92-2,6.15-4.19,8.67s-4.83,1.14-7.23-.09c-2.87-1.46-.49-3.13,0-4.53a40.07,40.07,0,0,1,3.14-6.74c.83-1.44.57-4.54,3.78-3.2C214.21,534.06,216.64,535.24,216.21,538.9Z"/><path class="cls-2" d="M250.87,551.1c0,2.79,2.53,5.73-.05,8.13-.56.53-3.67-.28-3.89-1C245.92,554.94,249.45,553.6,250.87,551.1Z"/><path class="cls-1" d="M313.71,628C140,627.7-.37,487,0,313.61A313.71,313.71,0,0,1,315,0C488.19.42,628.32,141.26,628,314.62S486.86,628.33,313.71,628Zm0-617.68C147.1,10,10.69,146,10.33,312.74A303.49,303.49,0,0,0,313.7,617.63c167,.5,303.5-135.35,303.84-302.38A303.43,303.43,0,0,0,313.71,10.33Z"/><path class="cls-2" d="M313.71,10.33A303.43,303.43,0,0,1,617.54,315.25c-.34,167-136.85,302.88-303.84,302.38A303.49,303.49,0,0,1,10.33,312.74C10.69,146,147.1,10,313.71,10.33ZM186.27,518.14c-.6-4.42-2.7-4.62-6-2.3-1.53,1.08-3,2.55-5.54,2.22.26-2,.57-3.93.73-5.86.14-1.69,1.23-4.22-1.4-4.49s-1.33,2.43-1.68,3.79c-1,4-.42,8.2-2.7,12-1.1,1.82-4.92,4-2.22,5.93s3.29-2.48,4.82-4c3.38-3.42,6.75-6.65,12-6.34-.79,3.92-4.11,6.45-5.47,10.09-1.56,4.18-.69,7.53,3.07,10s7.84,1.66,10.54-2a41.72,41.72,0,0,0,4-6.86c2.67-5.66-.77-11.24-7-11.73C188.4,518.39,187.2,519.45,186.27,518.14ZM449.6,328.57c5.32-5.45,8.36-12.08,10.51-19.31,1.36-4.55-1.2-10.91-5.71-12.39a40.42,40.42,0,0,0-5.31-1c.1-3.84-1.09-7.46-2.16-11.06-2.75-9.21-4.61-18.86-8.7-27.45-11.06-23.23-25-44.57-43.81-62.55a244.53,244.53,0,0,0-34.1-27.18c-1.7-1.13-2.44-3.49-5-3.55-1.39,0-2.8-.25-3.5,1.08a2.35,2.35,0,0,0,1.29,3.31A5.64,5.64,0,0,1,356.2,172c-25.95,34.6-51.91,69.2-78.52,104.69-1.16-4.88-5.12-7.57-3.38-11.43a11.54,11.54,0,0,0,.22-9.61c-1.28-3.15-1.55-5.84.93-8.73,1.43-1.65,2.28-4,.33-6.34a21.2,21.2,0,0,0-15.89-8.19,49.85,49.85,0,0,0-32.8,10c-7.51,5.67-14.54,12.17-13.49,23.46.38,4.11-1.74,8.42-2.47,12.68-1.1,6.47,1.36,12.09,5.1,17.07,1.21,1.6,2.07,2.49,1.31,4.65-.91,2.53-2.64,2.13-4.41,2-8.3-.65-16.61-1.08-24.84-2.44-10.26-1.69-20.55-2-30.78.43-10.45,2.44-20.69,5.3-28.22,13.78-3.54,4-5.93,13.59-3.91,17.19,9.42,16.72,24.32,25.05,42.91,27.13,7,.78,10.37,3.85,9.76,10.9a249.19,249.19,0,0,0-.9,29.43c.13,4,.7,4.9,4.66,3.3q24.75-10,49.72-19.53a10.37,10.37,0,0,0,7.08-8.11c3.19-13.43,6.19-26.91,8.28-40.56.31-2,.42-3.48,2.91-3.71,2.66-.25,4.31-2.27,6.1-4.38,1.11,1.39,2.18,2.64,3.15,4q44.47,60.57,89,121.1c3.47,4.7,6.08,10.15,11,13.73-.94,2.59-3.49,3.27-5.42,4.72-1.06.79-2.79,1.79-1.87,3.6s2.93,1.63,4.34,1a53.72,53.72,0,0,0,8.91-5,259.61,259.61,0,0,0,31.85-27.4,214.29,214.29,0,0,0,25.68-32.1,192.89,192.89,0,0,0,14.29-25.52c4.36-9.41,6.75-19.41,10-29.15C449.54,346.2,449.17,337.31,449.6,328.57Zm124.57-12.16c0-43.86-13.08-83.84-36.31-120.69-25.54-40.51-59.68-72.56-98.89-99.51-6.58-4.52-13.4-8.69-20.11-13-2.31-1.49-4.57-1.41-6.08,1s.3,3.69,2,4.94c.53.4,1.1.75,1.65,1.13A310.82,310.82,0,0,1,458,125.13c47.43,47.53,77.28,103.67,83.38,171.28a247.41,247.41,0,0,1-16.73,115c-19.61,49.32-51.51,89.33-93.15,121.82-5.76,4.5-11.82,8.62-17.68,13-1.61,1.2-3.41,2.69-2,5s3.66,2.65,6.07,1.28c.44-.24.89-.46,1.33-.71A366.39,366.39,0,0,0,485.48,503c14.51-13.34,27.16-28.33,39-44.05C556.22,416.7,574.34,369.75,574.17,316.41Zm-91.55.9A217.36,217.36,0,0,1,471.9,385.6c-15.29,46.45-43,84-81.34,114.12-2.87,2.26-5.88,4.37-8.74,6.64-1.24,1-2,2.33-.91,3.91a2.89,2.89,0,0,0,4,.92c.89-.44,1.75-1,2.6-1.49,41.1-25.35,74.21-58.58,96.55-101.48C514.89,349,515.68,288.81,485.35,229c-22.36-44.1-57-76.91-97.9-103.73-1.92-1.26-4-2.55-5.61-.08s.71,3.57,2.27,4.74a254.43,254.43,0,0,1,45.75,43.62C463.82,215.46,482,263.17,482.62,317.31Zm-237.24,74.8c-3.8.13-7.61-.45-11.35,1-16.57,6.53-33.47,12.2-49.66,19.7-3.82,1.77-3.62,2.94-1.45,5.91,15.54,21.31,34.44,38.78,57.81,51.23,6.28,3.35,6.08,3.37,8.4-3.45Q260.46,433.19,272,400c1.11-3.18,1-4.67-2.84-5.2C261.28,393.68,253.4,392.29,245.38,392.11ZM247.6,62a31.13,31.13,0,0,0-9.32,1.61c-6.69,2-13.33,4.23-20.08,6-3.58.94-4.32,2.3-3.18,5.92,5.17,16.34,10,32.77,15,49.18,3.73,12.42,3.67,12.34,16.08,8.45,2.84-.89,3.74-1.85,2.67-4.87-1.88-5.32-3.42-10.78-4.89-16.24-.43-1.63-2.45-3.64.47-5.14,2.55-1.31,4.25-.46,6,1.58,4.58,5.29,9.38,10.38,14,15.6,1.4,1.56,2.67,2.8,5.09,2,4.25-1.45,8.57-2.72,12.89-3.93,2.74-.78,2.6-1.78.78-3.61-5.87-5.91-11.54-12-17.46-17.87-1.9-1.87-2.1-3.07-.38-5.29,5.23-6.73,5.53-14.17,1.72-21.59C263,66,256.39,62.15,247.6,62Zm87.26,25.88c-.21-4.63-.28-8.13-.54-11.61-1.12-14.84-11.18-24.2-25.85-24.14s-25,9.44-25.92,24.09a168.65,168.65,0,0,0,.36,21.44c1.25,20.18,20,28.47,36.53,22.32,2.57-1,4.37-1.17,6,1.08,2,2.65,3.66,2.14,5.41-.28a16.34,16.34,0,0,1,2.77-2.87c2.36-2,3-3.78,0-5.81-1.44-1-2.25-2.26-1.34-4.25C335.46,101.14,334.87,93.92,334.86,87.92ZM156.24,193.71c-.19-9.72-4.15-16.47-11.36-21.4q-13.57-9.3-27.2-18.56c-9-6.09-8.78-5.93-15.14,2.69-2.86,3.87-3.06,5.84,1.44,8.66,10.56,6.63,20.71,13.9,31,20.93,3.48,2.37,6.09,5.3,5.3,9.92-1.2,7.1-8.06,10-14.56,5.75-9-5.77-17.68-11.86-26.48-17.86-10.7-7.29-10.54-7.21-17.83,3.6-2,3-1,4.11,1.4,5.73Q99,204,115,215c8.19,5.63,16.8,7.19,25.84,2.43C150.67,212.28,155.28,203.65,156.24,193.71Zm23.33-22.46c2.74-1.82,5.36-4,8.31-5.4,4.53-2.21,6.09-5.13,3.71-9.81-1.59-3.12-.38-5.12,2.55-6.81a126.83,126.83,0,0,0,11.22-7.45c2-1.46,3.59-1.5,5.14.35,4.05,4.84,8.13,4.56,12.47.34a15.87,15.87,0,0,1,4.13-2.76c4-2,3.12-3.45,0-5.69-16.83-12.21-33.62-24.48-50.23-37-3.45-2.6-5.65-2.71-9.49-.45-5.29,3.11-6.87,6.43-4.31,12,.76,1.62.88,3.53,1.31,5.31q6.53,26.88,13.09,53.75C177.82,168.87,177.55,170.63,179.57,171.25ZM55.42,257.09c-.05,10.51,5.68,19.07,16,23a112.5,112.5,0,0,0,24.08,6.36c12.62,1.83,23-3.8,27.14-15.24,5.35-14.65,1.65-23.7-9-31.91-4-3.11-4.7-2.75-6,2.22-.66,2.41-1.17,4.86-2,7.22-.92,2.74-.79,4.78,1.75,6.88,3.07,2.56,2.76,6.2,1.32,9.66a7.07,7.07,0,0,1-7.56,4.62,77.75,77.75,0,0,1-26.36-7,7,7,0,0,1-4.1-7.39c.33-3.48,1.67-7.06,5.32-7.68,4.28-.72,5.16-3.33,5.83-6.71a38,38,0,0,1,1.67-6.26c1.4-3.64.73-5-3.54-4.71C65.75,231,55.48,242.05,55.42,257.09Zm24.26,67.24a9,9,0,0,0-9.14-9.13,9.11,9.11,0,0,0-.05,18.21A9,9,0,0,0,79.68,324.33Zm18,91.7c-.05-2.24-1.41-4-2-6.09-1.19-4.09-3.05-5.34-7-2.82-2.78,1.75-6,2.79-9,4.14-6.59,3-6.59,3-3.59,9.34.35.75.69,1.5,1.06,2.24,1.35,2.62,3.84,4.76,6.35,3.45,4.09-2.13,8-4.47,12.45-5.9C97.42,419.88,97.66,417.75,97.65,416ZM339.29,568.76c.69-1.11-1.63-3.36,1.08-4.35,2.52-.92,3.54,1,4.63,2.71.63,1,1.3,1.93,1.91,2.92,1,1.62,2.32,3.62,4.21,2.13s-.94-2.63-1.32-4c-.52-2-4.08-3.24-1.75-5.91,2.95-3.38,2.83-6.59-.16-9.7-1.59-1.65-11.36-1.75-13-.35a2.36,2.36,0,0,0-.64,2.26c.65,5.94,1.32,11.88,2,17.83.13,1.17.72,1.82,2,1.67a1.51,1.51,0,0,0,1.35-1.76C339.54,571.17,339.4,570.17,339.29,568.76Zm-62.4-13.66c-.24-2.86-1.47-5-4.15-5.79-2.37-.72-4.86-1-7.28-1.64-2.11-.52-2.95.22-3.28,2.38-.65,4.26-1.84,8.46-2.3,12.74-.23,2.1-2.8,5.55.5,6.29s1.6-3.48,2.68-5.24c.62-1,0-2.89,1.95-2.93a3.17,3.17,0,0,1,3.51,2.81c.42,1.94,1.18,3.81,1.64,5.75.38,1.56,1.37,2.51,2.8,2.2,2.28-.49.77-2.15.48-3.12-1.07-3.59-2.81-7.1,2.13-9.45C276.87,558.48,276.73,556.46,276.89,555.1ZM112.55,460.77a6.32,6.32,0,0,0,5.75-2.53,6.11,6.11,0,0,0,.42-7c-1-1.88-2.41-3.58-3.48-5.44-1.27-2.23-2.52-2.49-4.63-.83-3.26,2.56-6.9,4.62-10.12,7.21-1.69,1.36-6,2-4.26,4.72,2.07,3.25,3.76-1.41,5.88-1.91,1.17-.28,2.08-1.86,3.43-.35a3,3,0,0,1,.68,3.62q-1.29,2.42-2.67,4.78c-1,1.62-2.12,3.7,0,4.77s2-1.77,3-2.81C108.1,463.18,107.81,458.89,112.55,460.77ZM130.68,496c2.11-.07,7.09-3,7.35-4.65.37-2.35-2-3.18-3.1-4.68-.58-.78-1.35-1.67-2.46-.84s-.62,1.72.12,2.52,1.66,1.8.55,3a4.07,4.07,0,0,1-3.64,1.19,4.33,4.33,0,0,1-3.32-6.66,18.51,18.51,0,0,1,3.68-4c1.95-1.69,3.75-4.26,6.83-3.14s3.61,3.56,2.84,6.54a2,2,0,0,0,1.35,2.34c1.15.22,1.54-1,1.86-2,1.16-3.46-.1-6.26-2.62-8.5-2.81-2.48-6.14-2.87-9.16-.63a50.11,50.11,0,0,0-7.23,6.82c-2.1,2.33-2.08,5.21-.71,7.94C124.56,494.38,127.27,495.83,130.68,496Zm147.55,67.89c-.25,3.19.48,5.85,3.06,8,3.37,2.87,7.81.16,11.26,2.38.06,0,.89-.68.84-1-1-5,2-9.59,1.52-14.56-.41-4.4-2.56-7.21-7-7.67s-7.46,1.5-8.57,5.87C278.74,559.26,278.58,561.61,278.23,563.91Zm39.49-.9c.08,1.83.13,3.66.25,5.48.5,7.45-.74,6.68,7,6.14,2.43-.17,7,1.56,6.94-1.87,0-2.8-4.42-1-6.84-1s-3.71-.3-3.79-3.16c-.07-2.66.88-3.39,3.37-3.6,1.89-.16,5.48,1.32,5.4-1.47-.09-3.34-3.65-1.28-5.6-1.38-2.21-.11-3.32-.42-3.43-2.93s.47-3.81,3.19-3.69c1.66.06,3.32-.11,5-.14,1.23,0,2.48-.07,2.28-1.79-.15-1.34-1.22-1.22-2.24-1.33C318,551.09,316.93,552.05,317.72,563Zm-110.16-11c2.71.28,4,.05,5.17-.66,3.41-2,7.6-10.83,6.82-14.79-1.07-5.41-6.22-5.89-10-8-1.43-.81-2.11.27-2.63,1.39-2.43,5.27-4.83,10.56-7.3,15.81-.68,1.44-.65,2.59.95,3.23C203.35,550.14,205.87,551.86,207.56,552.06Zm23.57,6.85c-1.62-1.75-4.18-2-6.34-2.95-3-1.32-3.74-4.37-1.36-6.36,1.92-1.6,3.62.53,5.46.76,1.29.17,2.91,2,3.76-.23s-1.68-1.84-2.72-2.58a6.26,6.26,0,0,0-1.85-.72c-2.24-.67-3.3-1.67-2.29-4.33s2.43-2.68,4.58-1.73c1.51.67,3.1,1.19,4.66,1.75.94.35,1.95.78,2.47-.58s-.33-1.89-1.29-2.26c-3.1-1.19-6.26-2.24-9.34-3.47-2.16-.87-2.57.65-3.09,2-1.91,5.12-3.73,10.27-5.73,15.36-.65,1.67-.78,2.83,1.16,3.53,3.11,1.14,6.22,2.29,9.31,3.52C230,561.25,230.7,560.74,231.13,558.91ZM144.5,509.66a8.25,8.25,0,0,0,2.95-.76c4.58-3.14,7.67-7.78,11.4-11.78.64-.69.36-1.5-.39-2.15-1.05-.9-1.82-.39-2.54.4-2.69,3-5.35,5.94-8,8.88-2.09,2.29-4.49,3-7,.76s-1.74-4.74.25-7c2.55-2.85,5.13-5.67,7.71-8.5.82-.9,1.59-1.8.34-2.94s-2.09-.21-2.89.67c-2.9,3.21-5.92,6.32-8.64,9.67a6.86,6.86,0,0,0-.74,8A8.6,8.6,0,0,0,144.5,509.66Zm-26.91-28.32a7.64,7.64,0,0,0,2.25-.48c4.73-2.53,8.45-6.42,12.62-9.71a1.39,1.39,0,0,0,.1-2.17c-1.09-1.33-2-.56-2.95.2-3,2.4-6,4.78-8.92,7.21-2.45,2-4.88,2.21-7-.25-2.32-2.65-1.07-4.91,1.23-6.82,2.94-2.45,5.91-4.85,8.9-7.24,1-.78,1.87-1.5.86-2.84s-1.93-.72-2.91.1c-3.45,2.87-7,5.58-10.34,8.62a6.64,6.64,0,0,0-1.38,8.25A8.37,8.37,0,0,0,117.59,481.34ZM77,407.53c3.85-1.37,8.68-3.06,13.51-4.79a1.55,1.55,0,0,0,1-2.34c-.55-1.33-1.51-1-2.46-.71-3.45,1.22-6.89,2.44-10.32,3.69-3.1,1.14-6.07,1.46-7.35-2.41-1.18-3.54,1.18-5.13,4.09-6.18,3.43-1.24,6.87-2.45,10.29-3.72,1.13-.41,2.22-.94,1.52-2.51a1.46,1.46,0,0,0-2-1c-4.8,1.84-9.77,3.35-14.3,5.72-3.3,1.72-3.82,5.26-2.58,8.76S72,407.54,77,407.53ZM95.24,449c4.93-.94,9-4.59,13.66-7,1.06-.54,2.83-1,1.83-2.85-1.18-2.17-2.56-.57-3.73.06-2.77,1.51-5.47,3.14-8.19,4.72s-5.67,2.88-7.78-.61c-2.29-3.79.43-5.73,3.36-7.41s6-3.48,9-5.24c.92-.54,1.59-1.22,1-2.41a1.52,1.52,0,0,0-2.43-.68c-4.27,2.56-8.7,4.88-12.71,7.79-2.67,1.94-2.86,5.18-1.68,8.18C88.84,446.7,91.25,448.59,95.24,449ZM255.75,565.8c-.52-6.11-1-11.91-1.51-17.7-.12-1.32,0-2.85-1.58-3.37s-2.31.89-3.06,2c-3.35,4.75-6.71,9.5-10,14.29-.59.85-2,1.82-.56,2.93,1,.82,2,.37,3.07-.52,4-3.39,8.73-2.19,10.28,2.64.42,1.32,1,2.18,2.31,2.11C256.63,568,255.7,566.5,255.75,565.8Zm58.07-4.35c.08-1.66.26-3.33.22-5,0-1.35.83-3.35-1.49-3.55s-1.93,1.81-2,3.21c-.14,3.32-.22,6.66-.28,10s-1.11,5.84-4.76,5.66c-3.4-.16-5.31-2.2-5.18-5.88s-.22-7.2,1-10.72c.31-.9.55-2.48-1.15-2.8s-2.05.68-2.09,2c-.16,4.49-.6,9-.39,13.47a7.52,7.52,0,0,0,8.16,7.06c4.41-.21,7.19-2.43,7.63-7C313.71,565.79,313.72,563.61,313.82,561.45ZM159.33,521.88c-.5,1.54,0,2.79,1.53,3.1,1.27.26,1.35-1.13,1.64-2q2.76-8.52,5.5-17c.35-1.11.84-2.26-.18-3.25-1.34-1.3-2.48-.18-3.55.47q-7.43,4.54-14.78,9.21c-.88.56-2.54.95-1.8,2.45s2,1.12,3.41.57C155.22,513.75,159.59,517.32,159.33,521.88ZM362.05,567c.19,1.25-1.25,2.91.91,3.37,1,.2,1.76-.38,2.28-1.48,2.58-5.48,6.14-6.27,10.77-2.38a2.22,2.22,0,0,0,2.69.47c1.27-.71.55-1.71,0-2.54q-5-7.77-10-15.53c-.62-.95-1.14-2.16-2.64-1.78s-1.64,1.83-1.82,3.17C363.58,555.92,362.8,561.51,362.05,567ZM71.42,356.26c-1.89.45-5.16,1-8.29,2.05a6.82,6.82,0,0,0-4.71,6.42,7.76,7.76,0,0,0,3.71,7.63c1.22.76,3,1.88,4,.52,1.19-1.62-.55-2.53-2-3.21a4.25,4.25,0,0,1-2.66-4.82c.33-2.05,1.85-3.06,3.68-3.62a33.89,33.89,0,0,1,3.86-.93c2.73-.51,5.7-1.69,7.75,1.26,1.71,2.46.77,4.65-1.24,6.62a1.92,1.92,0,0,0,.07,2.73c.93.84,1.84-.15,2.57-.76,2.8-2.34,3.07-5.43,2.08-8.61C79.21,358,76.61,356.18,71.42,356.26ZM354.65,117.6a7.21,7.21,0,1,0-14.42.15,7.29,7.29,0,0,0,7.31,7.21A7.14,7.14,0,0,0,354.65,117.6ZM126.09,230a7.56,7.56,0,0,0-7.43,7.19,7.39,7.39,0,0,0,7.24,7.34,7.27,7.27,0,1,0,.19-14.53ZM164,172.42a7.29,7.29,0,1,0-.36,14.58,7.44,7.44,0,0,0,7.44-7.13A7.31,7.31,0,0,0,164,172.42Zm-80.81,202c-.45-1.76-1.74-1.51-3.1-1.13l-11.48,3.2c-7.41,2.09-7.52,2.13-5.19,9.65.6,1.95.19,6,2.9,5.26,3.09-.79.52-4-.08-5.84-1.17-3.53-.43-5.09,3.26-5.82,3.88-.78,7.66-2.09,11.47-3.19C82.06,376.27,83.44,376.26,83.21,374.44ZM352.6,552c1,5.88,1.95,11.75,2.9,17.63.19,1.16.78,1.82,2,1.72,1.67-.13,1.63-1.23,1.41-2.5-1-5.71-1.87-11.43-2.85-17.14-.19-1.09-.32-2.49-2-2.28C352.56,549.59,352.31,550.7,352.6,552Zm-.61-4.45c3.79-.82,4-3,4.51-4.78.24-.81-.68-1-1.38-.81C352.49,542.67,353.51,545.14,352,547.52Z"/><path class="cls-1" d="M359,464.52c-4.9-3.58-7.51-9-11-13.73q-44.61-60.46-89-121.1c-1-1.33-2-2.58-3.15-4-1.79,2.11-3.44,4.13-6.1,4.38-2.49.23-2.6,1.74-2.91,3.71-2.09,13.65-5.09,27.13-8.28,40.56a10.37,10.37,0,0,1-7.08,8.11q-25,9.45-49.72,19.53c-4,1.6-4.53.68-4.66-3.3a249.19,249.19,0,0,1,.9-29.43c.61-7-2.76-10.12-9.76-10.9C149.7,356.3,134.8,348,125.38,331.25c-2-3.6.37-13.21,3.91-17.19,7.53-8.48,17.77-11.34,28.22-13.78,10.23-2.38,20.52-2.12,30.78-.43,8.23,1.36,16.54,1.79,24.84,2.44,1.77.14,3.5.54,4.41-2,.76-2.16-.1-3.05-1.31-4.65-3.74-5-6.2-10.6-5.1-17.07.73-4.26,2.85-8.57,2.47-12.68-1-11.29,6-17.79,13.49-23.46a49.85,49.85,0,0,1,32.8-10,21.2,21.2,0,0,1,15.89,8.19c2,2.38,1.1,4.69-.33,6.34-2.48,2.89-2.21,5.58-.93,8.73a11.54,11.54,0,0,1-.22,9.61c-1.74,3.86,2.22,6.55,3.38,11.43,26.61-35.49,52.57-70.09,78.52-104.69,2.67-.23,4,1,3.91,3.67a26.8,26.8,0,0,0-2,2.12c-27.13,36-54.05,72.13-81.54,107.84-4.67,6.06-3.53,13.43-7.19,19.45-.73,1.19,1.29,2.6,2.8,2.86a20.13,20.13,0,0,0,5,.12c9.29-.77,18.27.26,26.7,4.53a6.38,6.38,0,0,0,4.36.31,102.92,102.92,0,0,1,38.21-.22,14.17,14.17,0,0,0,7.29-.69c10.69-3.63,21.76-5.93,32.83-3,7.13,1.89,14.06,2,21.19,1.67a81.08,81.08,0,0,1,10-.22,13,13,0,0,0,11.79-5.08c2.41,6.66,2.23,13.41.71,20.21a46,46,0,0,1-4.92.75A123.69,123.69,0,0,0,387.78,334c-12.77,4.82-25.95,5.46-39.34,4.67-3.81-.22-7.6-.7-11.43.1-9.15,1.91-18.39,3.21-27.75,2.54-4.11-.3-6.74,1-9,4.57a55.48,55.48,0,0,1-8.95,11.3c-3.31,3.1-2.56,5.05-.25,8.19q35.28,48,70.31,96.25C361.6,463.38,360.29,463.93,359,464.52Z"/><path class="cls-3" d="M574.17,316.41c.17,53.34-17.95,100.29-49.7,142.49-11.83,15.72-24.48,30.71-39,44.05a366.39,366.39,0,0,1-66.22,48.83c-.44.25-.89.47-1.33.71-2.41,1.37-4.62,1.06-6.07-1.28s.39-3.77,2-5c5.86-4.37,11.92-8.49,17.68-13,41.64-32.49,73.54-72.5,93.15-121.82a247.41,247.41,0,0,0,16.73-115c-6.1-67.61-35.95-123.75-83.38-171.28a310.82,310.82,0,0,0-41.66-34.89c-.55-.38-1.12-.73-1.65-1.13-1.65-1.25-3.38-2.69-2-4.94s3.77-2.47,6.08-1c6.71,4.33,13.53,8.5,20.11,13,39.21,27,73.35,59,98.89,99.51C561.09,232.57,574.17,272.55,574.17,316.41Z"/><path class="cls-4" d="M482.62,317.31c-.6-54.14-18.8-101.85-52.76-143.75a254.43,254.43,0,0,0-45.75-43.62c-1.56-1.17-3.82-2.38-2.27-4.74s3.69-1.18,5.61.08C428.31,152.1,463,184.91,485.35,229c30.33,59.8,29.54,120-1.32,179.21-22.34,42.9-55.45,76.13-96.55,101.48-.85.52-1.71,1.05-2.6,1.49a2.89,2.89,0,0,1-4-.92c-1.12-1.58-.33-2.92.91-3.91,2.86-2.27,5.87-4.38,8.74-6.64,38.29-30.07,66.05-67.67,81.34-114.12A217.36,217.36,0,0,0,482.62,317.31Z"/><path class="cls-5" d="M359,464.52c1.27-.59,2.58-1.14,2.39-2.93,1.4-.77,3-1,4.23-2.28,6.23-6.16,13.12-11.74,18.75-18.38,16.44-19.4,29.59-40.65,37.38-65.24,4.47-14.08,6.58-28.46,9.06-42.85.39-2.3,1-4.95-.64-7.23,1.52-6.8,1.7-13.55-.71-20.21.41-9.62-2-18.8-3.89-28.14-3.08-15.27-9-29.43-16-43a180,180,0,0,0-39.21-50.62c-3.15-2.87-5.3-7.28-10.22-7.94.07-2.69-1.24-3.9-3.91-3.67a5.64,5.64,0,0,0-3.13-3.54,2.35,2.35,0,0,1-1.29-3.31c.7-1.33,2.11-1.11,3.5-1.08,2.6.06,3.34,2.42,5,3.55a244.53,244.53,0,0,1,34.1,27.18c18.84,18,32.75,39.32,43.81,62.55,4.09,8.59,5.95,18.24,8.7,27.45,1.07,3.6,2.26,7.22,2.16,11.06-1.48.92-2.52,1.95-2,4,1.14,5,3.45,10.07-.39,15a2.54,2.54,0,0,0,0,2.35,8.75,8.75,0,0,1,.71,8.86c-.73,1.7.87,2.17,2.22,2.47-.43,8.74-.06,17.63-2.83,26-3.22,9.74-5.61,19.74-10,29.15a192.89,192.89,0,0,1-14.29,25.52,214.29,214.29,0,0,1-25.68,32.1A259.61,259.61,0,0,1,365,468.77a53.72,53.72,0,0,1-8.91,5c-1.41.67-3.39.95-4.34-1s.81-2.81,1.87-3.6C355.53,467.79,358.08,467.11,359,464.52Z"/><path class="cls-1" d="M245.38,392.12c8,.17,15.9,1.56,23.82,2.64,3.85.53,3.95,2,2.84,5.2q-11.6,33.23-22.91,66.56c-2.32,6.82-2.12,6.8-8.4,3.45-23.37-12.45-42.27-29.92-57.81-51.23-2.17-3-2.37-4.14,1.45-5.91,16.19-7.5,33.09-13.17,49.66-19.7C237.77,391.66,241.58,392.24,245.38,392.12Z"/><path class="cls-1" d="M247.6,62c8.79.11,15.43,4,19.44,11.77,3.81,7.42,3.51,14.86-1.72,21.59-1.72,2.22-1.52,3.42.38,5.29,5.92,5.86,11.59,12,17.46,17.87,1.82,1.83,2,2.83-.78,3.61-4.32,1.21-8.64,2.48-12.89,3.93-2.42.84-3.69-.4-5.09-2-4.66-5.22-9.46-10.31-14-15.6-1.77-2-3.47-2.89-6-1.58-2.92,1.5-.9,3.51-.47,5.14,1.47,5.46,3,10.92,4.89,16.24,1.07,3,.17,4-2.67,4.87-12.41,3.89-12.35,4-16.08-8.45-4.94-16.41-9.82-32.84-15-49.18-1.14-3.62-.4-5,3.18-5.92,6.75-1.78,13.39-4,20.08-6A31.13,31.13,0,0,1,247.6,62ZM245,77.59c-2.77,2-9.23,0-9.65,5-.27,3.29-.11,9.67,4.81,10.59,6.13,1.15,12.57-4.19,12.51-8.73C252.58,80.5,249.47,77.47,245,77.59Z"/><path class="cls-1" d="M334.86,87.92c0,6,.6,13.22-2.49,20-.91,2-.1,3.25,1.34,4.25,2.92,2,2.31,3.85,0,5.81a16.34,16.34,0,0,0-2.77,2.87c-1.75,2.42-3.45,2.93-5.41.28-1.67-2.25-3.47-2-6-1.08-16.55,6.15-35.28-2.14-36.53-22.32a168.65,168.65,0,0,1-.36-21.44c.95-14.65,11.2-24,25.92-24.09s24.73,9.3,25.85,24.14C334.58,79.79,334.65,83.29,334.86,87.92Zm-25.93,18.91c.09-2.65-4-3.37-1.49-5.63s3.93-6.92,8-6.11c2.66.53,2.51-.38,2.46-1.89-.21-6-.23-12-.91-17.92-.63-5.45-3.75-8-8.5-8-5,0-8.21,2.64-8.76,8.31A85.39,85.39,0,0,0,300.5,100C301.34,104.39,304.29,106.59,308.93,106.83Z"/><path class="cls-1" d="M156.24,193.71c-1,9.94-5.57,18.57-15.38,23.75-9,4.76-17.65,3.2-25.84-2.43q-16-11-32.2-21.86c-2.41-1.62-3.45-2.69-1.4-5.73,7.29-10.81,7.13-10.89,17.83-3.6,8.8,6,17.53,12.09,26.48,17.86,6.5,4.2,13.36,1.35,14.56-5.75.79-4.62-1.82-7.55-5.3-9.92-10.3-7-20.45-14.3-31-20.93-4.5-2.82-4.3-4.79-1.44-8.66,6.36-8.62,6.17-8.78,15.14-2.69s18.15,12.36,27.2,18.56C152.09,177.24,156.05,184,156.24,193.71Z"/><path class="cls-1" d="M179.57,171.25c-2-.62-1.75-2.38-2.06-3.67q-6.6-26.87-13.09-53.75c-.43-1.78-.55-3.69-1.31-5.31-2.56-5.52-1-8.84,4.31-12,3.84-2.26,6-2.15,9.49.45,16.61,12.52,33.4,24.79,50.23,37,3.08,2.24,4,3.74,0,5.69a15.87,15.87,0,0,0-4.13,2.76c-4.34,4.22-8.42,4.5-12.47-.34-1.55-1.85-3.14-1.81-5.14-.35a126.83,126.83,0,0,1-11.22,7.45c-2.93,1.69-4.14,3.69-2.55,6.81,2.38,4.68.82,7.6-3.71,9.81C184.93,167.29,182.31,169.43,179.57,171.25Zm16.48-40.84-13.43-10.8c-.47,3.35.69,5.64,1.32,8C186.93,138.77,187,138.76,196.05,130.41Z"/><path class="cls-1" d="M55.42,257.09c.06-15,10.33-26.12,24.57-26.95,4.27-.25,4.94,1.07,3.54,4.71a38,38,0,0,0-1.67,6.26c-.67,3.38-1.55,6-5.83,6.71-3.65.62-5,4.2-5.32,7.68a7,7,0,0,0,4.1,7.39,77.75,77.75,0,0,0,26.36,7,7.07,7.07,0,0,0,7.56-4.62c1.44-3.46,1.75-7.1-1.32-9.66-2.54-2.1-2.67-4.14-1.75-6.88.78-2.36,1.29-4.81,2-7.22,1.35-5,2-5.33,6-2.22,10.62,8.21,14.32,17.26,9,31.91-4.18,11.44-14.52,17.07-27.14,15.24a112.5,112.5,0,0,1-24.08-6.36C61.1,276.16,55.37,267.6,55.42,257.09Z"/><path class="cls-1" d="M449.6,328.57c-1.35-.3-3-.77-2.22-2.47a8.75,8.75,0,0,0-.71-8.86,2.54,2.54,0,0,1,0-2.35c3.84-4.94,1.53-10,.39-15-.47-2,.57-3.07,2-4a40.42,40.42,0,0,1,5.31,1c4.51,1.48,7.07,7.84,5.71,12.39C458,316.49,454.92,323.12,449.6,328.57Z"/><path class="cls-1" d="M79.68,324.33a9,9,0,0,1-9.19,9.08,9.11,9.11,0,0,1,.05-18.21A9,9,0,0,1,79.68,324.33Z"/><path class="cls-1" d="M97.65,416c0,1.72-.23,3.85-1.8,4.36-4.44,1.43-8.36,3.77-12.45,5.9-2.51,1.31-5-.83-6.35-3.45-.37-.74-.71-1.49-1.06-2.24-3-6.37-3-6.38,3.59-9.34,3-1.35,6.25-2.39,9-4.14,4-2.52,5.85-1.27,7,2.82C96.24,412,97.6,413.79,97.65,416Zm-15.5-2.6c-1.26,1.73-4.58,1.13-4.08,3.79s1.31,5.81,5,5.72a2.78,2.78,0,0,0,2.74-3.42C85.37,417.29,85,414.74,82.15,413.43Zm9.38,5.36c1.89-.43,3.33-1.52,2.77-3.43s-.41-5.15-3.45-5.17c-1.43,0-4.27.59-3.9,2.82C87.36,415.44,88.2,418.32,91.53,418.79Z"/><path class="cls-1" d="M112.55,460.77c-4.74-1.88-4.45,2.41-6.1,4.23-.94,1-.78,3.94-3,2.81s-.9-3.15,0-4.77,1.81-3.17,2.67-4.78a3,3,0,0,0-.68-3.62c-1.35-1.51-2.26.07-3.43.35-2.12.5-3.81,5.16-5.88,1.91-1.74-2.71,2.57-3.36,4.26-4.72,3.22-2.59,6.86-4.65,10.12-7.21,2.11-1.66,3.36-1.4,4.63.83,1.07,1.86,2.44,3.56,3.48,5.44a6.11,6.11,0,0,1-.42,7A6.32,6.32,0,0,1,112.55,460.77Zm3.85-6.8c-.81-2.13-1.52-5.07-4-5.42-1.7-.24-4.73,1.5-4.45,3.64a5.72,5.72,0,0,0,4.71,5.12C114.8,457.58,115.93,456.23,116.4,454Z"/><path class="cls-1" d="M130.68,496c-3.41-.2-6.12-1.65-7.66-4.76-1.37-2.73-1.39-5.61.71-7.94a50.11,50.11,0,0,1,7.23-6.82c3-2.24,6.35-1.85,9.16.63,2.52,2.24,3.78,5,2.62,8.5-.32,1-.71,2.18-1.86,2a2,2,0,0,1-1.35-2.34c.77-3,.17-5.45-2.84-6.54s-4.88,1.45-6.83,3.14a18.51,18.51,0,0,0-3.68,4,4.33,4.33,0,0,0,3.32,6.66,4.07,4.07,0,0,0,3.64-1.19c1.11-1.19.26-2.1-.55-3s-1.22-1.71-.12-2.52,1.88.06,2.46.84c1.14,1.5,3.47,2.33,3.1,4.68C137.77,493,132.79,496,130.68,496Z"/><path class="cls-1" d="M144.5,509.66a8.6,8.6,0,0,1-7.56-4.77,6.86,6.86,0,0,1,.74-8c2.72-3.35,5.74-6.46,8.64-9.67.8-.88,1.61-1.82,2.89-.67s.48,2-.34,2.94c-2.58,2.83-5.16,5.65-7.71,8.5-2,2.24-2.81,4.68-.25,7s4.88,1.53,7-.76c2.69-2.94,5.35-5.92,8-8.88.72-.79,1.49-1.3,2.54-.4.75.65,1,1.46.39,2.15-3.73,4-6.82,8.64-11.4,11.78A8.25,8.25,0,0,1,144.5,509.66Z"/><path class="cls-1" d="M117.59,481.34a8.37,8.37,0,0,1-7.57-5.13A6.64,6.64,0,0,1,111.4,468c3.3-3,6.89-5.75,10.34-8.62,1-.82,1.9-1.46,2.91-.1s.12,2.06-.86,2.84c-3,2.39-6,4.79-8.9,7.24-2.3,1.91-3.55,4.17-1.23,6.82,2.15,2.46,4.58,2.26,7,.25,3-2.43,5.94-4.81,8.92-7.21.94-.76,1.86-1.53,2.95-.2a1.39,1.39,0,0,1-.1,2.17c-4.17,3.29-7.89,7.18-12.62,9.71A7.64,7.64,0,0,1,117.59,481.34Z"/><path class="cls-1" d="M77,407.53c-4.94,0-7.35-2-8.57-5.46s-.72-7,2.58-8.76c4.53-2.37,9.5-3.88,14.3-5.72a1.46,1.46,0,0,1,2,1c.7,1.57-.39,2.1-1.52,2.51-3.42,1.27-6.86,2.48-10.29,3.72-2.91,1-5.27,2.64-4.09,6.18,1.28,3.87,4.25,3.55,7.35,2.41,3.43-1.25,6.87-2.47,10.32-3.69,1-.33,1.91-.62,2.46.71a1.55,1.55,0,0,1-1,2.34C85.66,404.47,80.83,406.16,77,407.53Z"/><path class="cls-1" d="M186.27,518.13c.93,1.32,2.13.26,3.19.35,6.28.49,9.72,6.07,7,11.73a41.72,41.72,0,0,1-4,6.86c-2.7,3.69-6.79,4.43-10.54,2s-4.63-5.77-3.07-10c1.36-3.64,4.68-6.17,5.47-10.09l-.08,0c1.32.92,2.05.65,2.07-1Zm-.72,19.07c2.88.14,8.38-6.72,8.56-10.59a5,5,0,0,0-.74-2.78,4.05,4.05,0,0,0-5.15-1.71c-2.59.93-7.26,9-6.67,11.5A4.57,4.57,0,0,0,185.55,537.2Z"/><path class="cls-1" d="M95.24,449c-4-.39-6.4-2.28-7.64-5.45-1.18-3-1-6.24,1.68-8.18,4-2.91,8.44-5.23,12.71-7.79a1.52,1.52,0,0,1,2.43.68c.59,1.19-.08,1.87-1,2.41-3,1.76-6,3.52-9,5.24s-5.65,3.62-3.36,7.41c2.11,3.49,5,2.2,7.78.61s5.42-3.21,8.19-4.72c1.17-.63,2.55-2.23,3.73-.06,1,1.84-.77,2.31-1.83,2.85C104.23,444.39,100.17,448,95.24,449Z"/><path class="cls-1" d="M159.33,521.88c.26-4.56-4.11-8.13-8.23-6.53-1.44.55-2.7.86-3.41-.57s.92-1.89,1.8-2.45q7.35-4.68,14.78-9.21c1.07-.65,2.21-1.77,3.55-.47,1,1,.53,2.14.18,3.25q-2.75,8.52-5.5,17c-.29.91-.37,2.3-1.64,2C159.35,524.67,158.83,523.42,159.33,521.88Zm4.44-14.27c-3,1.5-6,2.12-6.8,5.06-.15.54,3.1,3,3.67,2.63C163.23,513.79,163.16,510.81,163.77,507.61Z"/><path class="cls-1" d="M71.42,356.26c5.19-.08,7.79,1.71,8.9,5.28,1,3.18.72,6.27-2.08,8.61-.73.61-1.64,1.6-2.57.76a1.92,1.92,0,0,1-.07-2.73c2-2,3-4.16,1.24-6.62-2-2.95-5-1.77-7.75-1.26a33.89,33.89,0,0,0-3.86.93c-1.83.56-3.35,1.57-3.68,3.62a4.25,4.25,0,0,0,2.66,4.82c1.4.68,3.14,1.59,2,3.21-1,1.36-2.81.24-4-.52a7.76,7.76,0,0,1-3.71-7.63,6.82,6.82,0,0,1,4.71-6.42C66.26,357.28,69.53,356.71,71.42,356.26Z"/><path class="cls-1" d="M354.65,117.6a7.14,7.14,0,0,1-7.11,7.36,7.28,7.28,0,0,1-.15-14.55A7.16,7.16,0,0,1,354.65,117.6Z"/><path class="cls-1" d="M126.09,230a7.27,7.27,0,1,1-7.43,7.19A7.56,7.56,0,0,1,126.09,230Z"/><path class="cls-1" d="M164,172.42a7.31,7.31,0,0,1,7.08,7.45,7.29,7.29,0,1,1-14.58-.33A7.55,7.55,0,0,1,164,172.42Z"/><path class="cls-1" d="M184.33,519.06c-5.29-.31-8.66,2.92-12,6.34-1.53,1.54-2,6-4.82,4s1.12-4.11,2.22-5.93c2.28-3.79,1.66-8,2.7-12,.35-1.36-.84-4.05,1.68-3.79s1.54,2.8,1.4,4.49c-.16,1.93-.47,3.84-.73,5.86,2.51.33,4-1.14,5.54-2.22,3.29-2.32,5.39-2.12,6,2.29l0-.07c-.42-.9-1-1-1.85-.51s-.52,1-.22,1.54Z"/><path class="cls-1" d="M83.21,374.44c.23,1.82-1.15,1.83-2.22,2.13-3.81,1.1-7.59,2.41-11.47,3.19-3.69.73-4.43,2.29-3.26,5.82.6,1.81,3.17,5.05.08,5.84-2.71.7-2.3-3.31-2.9-5.26-2.33-7.52-2.22-7.56,5.19-9.65l11.48-3.2C81.47,372.93,82.76,372.68,83.21,374.44Z"/><path class="cls-2" d="M360.11,175.7c4.92.66,7.07,5.07,10.22,7.94a180,180,0,0,1,39.21,50.62c7,13.57,13,27.73,16,43,1.89,9.34,4.3,18.52,3.89,28.14a13,13,0,0,1-11.79,5.08,81.08,81.08,0,0,0-10,.22c-7.13.32-14.06.22-21.19-1.67-11.07-2.94-22.14-.64-32.83,3a14.17,14.17,0,0,1-7.29.69,102.92,102.92,0,0,0-38.21.22,6.38,6.38,0,0,1-4.36-.31c-8.43-4.27-17.41-5.3-26.7-4.53a20.13,20.13,0,0,1-5-.12c-1.51-.26-3.53-1.67-2.8-2.86,3.66-6,2.52-13.39,7.19-19.45C304.05,250,331,213.81,358.1,177.82A26.8,26.8,0,0,1,360.11,175.7Z"/><path class="cls-2" d="M430.19,325.61c1.62,2.28,1,4.93.64,7.23-2.48,14.39-4.59,28.77-9.06,42.85-7.79,24.59-20.94,45.84-37.38,65.24-5.63,6.64-12.52,12.22-18.75,18.38-1.24,1.23-2.83,1.51-4.23,2.28q-35.13-48.15-70.31-96.25c-2.31-3.14-3.06-5.09.25-8.19a55.48,55.48,0,0,0,8.95-11.3c2.22-3.6,4.85-4.87,9-4.57,9.36.67,18.6-.63,27.75-2.54,3.83-.8,7.62-.32,11.43-.1,13.39.79,26.57.15,39.34-4.67a123.69,123.69,0,0,1,37.49-7.61A46,46,0,0,0,430.19,325.61Z"/><path class="cls-2" d="M245,77.59c4.51-.12,7.62,2.91,7.67,6.84.06,4.54-6.38,9.88-12.51,8.73-4.92-.92-5.08-7.3-4.81-10.59C235.73,77.54,242.19,79.56,245,77.59Z"/><path class="cls-2" d="M308.93,106.83c-4.64-.24-7.59-2.44-8.43-6.88a85.39,85.39,0,0,1-.77-24.36c.55-5.67,3.72-8.31,8.76-8.31,4.75,0,7.87,2.55,8.5,8,.68,5.93.7,11.94.91,17.92.05,1.51.2,2.42-2.46,1.89-4.07-.81-5.48,3.83-8,6.11S309,104.18,308.93,106.83Z"/><path class="cls-2" d="M196.05,130.41c-9.08,8.35-9.12,8.36-12.11-2.81-.63-2.35-1.79-4.64-1.32-8Z"/><path class="cls-2" d="M82.15,413.43c2.82,1.31,3.22,3.86,3.68,6.09a2.78,2.78,0,0,1-2.74,3.42c-3.71.09-4.54-3.14-5-5.72S80.89,415.16,82.15,413.43Z"/><path class="cls-2" d="M91.53,418.79c-3.33-.47-4.17-3.35-4.58-5.78-.37-2.23,2.47-2.82,3.9-2.82,3,0,2.87,3.16,3.45,5.17S93.42,418.36,91.53,418.79Z"/><path class="cls-2" d="M116.4,454c-.47,2.26-1.6,3.61-3.78,3.34a5.72,5.72,0,0,1-4.71-5.12c-.28-2.14,2.75-3.88,4.45-3.64C114.88,448.9,115.59,451.84,116.4,454Z"/><path class="cls-2" d="M185.55,537.2a4.57,4.57,0,0,1-4-3.58c-.59-2.53,4.08-10.57,6.67-11.5a4.05,4.05,0,0,1,5.15,1.71,5,5,0,0,1,.74,2.78C193.93,530.48,188.43,537.34,185.55,537.2Z"/><path class="cls-2" d="M184.25,519.09c-.3-.56-.51-1.1.22-1.54s1.43-.39,1.85.51C186.3,519.74,185.57,520,184.25,519.09Z"/><path class="cls-2" d="M163.77,507.61c-.61,3.2-.54,6.18-3.13,7.69-.57.34-3.82-2.09-3.67-2.63C157.8,509.73,160.78,509.11,163.77,507.61Z"/><path class="cls-2" d="M367.18,553.48c2.15,1,2.56,2.94,3.56,4.38.58.82,2,2,.7,2.93a6.59,6.59,0,0,1-4.22,1c-1.6-.18-.89-1.82-.81-2.84C366.56,557.16,366.9,555.41,367.18,553.48Z"/></g></g></svg>