<svg xmlns="http://www.w3.org/2000/svg" viewBox="0 0 85.43 85.43"><defs><style>.cls-1{fill:#221f20;}.cls-2{fill:#eeeded;}.cls-3{fill:#0980aa;}.cls-4{fill:#b83232;}.cls-5{fill:#ede21a;}</style></defs><g id="Layer_2" data-name="Layer 2"><g id="Layer_1-2" data-name="Layer 1"><path class="cls-1" d="M46.16,77.37c0,.2,0,.33,0,.47s0,.22-.18.23-.25-.06-.27-.22l-.27-2.43a.33.33,0,0,1,.09-.31,2.63,2.63,0,0,1,1.77,0,.88.88,0,0,1,0,1.32c-.32.36.17.53.24.81s.43.35.18.55-.44-.07-.58-.29-.17-.27-.26-.4-.28-.49-.63-.37S46.25,77.22,46.16,77.37ZM46,75.83c.07.2-.09.58.38.52s.73,0,.77-.47-.22-.52-.56-.49S45.93,75.31,46,75.83Z"/><path class="cls-1" d="M37.67,75.51c0,.19,0,.46-.18.55-.67.32-.44.8-.29,1.28,0,.14.24.36-.07.43s-.33-.09-.38-.3-.16-.52-.22-.78a.43.43,0,0,0-.48-.38c-.27,0-.18.26-.26.39s.08.82-.37.72-.1-.57-.07-.86c.07-.58.23-1.15.32-1.73,0-.3.16-.4.44-.33s.67.13,1,.23A.81.81,0,0,1,37.67,75.51ZM36.6,76c.31,0,.59-.06.59-.42s-.41-.52-.76-.57-.39.37-.43.59C35.93,76.08,36.41,75.86,36.6,76Z"/><path class="cls-1" d="M37.85,76.71c0-.31.07-.63.15-.93a1,1,0,0,1,1.16-.8,1,1,0,0,1,1,1c.06.68-.34,1.3-.21,2,0,0-.1.14-.11.13-.47-.3-1.07.07-1.53-.32A1.19,1.19,0,0,1,37.85,76.71Zm1.78-.43c0-.48-.05-.85-.56-.88s-.61.29-.66.68a6.56,6.56,0,0,0-.09.88.56.56,0,0,0,.43.61c.45.12.25-.2.25-.38s.06-.1.09-.09C39.91,77.2,39.46,76.51,39.63,76.28Z"/><path class="cls-1" d="M43.22,76.59c-.11-1.49,0-1.62,1.57-1.47.14,0,.28,0,.3.18s-.14.24-.31.25-.45,0-.68,0-.44.16-.43.5.17.38.47.4.75-.27.76.18-.48.18-.74.2-.46.13-.45.49.2.42.51.43.93-.23.93.15-.61.23-.94.25c-1.05.07-.89.18-1-.83C43.24,77.09,43.23,76.84,43.22,76.59Z"/><path class="cls-1" d="M28.24,75.1a6.43,6.43,0,0,1-.95-.41c-.22-.09-.22-.25-.13-.44.34-.72.66-1.44,1-2.15.07-.15.17-.3.36-.19.51.29,1.21.35,1.36,1.09a2.75,2.75,0,0,1-.93,2A1,1,0,0,1,28.24,75.1Zm1.17-1.79c.06-.5-.27-.66-.61-.8s-.4.24-.52.43a6.35,6.35,0,0,0-.42.92c-.07.19-.39.42,0,.62s.67.36,1,0A3.23,3.23,0,0,0,29.41,73.31Z"/><path class="cls-1" d="M31.44,76c-.06.25-.15.32-.35.24l-1.27-.48c-.26-.09-.25-.25-.16-.48.28-.69.52-1.39.78-2.09.07-.19.13-.39.42-.28s.85.31,1.27.48c.13,0,.24.14.18.31s-.21.12-.34.07-.43-.14-.63-.23-.49-.13-.62.23,0,.5.31.59a1.09,1.09,0,0,1,.25.1c.14.1.49,0,.37.35s-.34,0-.51,0-.48-.32-.74-.1-.22.68.18.86A2.52,2.52,0,0,1,31.44,76Z"/><path class="cls-1" d="M34.79,77c0,.1.12.3-.14.32s-.26-.11-.32-.29a.81.81,0,0,0-1.4-.36c-.14.12-.28.18-.41.07s0-.28.07-.4C33,75.66,33.5,75,34,74.37c.1-.14.19-.34.41-.27s.2.28.22.46C34.65,75.35,34.72,76.14,34.79,77Zm-.66-2c-.19.34-.68.52-.54,1,0,.1.45.21.53.14C34.47,75.75,34.13,75.35,34.13,75Z"/><path class="cls-1" d="M42.69,76.38c0,.29,0,.59,0,.88a1,1,0,0,1-1,.95,1,1,0,0,1-1.11-1c0-.61,0-1.22,0-1.83,0-.18.08-.32.29-.28s.2.26.15.38A5.13,5.13,0,0,0,40.86,77a.68.68,0,0,0,.7.8c.5,0,.64-.33.65-.77s0-.9,0-1.36c0-.19,0-.46.27-.43s.2.3.2.48S42.7,76.15,42.69,76.38Z"/><path class="cls-1" d="M49.25,77.14c.1-.75.21-1.51.31-2.28,0-.18,0-.37.25-.43s.27.11.36.24l1.35,2.12c.07.11.17.25,0,.34a.31.31,0,0,1-.37-.06c-.63-.53-1.11-.42-1.46.32-.07.15-.18.23-.31.2C49.08,77.53,49.28,77.31,49.25,77.14Zm.7-1.85c0,.27-.08.51-.1.75s-.11.36.11.38a.82.82,0,0,0,.57-.13c.17-.12,0-.29-.09-.4S50.24,75.43,50,75.29Z"/><path class="cls-1" d="M48,75.09c0-.17,0-.32.2-.35s.24.16.26.31c.14.78.26,1.55.39,2.33,0,.17,0,.32-.19.34s-.24-.07-.27-.23Z"/><path class="cls-1" d="M47.88,74.48c.21-.32.07-.66.43-.76.1,0,.22,0,.19.11S48.4,74.37,47.88,74.48Z"/><path class="cls-2" d="M46,75.83c-.06-.52.33-.41.59-.44s.6.11.56.49-.43.43-.77.47S46.06,76,46,75.83Z"/><path class="cls-2" d="M36.6,76c-.19-.13-.67.09-.6-.4,0-.22-.07-.67.43-.59s.76.06.76.57S36.91,76,36.6,76Z"/><path class="cls-2" d="M39.63,76.28c-.17.23.28.92-.54.82,0,0-.08.05-.09.09s.2.5-.25.38a.56.56,0,0,1-.43-.61,6.56,6.56,0,0,1,.09-.88c.05-.39.2-.71.66-.68S39.66,75.8,39.63,76.28Z"/><path class="cls-2" d="M29.41,73.31a3.23,3.23,0,0,1-.57,1.18c-.31.35-.65.16-1,0s-.07-.43,0-.62a6.35,6.35,0,0,1,.42-.92c.12-.19.08-.61.52-.43S29.47,72.81,29.41,73.31Z"/><path class="cls-2" d="M34.13,75c0,.38.34.78,0,1.11-.08.07-.5,0-.53-.14C33.45,75.49,33.94,75.31,34.13,75Z"/><path class="cls-1" d="M42.68,85.43A42.72,42.72,0,1,1,85.43,42.8,42.69,42.69,0,0,1,42.68,85.43Zm0-84A41.31,41.31,0,1,0,84,42.89,41.31,41.31,0,0,0,42.68,1.4Z"/><path class="cls-2" d="M42.68,1.4A41.31,41.31,0,1,1,1.41,42.54,41.29,41.29,0,0,1,42.68,1.4ZM25.34,70.49c-.08-.6-.37-.63-.81-.32a1,1,0,0,1-.76.31c0-.28.08-.54.1-.8s.17-.58-.19-.61-.18.33-.23.51a5.15,5.15,0,0,1-.37,1.63c-.15.25-.67.55-.3.81s.45-.34.66-.55a2.13,2.13,0,0,1,1.64-.86c-.11.53-.56.88-.75,1.37a1,1,0,0,0,.42,1.36,1,1,0,0,0,1.43-.28,5.17,5.17,0,0,0,.55-.93,1.09,1.09,0,0,0-1-1.6C25.63,70.52,25.47,70.66,25.34,70.49ZM61.16,44.7a6.05,6.05,0,0,0,1.43-2.63,1.43,1.43,0,0,0-.77-1.68,5.88,5.88,0,0,0-.73-.14,4.54,4.54,0,0,0-.29-1.5A26.23,26.23,0,0,0,59.62,35a28.63,28.63,0,0,0-6-8.51A34.16,34.16,0,0,0,49,22.81c-.23-.16-.33-.48-.69-.49-.19,0-.38,0-.47.15a.32.32,0,0,0,.17.45.81.81,0,0,1,.43.48c-3.53,4.71-7.06,9.42-10.69,14.24-.15-.66-.69-1-.46-1.55a1.54,1.54,0,0,0,0-1.31,1,1,0,0,1,.13-1.18.63.63,0,0,0,.05-.87,2.9,2.9,0,0,0-2.17-1.11A6.79,6.79,0,0,0,30.89,33c-1,.77-2,1.66-1.83,3.19a7.25,7.25,0,0,1-.34,1.73,3,3,0,0,0,.7,2.32c.16.22.28.34.17.63s-.35.29-.6.27c-1.12-.09-2.26-.14-3.38-.33a10.7,10.7,0,0,0-4.18.06,6.84,6.84,0,0,0-3.84,1.87,2.76,2.76,0,0,0-.53,2.34,7.17,7.17,0,0,0,5.83,3.69c1,.11,1.41.53,1.33,1.49a33.35,33.35,0,0,0-.12,4c0,.54.09.67.63.45,2.25-.91,4.5-1.8,6.77-2.66a1.42,1.42,0,0,0,1-1.1c.43-1.83.84-3.66,1.13-5.52,0-.27,0-.47.39-.5a1.33,1.33,0,0,0,.83-.6c.15.19.3.36.43.54q6,8.24,12.11,16.47a7.49,7.49,0,0,0,1.49,1.87c-.13.36-.47.45-.74.64s-.38.25-.25.49a.4.4,0,0,0,.59.13,6.83,6.83,0,0,0,1.21-.68A34.91,34.91,0,0,0,54,60a29.33,29.33,0,0,0,3.5-4.36,26.87,26.87,0,0,0,1.94-3.48,37.76,37.76,0,0,0,1.36-4A13.53,13.53,0,0,0,61.16,44.7Zm17-1.66a30.29,30.29,0,0,0-4.94-16.41A46.77,46.77,0,0,0,59.72,13.09c-.9-.62-1.83-1.18-2.74-1.77a.53.53,0,0,0-.83.13c-.19.31,0,.5.27.67l.22.16A42.15,42.15,0,0,1,62.31,17c6.45,6.47,10.51,14.11,11.34,23.3A33.6,33.6,0,0,1,71.38,56,39.21,39.21,0,0,1,58.71,72.54c-.79.61-1.61,1.18-2.41,1.77-.22.16-.46.37-.27.68a.56.56,0,0,0,.83.17,1.51,1.51,0,0,0,.17-.1,49.29,49.29,0,0,0,9-6.64,43.17,43.17,0,0,0,5.31-6A31.43,31.43,0,0,0,78.11,43Zm-12.46.13a29.62,29.62,0,0,1-1.45,9.29A32.24,32.24,0,0,1,53.13,68c-.39.31-.8.59-1.19.9a.37.37,0,0,0-.12.54.4.4,0,0,0,.54.12l.35-.2A35.31,35.31,0,0,0,65.85,55.53,25.4,25.4,0,0,0,66,31.15C63,25.16,58.27,20.69,52.71,17c-.26-.17-.54-.34-.76,0s.09.49.3.65a34.66,34.66,0,0,1,6.23,5.93A30.81,30.81,0,0,1,65.65,43.17ZM33.38,53.34a4.46,4.46,0,0,0-1.54.14c-2.26.89-4.56,1.66-6.76,2.68-.52.24-.49.4-.2.8a23.2,23.2,0,0,0,7.87,7c.85.46.83.46,1.14-.47q1.55-4.53,3.12-9.05c.15-.43.13-.64-.39-.71A32.1,32.1,0,0,0,33.38,53.34Zm.3-44.9a4.17,4.17,0,0,0-1.26.22c-.91.27-1.82.57-2.74.82-.48.12-.58.31-.43.8.7,2.22,1.37,4.46,2,6.69.51,1.69.5,1.68,2.19,1.15.38-.12.51-.25.36-.66-.26-.73-.46-1.47-.66-2.21-.06-.22-.34-.5.06-.7s.58-.06.82.22c.62.71,1.27,1.41,1.91,2.12.19.21.36.38.69.27.58-.2,1.17-.37,1.75-.54.38-.11.36-.24.11-.49-.8-.81-1.57-1.64-2.37-2.43-.26-.26-.29-.42-.06-.72A2.58,2.58,0,0,0,36.33,10,2.82,2.82,0,0,0,33.68,8.44ZM45.55,12c0-.63,0-1.11-.07-1.58a3.53,3.53,0,0,0-7,0,21.87,21.87,0,0,0,.05,2.92c.17,2.75,2.72,3.87,5,3,.35-.13.59-.16.82.14s.5.3.73,0a2,2,0,0,1,.38-.39c.32-.27.4-.52,0-.8a.4.4,0,0,1-.18-.57A6.25,6.25,0,0,0,45.55,12ZM21.25,26.35a3.35,3.35,0,0,0-1.54-2.91L16,20.92c-1.22-.83-1.2-.81-2.06.36-.39.53-.42.8.19,1.18,1.44.9,2.82,1.89,4.22,2.85a1.32,1.32,0,0,1,.73,1.35,1.22,1.22,0,0,1-2,.78c-1.21-.79-2.4-1.62-3.6-2.43-1.45-1-1.43-1-2.42.49-.28.41-.14.56.19.78q2.19,1.47,4.38,3a3.17,3.17,0,0,0,3.51.33A3.86,3.86,0,0,0,21.25,26.35Zm3.18-3.05a10.45,10.45,0,0,1,1.13-.74c.62-.3.83-.7.5-1.33-.21-.43,0-.7.35-.93a16.83,16.83,0,0,0,1.53-1c.27-.2.49-.21.7.05a1,1,0,0,0,1.69,0,2.1,2.1,0,0,1,.56-.37c.55-.27.43-.47,0-.78-2.29-1.66-4.57-3.33-6.83-5a1,1,0,0,0-1.29-.06c-.72.42-.94.87-.59,1.62a4.1,4.1,0,0,1,.18.73q.89,3.65,1.78,7.31C24.19,23,24.15,23.21,24.43,23.3ZM7.54,35a3.23,3.23,0,0,0,2.17,3.14A15.54,15.54,0,0,0,13,39a3.2,3.2,0,0,0,3.69-2.07,3.33,3.33,0,0,0-1.22-4.34c-.55-.43-.64-.38-.82.3-.09.33-.16.66-.27,1a.76.76,0,0,0,.24.94,1,1,0,0,1,.18,1.31,1,1,0,0,1-1,.63,10.4,10.4,0,0,1-3.58-1,1,1,0,0,1-.56-1c0-.48.23-1,.72-1s.7-.45.8-.91a4.82,4.82,0,0,1,.22-.85c.19-.5.1-.68-.48-.64A3.51,3.51,0,0,0,7.54,35Zm3.3,9.15A1.21,1.21,0,0,0,9.6,42.88a1.24,1.24,0,0,0,0,2.48A1.22,1.22,0,0,0,10.84,44.12ZM13.28,56.6a3,3,0,0,0-.27-.83c-.16-.56-.41-.73-1-.39a9.72,9.72,0,0,1-1.22.57c-.9.4-.9.4-.49,1.27,0,.1.09.2.14.3.19.36.52.65.87.47a10.06,10.06,0,0,1,1.69-.8C13.25,57.12,13.29,56.83,13.28,56.6ZM46.16,77.37c.09-.15-.23-.45.14-.59s.48.14.63.37.18.26.26.4.32.49.58.29-.13-.36-.18-.55-.56-.45-.24-.81a.88.88,0,0,0,0-1.32,2.63,2.63,0,0,0-1.77,0,.33.33,0,0,0-.09.31l.27,2.43c0,.16.1.25.27.22s.18-.11.18-.23S46.17,77.57,46.16,77.37Zm-8.49-1.86a.81.81,0,0,0-.57-.78c-.32-.1-.66-.15-1-.23s-.4,0-.44.33c-.09.58-.25,1.15-.32,1.73,0,.29-.38.76.07.86s.22-.48.37-.72,0-.39.26-.39a.43.43,0,0,1,.48.38c.06.26.16.52.22.78s.19.34.38.3.11-.29.07-.43c-.15-.48-.38-1,.29-1.28C37.66,76,37.65,75.7,37.67,75.51ZM15.31,62.68a.85.85,0,0,0,.78-.34.81.81,0,0,0,.06-1c-.14-.26-.33-.49-.47-.74s-.35-.34-.63-.12c-.45.35-.94.63-1.38,1-.23.19-.82.28-.58.65s.51-.2.8-.26.28-.26.47,0a.4.4,0,0,1,.09.49l-.36.65c-.13.22-.29.5,0,.65s.27-.24.4-.38S14.67,62.43,15.31,62.68Zm2.47,4.8c.28,0,1-.42,1-.63s-.27-.44-.42-.64-.19-.23-.34-.12-.08.24,0,.35.22.24.07.4a.54.54,0,0,1-.49.17.59.59,0,0,1-.45-.91,2.17,2.17,0,0,1,.5-.55c.26-.23.51-.58.93-.43A.66.66,0,0,1,19,66a.27.27,0,0,0,.18.32c.16,0,.21-.13.26-.26a1,1,0,0,0-.36-1.16.92.92,0,0,0-1.24-.09,7.27,7.27,0,0,0-1,.93.93.93,0,0,0-.1,1.08A1.18,1.18,0,0,0,17.78,67.48Zm20.07,9.23a1.19,1.19,0,0,0,.42,1.1c.46.39,1.06,0,1.53.32,0,0,.12-.09.11-.13-.13-.68.27-1.3.21-2a1,1,0,0,0-1-1,1,1,0,0,0-1.16.8C37.92,76.08,37.9,76.4,37.85,76.71Zm5.37-.12c0,.25,0,.5,0,.75.06,1-.1.9,1,.83.33,0,.95.21.94-.25s-.6-.14-.93-.15-.5,0-.51-.43.12-.46.45-.49.75.18.74-.2-.5-.17-.76-.18-.45-.06-.47-.4.07-.52.43-.5.46,0,.68,0,.34,0,.31-.25-.16-.16-.3-.18C43.26,75,43.11,75.1,43.22,76.59Zm-15-1.49a1,1,0,0,0,.7-.09,2.75,2.75,0,0,0,.93-2c-.15-.74-.85-.8-1.36-1.09-.19-.11-.29,0-.36.19-.33.71-.65,1.43-1,2.15-.09.19-.09.35.13.44A6.43,6.43,0,0,0,28.24,75.1Zm3.2.93a2.52,2.52,0,0,0-.86-.4c-.4-.18-.51-.59-.18-.86s.49.07.74.1.39.28.51,0-.23-.25-.37-.35a1.09,1.09,0,0,0-.25-.1c-.31-.09-.45-.23-.31-.59s.33-.36.62-.23.42.16.63.23.27.11.34-.07-.05-.26-.18-.31c-.42-.17-.85-.31-1.27-.48s-.35.09-.42.28c-.26.7-.5,1.4-.78,2.09-.09.23-.1.39.16.48l1.27.48C31.29,76.35,31.38,76.28,31.44,76Zm-11.78-6.7a1.07,1.07,0,0,0,.4-.1,10.66,10.66,0,0,0,1.55-1.6c.09-.1.05-.21-.05-.29s-.25-.06-.35,0L20.12,68.6a.61.61,0,0,1-.95.1c-.35-.31-.24-.64,0-1l1.05-1.15c.11-.13.22-.25.05-.4s-.29,0-.39.09c-.4.43-.81.86-1.18,1.31a.93.93,0,0,0-.1,1.08A1.15,1.15,0,0,0,19.66,69.33ZM16,65.48a1.14,1.14,0,0,0,.3-.06A12.33,12.33,0,0,0,18,64.09a.18.18,0,0,0,0-.29c-.15-.18-.27-.08-.4,0l-1.21,1a.62.62,0,0,1-1,0c-.31-.36-.14-.67.17-.92s.8-.66,1.21-1c.13-.11.25-.2.12-.39s-.27-.09-.4,0c-.47.39-1,.76-1.41,1.17A.9.9,0,0,0,15,64.78,1.13,1.13,0,0,0,16,65.48Zm-5.53-10,1.84-.65a.22.22,0,0,0,.14-.32c-.08-.18-.21-.14-.34-.1l-1.4.51c-.42.15-.83.19-1-.33s.16-.7.55-.84l1.4-.51c.16-.06.31-.13.21-.34a.19.19,0,0,0-.27-.13,18.21,18.21,0,0,0-1.94.77.91.91,0,0,0-.35,1.2A1.06,1.06,0,0,0,10.47,55.44ZM13,61.08a8,8,0,0,0,1.86-.95c.14-.08.38-.14.24-.39s-.34-.08-.5,0c-.38.2-.75.42-1.12.64s-.77.39-1.06-.08.06-.78.46-1l1.23-.72c.12-.07.22-.16.14-.32a.22.22,0,0,0-.34-.1c-.58.35-1.18.67-1.72,1.06a.9.9,0,0,0-.23,1.12A1.12,1.12,0,0,0,13,61.08ZM34.79,77c-.07-.83-.14-1.62-.2-2.41,0-.18,0-.39-.22-.46s-.31.13-.41.27c-.46.65-.92,1.29-1.37,1.94-.08.12-.26.25-.07.4s.27.05.41-.07a.81.81,0,0,1,1.4.36c.06.18.14.3.32.29S34.79,77.07,34.79,77Zm7.9-.59c0-.23,0-.45,0-.68s.11-.46-.2-.48-.26.24-.27.43c0,.46,0,.91,0,1.36s-.15.8-.65.77a.68.68,0,0,1-.7-.8A5.13,5.13,0,0,1,41,75.52c0-.12.08-.33-.15-.38s-.28.1-.29.28c0,.61-.08,1.22,0,1.83a1,1,0,0,0,1.11,1,1,1,0,0,0,1-.95C42.68,77,42.68,76.67,42.69,76.38ZM21.68,71a.29.29,0,0,0,.2.42c.18,0,.19-.16.23-.28.25-.77.5-1.55.74-2.32,0-.15.12-.31,0-.44s-.34,0-.48.06c-.68.42-1.35.83-2,1.26-.12.07-.35.13-.25.33s.27.15.47.08A.85.85,0,0,1,21.68,71Zm27.57,6.14c0,.17-.17.39.13.45.13,0,.24,0,.31-.2.35-.74.83-.85,1.46-.32a.31.31,0,0,0,.37.06c.17-.09.07-.23,0-.34l-1.35-2.12c-.09-.13-.16-.29-.36-.24s-.23.25-.25.43C49.46,75.63,49.35,76.39,49.25,77.14ZM9.72,48.46c-.26.07-.71.14-1.13.28a.94.94,0,0,0-.64.88,1,1,0,0,0,.5,1c.17.11.41.26.55.08s-.07-.35-.26-.44a.58.58,0,0,1-.37-.66.63.63,0,0,1,.5-.49L9.4,49c.37-.07.77-.23,1,.18s.11.63-.17.9a.28.28,0,0,0,0,.37c.13.11.25,0,.35-.1a1,1,0,0,0,.29-1.18C10.78,48.7,10.42,48.45,9.72,48.46ZM48.25,16a1,1,0,1,0-2,0,1,1,0,0,0,1,1A1,1,0,0,0,48.25,16ZM17.15,31.28a1,1,0,0,0-1,1,1,1,0,0,0,1,1,1,1,0,0,0,1-1A1,1,0,0,0,17.15,31.28Zm5.16-7.82a1,1,0,1,0,1,1A1,1,0,0,0,22.31,23.46Zm-11,27.48c-.06-.24-.24-.21-.42-.16l-1.56.44c-1,.28-1,.29-.71,1.31.08.27,0,.81.39.72s.08-.55,0-.8c-.16-.48,0-.69.45-.79s1-.28,1.56-.43C11.16,51.19,11.35,51.19,11.32,50.94ZM48,75.09l.39,2.4c0,.16.11.24.27.23s.22-.17.19-.34c-.13-.78-.25-1.55-.39-2.33,0-.15,0-.34-.26-.31S47.93,74.92,48,75.09Zm-.09-.61c.52-.11.54-.41.62-.65s-.09-.13-.19-.11C48,73.82,48.09,74.16,47.88,74.48Z"/><path class="cls-1" d="M48.84,63.19a7.49,7.49,0,0,1-1.49-1.87Q41.27,53.1,35.24,44.85c-.13-.18-.28-.35-.43-.54a1.33,1.33,0,0,1-.83.6c-.34,0-.35.23-.39.5-.29,1.86-.7,3.69-1.13,5.52a1.42,1.42,0,0,1-1,1.1c-2.27.86-4.52,1.75-6.77,2.66-.54.22-.61.09-.63-.45a33.35,33.35,0,0,1,.12-4c.08-1-.37-1.38-1.33-1.49a7.17,7.17,0,0,1-5.83-3.69,2.76,2.76,0,0,1,.53-2.34,6.84,6.84,0,0,1,3.84-1.87,10.7,10.7,0,0,1,4.18-.06c1.12.19,2.26.24,3.38.33.25,0,.48.08.6-.27s0-.41-.17-.63a3,3,0,0,1-.7-2.32,7.25,7.25,0,0,0,.34-1.73c-.15-1.53.81-2.42,1.83-3.19a6.79,6.79,0,0,1,4.46-1.36,2.9,2.9,0,0,1,2.17,1.11.63.63,0,0,1-.05.87,1,1,0,0,0-.13,1.18,1.54,1.54,0,0,1,0,1.31c-.23.52.31.89.46,1.55,3.63-4.82,7.16-9.53,10.69-14.24.36,0,.54.14.53.5-.09.1-.19.19-.27.29C45,29.09,41.36,34,37.62,38.86c-.63.83-.48,1.83-1,2.65-.09.16.18.35.38.39a3.09,3.09,0,0,0,.68,0,6.66,6.66,0,0,1,3.63.62.89.89,0,0,0,.6,0,13.94,13.94,0,0,1,5.19,0,2,2,0,0,0,1-.09A7.59,7.59,0,0,1,52.58,42a9.42,9.42,0,0,0,2.89.23,10.14,10.14,0,0,1,1.35,0,1.81,1.81,0,0,0,1.61-.69,4.85,4.85,0,0,1,.09,2.75c-.22,0-.44.09-.67.1a16.77,16.77,0,0,0-5.1,1,12.63,12.63,0,0,1-5.35.64,5.75,5.75,0,0,0-1.55,0,13.78,13.78,0,0,1-3.78.35,1.17,1.17,0,0,0-1.22.62,7.52,7.52,0,0,1-1.22,1.54c-.45.42-.34.68,0,1.11q4.8,6.54,9.56,13.09C49.19,63,49,63.11,48.84,63.19Z"/><path class="cls-3" d="M78.11,43a31.43,31.43,0,0,1-6.76,19.39,43.17,43.17,0,0,1-5.31,6,49.29,49.29,0,0,1-9,6.64,1.51,1.51,0,0,1-.17.1A.56.56,0,0,1,56,75c-.19-.31,0-.52.27-.68.8-.59,1.62-1.16,2.41-1.77A39.21,39.21,0,0,0,71.38,56a33.6,33.6,0,0,0,2.27-15.65c-.83-9.19-4.89-16.83-11.34-23.3a42.15,42.15,0,0,0-5.67-4.74l-.22-.16c-.23-.17-.46-.36-.27-.67a.53.53,0,0,1,.83-.13c.91.59,1.84,1.15,2.74,1.77A46.77,46.77,0,0,1,73.17,26.63,30.29,30.29,0,0,1,78.11,43Z"/><path class="cls-4" d="M65.65,43.17a30.81,30.81,0,0,0-7.17-19.56,34.66,34.66,0,0,0-6.23-5.93c-.21-.16-.52-.33-.3-.65s.5-.16.76,0C58.27,20.69,63,25.16,66,31.15a25.4,25.4,0,0,1-.18,24.38A35.31,35.31,0,0,1,52.71,69.34l-.35.2a.4.4,0,0,1-.54-.12.37.37,0,0,1,.12-.54c.39-.31.8-.59,1.19-.9A32.24,32.24,0,0,0,64.2,52.46,29.62,29.62,0,0,0,65.65,43.17Z"/><path class="cls-5" d="M48.84,63.19c.17-.08.35-.15.32-.4a1.91,1.91,0,0,0,.58-.31A35.41,35.41,0,0,0,52.29,60a25.67,25.67,0,0,0,5.09-8.87,45.1,45.1,0,0,0,1.23-5.83,1.25,1.25,0,0,0-.09-1,4.85,4.85,0,0,0-.09-2.75,16.52,16.52,0,0,0-.53-3.83,22.16,22.16,0,0,0-2.19-5.85A24.47,24.47,0,0,0,50.38,25c-.43-.39-.72-1-1.39-1.08,0-.36-.17-.53-.53-.5a.81.81,0,0,0-.43-.48.32.32,0,0,1-.17-.45c.09-.18.28-.15.47-.15.36,0,.46.33.69.49a34.16,34.16,0,0,1,4.64,3.69,28.63,28.63,0,0,1,6,8.51,26.23,26.23,0,0,1,1.18,3.74,4.54,4.54,0,0,1,.29,1.5.48.48,0,0,0-.28.55c.16.68.47,1.37-.05,2a.36.36,0,0,0,0,.32,1.18,1.18,0,0,1,.1,1.2c-.1.23.12.3.3.34a13.53,13.53,0,0,1-.38,3.54,37.76,37.76,0,0,1-1.36,4,26.87,26.87,0,0,1-1.94,3.48A29.33,29.33,0,0,1,54,60a34.91,34.91,0,0,1-4.33,3.73,6.83,6.83,0,0,1-1.21.68.4.4,0,0,1-.59-.13c-.13-.24.11-.38.25-.49S48.71,63.55,48.84,63.19Z"/><path class="cls-1" d="M33.38,53.34a32.1,32.1,0,0,1,3.24.36c.52.07.54.28.39.71q-1.57,4.52-3.12,9.05c-.31.93-.29.93-1.14.47a23.2,23.2,0,0,1-7.87-7c-.29-.4-.32-.56.2-.8,2.2-1,4.5-1.79,6.76-2.68A4.46,4.46,0,0,1,33.38,53.34Z"/><path class="cls-1" d="M33.68,8.44A2.82,2.82,0,0,1,36.33,10,2.58,2.58,0,0,1,36.09,13c-.23.3-.2.46.06.72.8.79,1.57,1.62,2.37,2.43.25.25.27.38-.11.49-.58.17-1.17.34-1.75.54-.33.11-.5-.06-.69-.27-.64-.71-1.29-1.41-1.91-2.12-.24-.28-.47-.4-.82-.22s-.12.48-.06.7c.2.74.4,1.48.66,2.21.15.41,0,.54-.36.66-1.69.53-1.68.54-2.19-1.15-.67-2.23-1.34-4.47-2-6.69-.15-.49-.05-.68.43-.8.92-.25,1.83-.55,2.74-.82A4.17,4.17,0,0,1,33.68,8.44Zm-.36,2.12c-.37.26-1.25,0-1.31.67,0,.45,0,1.32.66,1.44a1.49,1.49,0,0,0,1.7-1.18A1,1,0,0,0,33.32,10.56Z"/><path class="cls-1" d="M45.55,12a6.25,6.25,0,0,1-.33,2.72.4.4,0,0,0,.18.57c.39.28.31.53,0,.8a2,2,0,0,0-.38.39c-.23.33-.47.39-.73,0s-.47-.27-.82-.14c-2.25.83-4.8-.29-5-3a21.87,21.87,0,0,1-.05-2.92,3.53,3.53,0,0,1,7,0C45.52,10.85,45.52,11.33,45.55,12ZM42,14.53c0-.36-.55-.46-.21-.76s.54-.94,1.09-.83c.36.07.34-.06.34-.26,0-.81,0-1.63-.13-2.44A1.08,1.08,0,0,0,42,9.15a1.11,1.11,0,0,0-1.2,1.13,11.92,11.92,0,0,0,.11,3.32A1.09,1.09,0,0,0,42,14.53Z"/><path class="cls-1" d="M21.25,26.35a3.86,3.86,0,0,1-2.09,3.23,3.17,3.17,0,0,1-3.51-.33q-2.19-1.5-4.38-3c-.33-.22-.47-.37-.19-.78,1-1.47,1-1.48,2.42-.49,1.2.81,2.39,1.64,3.6,2.43a1.22,1.22,0,0,0,2-.78,1.32,1.32,0,0,0-.73-1.35c-1.4-1-2.78-1.95-4.22-2.85-.61-.38-.58-.65-.19-1.18.86-1.17.84-1.19,2.06-.36l3.7,2.52A3.35,3.35,0,0,1,21.25,26.35Z"/><path class="cls-1" d="M24.43,23.3c-.28-.09-.24-.33-.28-.5q-.9-3.66-1.78-7.31a4.1,4.1,0,0,0-.18-.73c-.35-.75-.13-1.2.59-1.62a1,1,0,0,1,1.29.06c2.26,1.7,4.54,3.37,6.83,5,.42.31.54.51,0,.78a2.1,2.1,0,0,0-.56.37,1,1,0,0,1-1.69,0c-.21-.26-.43-.25-.7-.05a16.83,16.83,0,0,1-1.53,1c-.4.23-.56.5-.35.93.33.63.12,1-.5,1.33A10.45,10.45,0,0,0,24.43,23.3Zm2.24-5.56-1.83-1.47A2.54,2.54,0,0,0,25,17.36C25.43,18.88,25.43,18.88,26.67,17.74Z"/><path class="cls-1" d="M7.54,35a3.51,3.51,0,0,1,3.34-3.66c.58,0,.67.14.48.64a4.82,4.82,0,0,0-.22.85c-.1.46-.22.82-.8.91s-.68.57-.72,1a1,1,0,0,0,.56,1,10.4,10.4,0,0,0,3.58,1,1,1,0,0,0,1-.63,1,1,0,0,0-.18-1.31.76.76,0,0,1-.24-.94c.11-.32.18-.65.27-1,.18-.68.27-.73.82-.3a3.33,3.33,0,0,1,1.22,4.34A3.2,3.2,0,0,1,13,39a15.54,15.54,0,0,1-3.28-.86A3.23,3.23,0,0,1,7.54,35Z"/><path class="cls-1" d="M61.16,44.7c-.18,0-.4-.11-.3-.34a1.18,1.18,0,0,0-.1-1.2.36.36,0,0,1,0-.32c.52-.67.21-1.36.05-2a.48.48,0,0,1,.28-.55,5.88,5.88,0,0,1,.73.14,1.43,1.43,0,0,1,.77,1.68A6.05,6.05,0,0,1,61.16,44.7Z"/><path class="cls-1" d="M10.84,44.12a1.22,1.22,0,0,1-1.25,1.24,1.24,1.24,0,0,1,0-2.48A1.21,1.21,0,0,1,10.84,44.12Z"/><path class="cls-1" d="M13.28,56.6c0,.23,0,.52-.24.59a10.06,10.06,0,0,0-1.69.8c-.35.18-.68-.11-.87-.47-.05-.1-.1-.2-.14-.3-.41-.87-.41-.87.49-1.27a9.72,9.72,0,0,0,1.22-.57c.55-.34.8-.17,1,.39A3,3,0,0,1,13.28,56.6Zm-2.1-.36c-.18.24-.63.16-.56.52s.18.79.68.78a.38.38,0,0,0,.38-.47C11.61,56.77,11.56,56.42,11.18,56.24Zm1.27.73c.26-.06.45-.21.38-.47s-.06-.7-.47-.7c-.19,0-.58.08-.53.39S12,56.91,12.45,57Z"/><path class="cls-1" d="M15.31,62.68c-.64-.25-.6.33-.83.58s-.1.53-.4.38-.12-.43,0-.65l.36-.65a.4.4,0,0,0-.09-.49c-.19-.21-.31,0-.47,0s-.52.7-.8.26.35-.46.58-.65c.44-.35.93-.63,1.38-1,.28-.22.45-.19.63.12s.33.48.47.74a.81.81,0,0,1-.06,1A.85.85,0,0,1,15.31,62.68Zm.52-.92c-.11-.29-.2-.69-.55-.74s-.64.2-.6.5a.78.78,0,0,0,.64.69C15.62,62.25,15.77,62.06,15.83,61.76Z"/><path class="cls-1" d="M17.78,67.48a1.18,1.18,0,0,1-1.05-.65.93.93,0,0,1,.1-1.08,7.27,7.27,0,0,1,1-.93.92.92,0,0,1,1.24.09,1,1,0,0,1,.36,1.16c-.05.13-.1.29-.26.26A.27.27,0,0,1,19,66a.66.66,0,0,0-.38-.89c-.42-.15-.67.2-.93.43a2.17,2.17,0,0,0-.5.55.59.59,0,0,0,.45.91.54.54,0,0,0,.49-.17c.15-.16,0-.28-.07-.4s-.17-.24,0-.35.26,0,.34.12.47.32.42.64S18.06,67.47,17.78,67.48Z"/><path class="cls-1" d="M19.66,69.33a1.15,1.15,0,0,1-1-.65.93.93,0,0,1,.1-1.08c.37-.45.78-.88,1.18-1.31.1-.12.21-.25.39-.09s.06.27-.05.4L19.2,67.75c-.27.31-.38.64,0,1a.61.61,0,0,0,.95-.1l1.09-1.21c.1-.11.2-.18.35,0s.14.19.05.29a10.66,10.66,0,0,1-1.55,1.6A1.07,1.07,0,0,1,19.66,69.33Z"/><path class="cls-1" d="M16,65.48a1.13,1.13,0,0,1-1-.7.9.9,0,0,1,.18-1.12c.45-.41.94-.78,1.41-1.17.13-.11.26-.2.4,0s0,.28-.12.39c-.41.33-.81.65-1.21,1s-.48.56-.17.92a.62.62,0,0,0,1,0l1.21-1c.13-.11.25-.21.4,0a.18.18,0,0,1,0,.29,12.33,12.33,0,0,1-1.72,1.33A1.14,1.14,0,0,1,16,65.48Z"/><path class="cls-1" d="M10.47,55.44a1.06,1.06,0,0,1-1.16-.74.91.91,0,0,1,.35-1.2,18.21,18.21,0,0,1,1.94-.77.19.19,0,0,1,.27.13c.1.21,0,.28-.21.34l-1.4.51c-.39.14-.71.35-.55.84s.58.48,1,.33l1.4-.51c.13,0,.26-.08.34.1a.22.22,0,0,1-.14.32Z"/><path class="cls-1" d="M25.34,70.49c.13.17.29,0,.43,0a1.09,1.09,0,0,1,1,1.6,5.17,5.17,0,0,1-.55.93,1,1,0,0,1-1.43.28A1,1,0,0,1,24.33,72c.19-.49.64-.84.75-1.37h0c.18.12.27.08.28-.14Zm-.1,2.59c.39,0,1.14-.92,1.17-1.44a.83.83,0,0,0-.1-.38.55.55,0,0,0-.7-.23,2.31,2.31,0,0,0-.91,1.56A.62.62,0,0,0,25.24,73.08Z"/><path class="cls-1" d="M13,61.08a1.12,1.12,0,0,1-1-.74.9.9,0,0,1,.23-1.12c.54-.39,1.14-.71,1.72-1.06a.22.22,0,0,1,.34.1c.08.16,0,.25-.14.32l-1.23.72c-.4.23-.77.49-.46,1s.69.3,1.06.08.74-.44,1.12-.64c.16-.09.34-.31.5,0s-.1.31-.24.39A8,8,0,0,1,13,61.08Z"/><path class="cls-1" d="M21.68,71a.85.85,0,0,0-1.12-.89c-.2.07-.37.11-.47-.08s.13-.26.25-.33c.66-.43,1.33-.84,2-1.26.14-.09.3-.24.48-.06s.07.29,0,.44c-.24.77-.49,1.55-.74,2.32,0,.12-.05.31-.23.28A.29.29,0,0,1,21.68,71Zm.6-2c-.41.21-.81.29-.93.69,0,.08.43.41.5.36C22.21,69.89,22.2,69.49,22.28,69.05Z"/><path class="cls-1" d="M9.72,48.46c.7,0,1.06.24,1.21.72a1,1,0,0,1-.29,1.18c-.1.08-.22.21-.35.1a.28.28,0,0,1,0-.37c.28-.27.41-.57.17-.9s-.68-.25-1-.18l-.53.13a.63.63,0,0,0-.5.49.58.58,0,0,0,.37.66c.19.09.42.21.26.44s-.38,0-.55-.08a1,1,0,0,1-.5-1,.94.94,0,0,1,.64-.88C9,48.6,9.46,48.53,9.72,48.46Z"/><path class="cls-1" d="M48.25,16a1,1,0,0,1-1,1,1,1,0,0,1-1-1,1,1,0,1,1,2,0Z"/><path class="cls-1" d="M17.15,31.28a1,1,0,0,1,1,1,1,1,0,0,1-1,1,1,1,0,0,1-1-1A1,1,0,0,1,17.15,31.28Z"/><path class="cls-1" d="M22.31,23.46a1,1,0,0,1,1,1,1,1,0,1,1-1-1Z"/><path class="cls-1" d="M25.08,70.61a2.13,2.13,0,0,0-1.64.86c-.21.21-.28.82-.66.55s.15-.56.3-.81a5.15,5.15,0,0,0,.37-1.63c.05-.18-.11-.55.23-.51s.21.38.19.61-.06.52-.1.8a1,1,0,0,0,.76-.31c.44-.31.73-.28.81.32h0a.15.15,0,0,0-.25-.07c-.1.06-.08.13,0,.21Z"/><path class="cls-1" d="M11.32,50.94c0,.25-.16.25-.3.29-.52.15-1,.33-1.56.43s-.61.31-.45.79c.09.25.44.69,0,.8s-.31-.45-.39-.72c-.32-1-.3-1,.71-1.31l1.56-.44C11.08,50.73,11.26,50.7,11.32,50.94Z"/><path class="cls-2" d="M49,23.9c.67.09,1,.69,1.39,1.08a24.47,24.47,0,0,1,5.33,6.89,22.16,22.16,0,0,1,2.19,5.85,16.52,16.52,0,0,1,.53,3.83,1.81,1.81,0,0,1-1.61.69,10.14,10.14,0,0,0-1.35,0A9.42,9.42,0,0,1,52.58,42a7.59,7.59,0,0,0-4.46.41,2,2,0,0,1-1,.09,13.94,13.94,0,0,0-5.19,0,.89.89,0,0,1-.6,0,6.66,6.66,0,0,0-3.63-.62,3.09,3.09,0,0,1-.68,0c-.2,0-.47-.23-.38-.39.5-.82.35-1.82,1-2.65C41.36,34,45,29.09,48.72,24.19,48.8,24.09,48.9,24,49,23.9Z"/><path class="cls-2" d="M58.52,44.3a1.25,1.25,0,0,1,.09,1,45.1,45.1,0,0,1-1.23,5.83A25.67,25.67,0,0,1,52.29,60a35.41,35.41,0,0,1-2.55,2.5,1.91,1.91,0,0,1-.58.31Q44.39,56.25,39.6,49.7c-.31-.43-.42-.69,0-1.11a7.52,7.52,0,0,0,1.22-1.54,1.17,1.17,0,0,1,1.22-.62,13.78,13.78,0,0,0,3.78-.35,5.75,5.75,0,0,1,1.55,0,12.63,12.63,0,0,0,5.35-.64,16.77,16.77,0,0,1,5.1-1C58.08,44.39,58.3,44.33,58.52,44.3Z"/><path class="cls-2" d="M33.32,10.56a1,1,0,0,1,1,.93,1.49,1.49,0,0,1-1.7,1.18c-.67-.12-.7-1-.66-1.44C32.07,10.55,33,10.82,33.32,10.56Z"/><path class="cls-2" d="M42,14.53a1.09,1.09,0,0,1-1.15-.93,11.92,11.92,0,0,1-.11-3.32A1.11,1.11,0,0,1,42,9.15a1.08,1.08,0,0,1,1.15,1.09c.1.81.1,1.63.13,2.44,0,.2,0,.33-.34.26-.55-.11-.74.52-1.09.83S42,14.17,42,14.53Z"/><path class="cls-2" d="M26.67,17.74c-1.24,1.14-1.24,1.14-1.65-.38a2.54,2.54,0,0,1-.18-1.09Z"/><path class="cls-2" d="M11.18,56.24c.38.18.43.53.5.83a.38.38,0,0,1-.38.47c-.5,0-.61-.43-.68-.78S11,56.48,11.18,56.24Z"/><path class="cls-2" d="M12.45,57c-.45-.06-.57-.45-.62-.78s.34-.39.53-.39c.41,0,.39.43.47.7S12.71,56.91,12.45,57Z"/><path class="cls-2" d="M15.83,61.76c-.06.3-.21.49-.51.45a.78.78,0,0,1-.64-.69c0-.3.37-.53.6-.5S15.72,61.47,15.83,61.76Z"/><path class="cls-2" d="M25.24,73.08a.62.62,0,0,1-.54-.49A2.31,2.31,0,0,1,25.61,71a.55.55,0,0,1,.7.23.83.83,0,0,1,.1.38C26.38,72.16,25.63,73.1,25.24,73.08Z"/><path class="cls-2" d="M25.07,70.62c-.05-.08-.07-.15,0-.21a.15.15,0,0,1,.25.07C25.34,70.7,25.25,70.74,25.07,70.62Z"/><path class="cls-2" d="M22.28,69.05c-.08.44-.07.84-.43,1-.07.05-.52-.28-.5-.36C21.47,69.34,21.87,69.26,22.28,69.05Z"/><path class="cls-2" d="M50,75.29c.29.14.35.4.49.6s.26.28.09.4a.82.82,0,0,1-.57.13c-.22,0-.13-.24-.11-.38S49.91,75.56,50,75.29Z"/></g></g></svg>