<svg xmlns="http://www.w3.org/2000/svg" viewBox="0 0 79.51 79.52"><defs><style>.cls-1{fill:#221f20;}.cls-2{fill:#0980ac;}.cls-3{fill:#ba3232;}.cls-4{fill:#efe41a;}.cls-5{opacity:0.49;}.cls-6{fill:#f0efef;}</style></defs><g id="Layer_2" data-name="Layer 2"><g id="Layer_2-2" data-name="Layer 2"><path class="cls-1" d="M39.72,79.52A39.76,39.76,0,1,1,79.51,39.84,39.74,39.74,0,0,1,39.72,79.52Zm0-78.21A38.45,38.45,0,1,0,78.19,39.92,38.45,38.45,0,0,0,39.72,1.31Z"/><path class="cls-1" d="M45.46,58.82a7.5,7.5,0,0,1-1.39-1.74Q38.41,49.42,32.8,41.74c-.12-.16-.26-.32-.4-.5-.23.27-.43.52-.77.56s-.33.22-.37.47C31,44,30.62,45.7,30.21,47.4a1.32,1.32,0,0,1-.89,1c-2.11.79-4.21,1.62-6.3,2.47-.5.2-.57.09-.59-.42a30.82,30.82,0,0,1,.11-3.72c.08-.9-.35-1.29-1.23-1.38a6.7,6.7,0,0,1-5.43-3.44,2.56,2.56,0,0,1,.49-2.18A6.38,6.38,0,0,1,19.94,38a9.85,9.85,0,0,1,3.9-.05c1,.17,2.09.22,3.14.3.23,0,.45.07.56-.25s0-.38-.16-.59a2.74,2.74,0,0,1-.65-2.16,6.65,6.65,0,0,0,.31-1.6,3.26,3.26,0,0,1,1.71-3,6.31,6.31,0,0,1,4.16-1.27,2.68,2.68,0,0,1,2,1,.58.58,0,0,1,0,.81.94.94,0,0,0-.12,1.1,1.49,1.49,0,0,1,0,1.22c-.22.49.28.83.43,1.45L45.1,21.78c.34,0,.5.13.49.47a3.07,3.07,0,0,0-.25.26C41.91,27.07,38.5,31.65,35,36.17c-.59.77-.45,1.7-.91,2.46-.1.15.16.33.35.36a2.21,2.21,0,0,0,.63,0,6.15,6.15,0,0,1,3.38.57.75.75,0,0,0,.55,0,13.13,13.13,0,0,1,4.84,0,1.8,1.8,0,0,0,.92-.08,7.16,7.16,0,0,1,4.16-.38,8.68,8.68,0,0,0,2.68.21,10.77,10.77,0,0,1,1.27,0,1.65,1.65,0,0,0,1.49-.64,4.55,4.55,0,0,1,.09,2.56c-.21,0-.42.08-.62.09a15.93,15.93,0,0,0-4.75,1,11.73,11.73,0,0,1-5,.6,5.41,5.41,0,0,0-1.45,0,12.59,12.59,0,0,1-3.51.32,1.09,1.09,0,0,0-1.14.58,7.12,7.12,0,0,1-1.13,1.43c-.42.39-.33.64,0,1,3,4.05,5.93,8.12,8.9,12.18C45.78,58.67,45.62,58.74,45.46,58.82Z"/><path class="cls-2" d="M72.7,40.06a29.22,29.22,0,0,1-6.29,18,40.91,40.91,0,0,1-4.94,5.58,46.2,46.2,0,0,1-8.39,6.18,1.29,1.29,0,0,1-.16.09.51.51,0,0,1-.77-.16c-.18-.29.05-.48.25-.63.74-.55,1.51-1.07,2.24-1.64A36.47,36.47,0,0,0,66.43,52.09a31.34,31.34,0,0,0,2.12-14.56C67.78,29,64,21.86,58,15.84a39,39,0,0,0-5.27-4.41l-.21-.15c-.21-.16-.43-.34-.25-.62a.5.5,0,0,1,.77-.13c.85.55,1.72,1.08,2.55,1.65A43.57,43.57,0,0,1,68.1,24.78,28.23,28.23,0,0,1,72.7,40.06Z"/><path class="cls-3" d="M61.11,40.18A28.74,28.74,0,0,0,54.43,22a32.62,32.62,0,0,0-5.8-5.52c-.19-.15-.48-.3-.28-.6s.46-.15.71,0c5.17,3.4,9.56,7.55,12.39,13.14a23.62,23.62,0,0,1-.16,22.69A32.91,32.91,0,0,1,49.06,64.54c-.11.06-.22.13-.33.18a.36.36,0,0,1-.5-.11c-.14-.2,0-.37.11-.5.37-.29.75-.55,1.11-.84a30.06,30.06,0,0,0,10.3-14.45A27.53,27.53,0,0,0,61.11,40.18Z"/><path class="cls-4" d="M45.46,58.82c.16-.08.32-.15.3-.38a1.77,1.77,0,0,0,.54-.29c.78-.77,1.66-1.48,2.37-2.32a23.88,23.88,0,0,0,4.73-8.26,39.46,39.46,0,0,0,1.15-5.43,1.16,1.16,0,0,0-.08-.91,4.55,4.55,0,0,0-.09-2.56,15.43,15.43,0,0,0-.49-3.57,20.86,20.86,0,0,0-2-5.44,22.71,22.71,0,0,0-5-6.41c-.4-.36-.67-.92-1.3-1,0-.34-.15-.5-.49-.47a.71.71,0,0,0-.4-.45.3.3,0,0,1-.16-.42c.09-.16.27-.14.44-.13.33,0,.43.3.64.45a31.06,31.06,0,0,1,4.32,3.44,26.49,26.49,0,0,1,5.55,7.92,25.46,25.46,0,0,1,1.1,3.47,4.82,4.82,0,0,1,.27,1.4c-.19.12-.32.25-.26.51.15.63.44,1.27-.05,1.9a.35.35,0,0,0,0,.3,1.08,1.08,0,0,1,.09,1.12c-.09.21.12.27.29.31a12.61,12.61,0,0,1-.36,3.3,34.88,34.88,0,0,1-1.26,3.69,26.17,26.17,0,0,1-1.81,3.23,27.1,27.1,0,0,1-3.26,4.06,31.77,31.77,0,0,1-4,3.47,6,6,0,0,1-1.13.64c-.18.08-.43.12-.55-.12s.11-.36.24-.46S45.34,59.14,45.46,58.82Z"/><path class="cls-1" d="M31.07,49.65a27.7,27.7,0,0,1,3,.33c.49.07.5.26.36.66-1,2.81-1.94,5.61-2.9,8.43-.29.86-.26.86-1.06.44A21.62,21.62,0,0,1,23.16,53c-.27-.38-.3-.53.18-.75,2.05-1,4.19-1.67,6.29-2.49A3.92,3.92,0,0,1,31.07,49.65Z"/><path class="cls-1" d="M31.35,7.86a2.62,2.62,0,0,1,2.46,1.48,2.4,2.4,0,0,1-.22,2.74c-.21.28-.19.43,0,.67.75.74,1.47,1.51,2.21,2.26.23.23.25.36-.1.46-.54.15-1.09.31-1.63.5-.31.1-.47-.05-.64-.25-.59-.66-1.2-1.31-1.78-2a.56.56,0,0,0-.76-.2c-.37.19-.12.45-.06.65.18.69.38,1.39.62,2.06.13.38,0,.5-.34.62-1.57.49-1.57.5-2-1.07-.62-2.08-1.24-4.16-1.9-6.23-.14-.46,0-.63.41-.75.85-.22,1.69-.51,2.54-.76A3.61,3.61,0,0,1,31.35,7.86Zm-.33,2c-.36.25-1.17,0-1.23.63,0,.42,0,1.23.61,1.35A1.4,1.4,0,0,0,32,10.69.89.89,0,0,0,31,9.82Z"/><path class="cls-1" d="M42.4,11.13a5.83,5.83,0,0,1-.32,2.53.4.4,0,0,0,.17.54c.37.26.29.49,0,.73a1.75,1.75,0,0,0-.35.37c-.23.3-.44.37-.69,0s-.44-.26-.76-.13a3.27,3.27,0,0,1-4.63-2.83,22.32,22.32,0,0,1,0-2.71,3.29,3.29,0,0,1,6.56,0C42.36,10.1,42.37,10.55,42.4,11.13Zm-3.28,2.4c0-.34-.51-.43-.19-.72s.49-.87,1-.77c.34.07.32,0,.31-.24,0-.76,0-1.52-.11-2.27a1,1,0,0,0-1.08-1A1,1,0,0,0,38,9.57a10.68,10.68,0,0,0,.1,3.09A1,1,0,0,0,39.12,13.53Z"/><path class="cls-1" d="M19.78,24.53a3.59,3.59,0,0,1-2,3,3,3,0,0,1-3.27-.3c-1.35-.93-2.71-1.86-4.07-2.77-.31-.21-.44-.34-.18-.73.92-1.37.9-1.38,2.26-.45,1.11.76,2.22,1.53,3.35,2.26a1.12,1.12,0,0,0,1.84-.73,1.22,1.22,0,0,0-.67-1.26c-1.3-.89-2.59-1.81-3.93-2.65-.56-.35-.54-.6-.18-1.09.81-1.09.78-1.11,1.92-.34s2.3,1.56,3.44,2.35A3.1,3.1,0,0,1,19.78,24.53Z"/><path class="cls-1" d="M22.74,21.68c-.26-.08-.22-.3-.26-.46q-.84-3.41-1.66-6.81a3.87,3.87,0,0,0-.17-.67c-.32-.7-.12-1.12.55-1.51a.9.9,0,0,1,1.2,0c2.1,1.59,4.23,3.14,6.36,4.69.39.28.5.47,0,.72a2,2,0,0,0-.52.35.94.94,0,0,1-1.58,0c-.19-.24-.39-.23-.65-.05a14.53,14.53,0,0,1-1.42.94c-.37.22-.52.47-.32.87.3.59.1,1-.47,1.24A8.2,8.2,0,0,0,22.74,21.68Zm2.08-5.17-1.7-1.37a2.25,2.25,0,0,0,.17,1C23.67,17.57,23.67,17.57,24.82,16.51Z"/><path class="cls-1" d="M7,32.55a3.27,3.27,0,0,1,3.11-3.41c.54,0,.62.13.45.59a5.57,5.57,0,0,0-.22.8c-.08.43-.19.76-.73.85s-.64.53-.68,1a.9.9,0,0,0,.52.94,10,10,0,0,0,3.34.89.91.91,0,0,0,1-.59,1,1,0,0,0-.17-1.22.69.69,0,0,1-.22-.87c.1-.3.16-.61.24-.92.18-.63.26-.67.77-.28a3.12,3.12,0,0,1,1.14,4,3,3,0,0,1-3.44,1.93A14.14,14.14,0,0,1,9,35.47,3,3,0,0,1,7,32.55Z"/><path class="cls-1" d="M56.93,41.6c-.17,0-.38-.1-.29-.31a1.08,1.08,0,0,0-.09-1.12.35.35,0,0,1,0-.3c.49-.63.2-1.27.05-1.9-.06-.26.07-.39.26-.51a4.67,4.67,0,0,1,.67.13,1.34,1.34,0,0,1,.73,1.57A5.83,5.83,0,0,1,56.93,41.6Z"/><path class="cls-1" d="M10.09,41.07a1.13,1.13,0,0,1-1.17,1.14,1.16,1.16,0,0,1-1.14-1.12,1.18,1.18,0,0,1,1.15-1.18A1.14,1.14,0,0,1,10.09,41.07Z"/><path class="cls-1" d="M12.36,52.68c0,.21,0,.48-.22.55a9.9,9.9,0,0,0-1.58.74c-.32.17-.63-.1-.8-.43l-.14-.29c-.38-.8-.38-.8.46-1.18a9,9,0,0,0,1.14-.52c.5-.32.74-.16.89.35A2.64,2.64,0,0,1,12.36,52.68Zm-2-.33c-.16.21-.58.14-.52.48s.17.73.64.72a.35.35,0,0,0,.35-.43C10.81,52.83,10.76,52.51,10.4,52.35Zm1.19.67c.24-.05.42-.19.35-.43s0-.65-.44-.65c-.18,0-.54.07-.49.35S11.17,53,11.59,53Z"/><path class="cls-1" d="M43,72c0,.18,0,.31,0,.43s0,.21-.17.23-.23-.07-.25-.22c-.08-.75-.16-1.5-.25-2.25a.31.31,0,0,1,.08-.29,2.4,2.4,0,0,1,1.65,0,.8.8,0,0,1,0,1.22c-.3.34.15.5.22.75s.4.33.17.51-.41-.06-.54-.26-.16-.25-.24-.37-.27-.46-.58-.35S43.05,71.87,43,72Zm-.16-1.43c.07.18-.08.54.36.48s.68,0,.72-.44-.21-.48-.53-.45S42.75,70.09,42.8,70.58Z"/><path class="cls-1" d="M35.06,70.28c0,.18,0,.43-.17.51-.62.3-.4.74-.27,1.2,0,.12.23.33-.06.39s-.31-.08-.35-.28-.16-.48-.21-.72a.4.4,0,0,0-.45-.36c-.25,0-.16.24-.24.37s.07.76-.34.66-.09-.53-.07-.79c.06-.54.21-1.08.3-1.62,0-.27.14-.36.41-.3s.62.12.92.21A.75.75,0,0,1,35.06,70.28Zm-1,.45c.29,0,.54-.06.54-.4s-.38-.48-.7-.53-.37.35-.4.56C33.45,70.81,33.89,70.61,34.07,70.73Z"/><path class="cls-1" d="M14.25,58.34c-.6-.24-.56.31-.77.54s-.1.49-.38.35-.11-.4,0-.6.23-.4.34-.61a.37.37,0,0,0-.09-.46c-.17-.19-.28,0-.43,0s-.48.65-.75.24.33-.42.54-.6c.41-.33.87-.59,1.28-.91s.43-.18.59.1.31.46.44.69A.77.77,0,0,1,15,58,.81.81,0,0,1,14.25,58.34Zm.49-.86c-.11-.27-.19-.64-.51-.69s-.6.19-.57.46a.73.73,0,0,0,.6.65C14.54,57.94,14.68,57.76,14.74,57.48Z"/><path class="cls-1" d="M16.55,62.8a1,1,0,0,1-1-.6.83.83,0,0,1,.09-1,6.22,6.22,0,0,1,.91-.87.87.87,0,0,1,1.16.08,1,1,0,0,1,.33,1.08c0,.12-.09.27-.23.25a.24.24,0,0,1-.17-.3c.09-.38,0-.69-.36-.83s-.62.19-.87.4a2.47,2.47,0,0,0-.46.51.54.54,0,0,0,.42.84.48.48,0,0,0,.46-.15c.14-.15,0-.26-.07-.38s-.16-.21,0-.31.24,0,.31.1.44.3.4.6S16.81,62.79,16.55,62.8Z"/><path class="cls-1" d="M35.23,71.4a6.31,6.31,0,0,1,.14-.87.92.92,0,0,1,1.08-.75,1,1,0,0,1,.89,1c.06.62-.32,1.2-.19,1.84,0,0-.1.12-.11.12-.44-.28-1,.06-1.42-.3A1.12,1.12,0,0,1,35.23,71.4Zm1.66-.4c0-.45,0-.8-.52-.83s-.58.28-.62.64a7.34,7.34,0,0,0-.08.82.51.51,0,0,0,.4.56c.41.11.23-.18.23-.35a.14.14,0,0,1,.08-.09C37.15,71.86,36.72,71.21,36.89,71Z"/><path class="cls-1" d="M40.23,71.29c-.1-1.39,0-1.51,1.45-1.37.13,0,.27,0,.29.17s-.13.22-.29.22-.42,0-.63,0-.42.15-.4.47.15.36.43.37.7-.25.71.17-.44.17-.68.19-.44.12-.43.46.19.39.48.4.86-.22.86.13-.57.21-.87.24c-1,.06-.83.16-.89-.78C40.24,71.75,40.24,71.52,40.23,71.29Z"/><path class="cls-1" d="M26.28,69.9a5.73,5.73,0,0,1-.88-.39c-.2-.08-.21-.22-.12-.41.31-.66.61-1.33.92-2,.07-.14.15-.28.34-.17.47.27,1.12.33,1.26,1a2.49,2.49,0,0,1-.87,1.87A.92.92,0,0,1,26.28,69.9Zm1.1-1.67c.05-.46-.26-.61-.58-.74s-.37.22-.47.4a4.48,4.48,0,0,0-.4.86c-.06.17-.36.38,0,.57s.63.34.91,0A3.22,3.22,0,0,0,27.38,68.23Z"/><path class="cls-1" d="M29.26,70.77c-.05.23-.14.29-.33.22-.39-.16-.78-.3-1.18-.45-.24-.09-.22-.23-.14-.44.25-.65.48-1.3.72-1.95.07-.18.12-.37.4-.26s.78.29,1.18.44c.12,0,.22.13.16.29s-.19.11-.31.07l-.59-.22c-.27-.12-.45-.12-.58.22s0,.46.29.55a.58.58,0,0,1,.23.09c.13.09.46,0,.35.32s-.32,0-.48,0-.45-.3-.69-.09a.46.46,0,0,0,.17.8C28.73,70.51,29.06,70.54,29.26,70.77Z"/><path class="cls-1" d="M18.3,64.53a1.08,1.08,0,0,1-1-.6.87.87,0,0,1,.09-1c.35-.43.73-.82,1.1-1.23.1-.11.2-.23.36-.08s.06.26,0,.37l-1,1.08c-.25.28-.35.59,0,.88a.56.56,0,0,0,.88-.09l1-1.13c.09-.1.19-.16.32,0s.13.18.05.27a8.84,8.84,0,0,1-1.44,1.49A.93.93,0,0,1,18.3,64.53Z"/><path class="cls-1" d="M14.89,60.94a1.05,1.05,0,0,1-1-.65.84.84,0,0,1,.18-1c.41-.38.87-.73,1.3-1.09.13-.1.24-.19.37,0s0,.26-.11.36l-1.12.91c-.29.24-.45.53-.16.87a.58.58,0,0,0,.89,0l1.13-.92c.12-.09.24-.19.37,0s.09.2,0,.27a11.16,11.16,0,0,1-1.6,1.23A.71.71,0,0,1,14.89,60.94Z"/><path class="cls-1" d="M9.75,51.6a1,1,0,0,1-1.09-.69A.84.84,0,0,1,9,49.8a18,18,0,0,1,1.81-.73.19.19,0,0,1,.25.13c.09.2-.05.26-.19.32L9.55,50c-.37.13-.66.33-.52.78s.54.45.94.3l1.3-.46c.12,0,.24-.08.31.09a.18.18,0,0,1-.12.29Z"/><path class="cls-1" d="M23.58,65.6c.12.17.27,0,.41.05a1,1,0,0,1,.89,1.48,4.72,4.72,0,0,1-.51.87.93.93,0,0,1-1.33.26A1,1,0,0,1,22.65,67c.17-.46.59-.78.69-1.28h0c.17.12.26.09.26-.13ZM23.49,68c.37,0,1.06-.85,1.09-1.34a.65.65,0,0,0-.1-.36.51.51,0,0,0-.65-.21A2.14,2.14,0,0,0,23,67.56.58.58,0,0,0,23.49,68Z"/><path class="cls-1" d="M12.06,56.85a1.06,1.06,0,0,1-1-.69.85.85,0,0,1,.21-1c.51-.37,1.07-.66,1.61-1a.19.19,0,0,1,.31.08c.08.15,0,.24-.13.31L12,55.19c-.37.21-.71.46-.42.94s.63.28,1,.08.69-.41,1-.6c.15-.08.32-.28.47,0s-.1.29-.23.36A6.94,6.94,0,0,1,12.06,56.85Z"/><path class="cls-1" d="M32.38,71.64c0,.09.11.28-.13.29s-.24-.1-.3-.26a.76.76,0,0,0-1.3-.34c-.13.12-.26.17-.39.07s0-.26.07-.37c.42-.61.85-1.21,1.27-1.81.1-.14.18-.32.39-.25s.19.26.2.43C32.25,70.13,32.32,70.87,32.38,71.64Zm-.62-1.86c-.18.31-.62.48-.5.9a.6.6,0,0,0,.5.13C32.08,70.5,31.77,70.13,31.76,69.78Z"/><path class="cls-1" d="M39.73,71.09c0,.27,0,.55,0,.82a.9.9,0,0,1-1,.89,1,1,0,0,1-1-.9c0-.56,0-1.13,0-1.7,0-.18.07-.3.27-.26s.18.24.14.35A4.82,4.82,0,0,0,38,71.65a.63.63,0,0,0,.65.74c.46,0,.6-.31.61-.71s0-.85,0-1.27c0-.17,0-.43.25-.4s.19.28.19.45S39.74,70.88,39.73,71.09Z"/><path class="cls-1" d="M20.17,66.08a.79.79,0,0,0-1-.83c-.18.07-.34.11-.43-.07s.12-.24.23-.31c.62-.4,1.24-.78,1.87-1.17.13-.08.28-.22.45-.06s.07.27,0,.41l-.69,2.16c0,.12,0,.29-.21.26A.27.27,0,0,1,20.17,66.08Zm.57-1.81c-.38.19-.76.27-.87.64,0,.07.4.38.47.33C20.67,65.05,20.66,64.68,20.74,64.27Z"/><path class="cls-1" d="M45.84,71.79c.1-.69.19-1.4.29-2.11,0-.17,0-.35.23-.4s.25.1.33.22l1.26,2c.07.1.16.23,0,.32a.28.28,0,0,1-.34-.06c-.59-.49-1-.39-1.37.3a.26.26,0,0,1-.28.19C45.68,72.16,45.86,72,45.84,71.79Zm.65-1.71c0,.24-.08.47-.1.69s-.1.34.11.36A.83.83,0,0,0,47,71c.16-.11,0-.26-.09-.37S46.76,70.2,46.49,70.08Z"/><path class="cls-1" d="M9,45.11c.66,0,1,.21,1.13.67a1,1,0,0,1-.26,1.09c-.1.07-.21.2-.33.09a.24.24,0,0,1,0-.34c.26-.25.38-.53.16-.84s-.64-.23-1-.16a3.89,3.89,0,0,0-.49.12.6.6,0,0,0-.47.46.56.56,0,0,0,.34.61c.18.08.4.2.25.4s-.36,0-.51-.06a1,1,0,0,1-.47-1A.85.85,0,0,1,8,45.37,9.81,9.81,0,0,1,9,45.11Z"/><path class="cls-1" d="M44.9,14.89a.9.9,0,0,1-.9.93A.92.92,0,0,1,44,14,.9.9,0,0,1,44.9,14.89Z"/><path class="cls-1" d="M16,29.12a.92.92,0,1,1,0,1.84.92.92,0,1,1,0-1.84Z"/><path class="cls-1" d="M20.77,21.83a.92.92,0,0,1,.89.94.92.92,0,1,1-.89-.94Z"/><path class="cls-1" d="M23.34,65.72a2,2,0,0,0-1.53.8c-.19.2-.25.76-.61.51s.15-.52.28-.75a5.41,5.41,0,0,0,.35-1.52c0-.17-.11-.51.21-.48s.19.36.18.57-.06.49-.1.74a.92.92,0,0,0,.71-.28c.41-.29.68-.27.75.29h0c-.05-.11-.13-.12-.23-.06s-.07.12,0,.19Z"/><path class="cls-1" d="M10.54,47.41c0,.23-.15.23-.28.27-.49.14-1,.3-1.46.4s-.56.29-.41.74c.08.23.4.64,0,.74s-.29-.42-.37-.67c-.29-1-.28-1,.66-1.22l1.45-.4C10.31,47.22,10.48,47.19,10.54,47.41Z"/><path class="cls-1" d="M44.64,69.89c0-.16,0-.3.19-.33s.23.15.25.29L45.44,72c0,.16,0,.3-.18.32s-.22-.07-.25-.22C44.89,71.38,44.77,70.63,44.64,69.89Z"/><path class="cls-1" d="M44.57,69.32c.19-.3.06-.61.39-.7.09,0,.21,0,.18.1S45.05,69.22,44.57,69.32Z"/><g class="cls-5"><path class="cls-6" d="M39.72,1.31A38.45,38.45,0,1,1,1.31,39.6,38.42,38.42,0,0,1,39.72,1.31ZM23.58,65.6c-.07-.56-.34-.58-.75-.29a.92.92,0,0,1-.71.28c0-.25.08-.49.1-.74s.15-.53-.18-.57-.17.31-.21.48a5.41,5.41,0,0,1-.35,1.52c-.13.23-.62.51-.28.75s.42-.31.61-.51a2,2,0,0,1,1.53-.8c-.1.5-.52.82-.69,1.28A1,1,0,0,0,23,68.26.93.93,0,0,0,24.37,68a4.72,4.72,0,0,0,.51-.87A1,1,0,0,0,24,65.65C23.85,65.64,23.7,65.77,23.58,65.6Zm33.35-24a5.83,5.83,0,0,0,1.33-2.44,1.34,1.34,0,0,0-.73-1.57,4.67,4.67,0,0,0-.67-.13,4.82,4.82,0,0,0-.27-1.4,25.46,25.46,0,0,0-1.1-3.47,26.49,26.49,0,0,0-5.55-7.92,31.06,31.06,0,0,0-4.32-3.44c-.21-.15-.31-.45-.64-.45-.17,0-.35,0-.44.13a.3.3,0,0,0,.16.42.71.71,0,0,1,.4.45L35.16,35c-.15-.62-.65-1-.43-1.45a1.49,1.49,0,0,0,0-1.22.94.94,0,0,1,.12-1.1.58.58,0,0,0,0-.81,2.68,2.68,0,0,0-2-1,6.31,6.31,0,0,0-4.16,1.27,3.26,3.26,0,0,0-1.71,3,6.65,6.65,0,0,1-.31,1.6,2.74,2.74,0,0,0,.65,2.16c.15.21.26.32.16.59s-.33.27-.56.25c-1.05-.08-2.1-.13-3.14-.3a9.85,9.85,0,0,0-3.9.05,6.38,6.38,0,0,0-3.57,1.74,2.56,2.56,0,0,0-.49,2.18,6.7,6.7,0,0,0,5.43,3.44c.88.09,1.31.48,1.23,1.38a30.82,30.82,0,0,0-.11,3.72c0,.51.09.62.59.42,2.09-.85,4.19-1.68,6.3-2.47a1.32,1.32,0,0,0,.89-1c.41-1.7.79-3.41,1.05-5.13,0-.25,0-.45.37-.47s.54-.29.77-.56c.14.18.28.34.4.5q5.63,7.68,11.27,15.34a7.5,7.5,0,0,0,1.39,1.74c-.12.32-.44.41-.69.59s-.35.23-.24.46.37.2.55.12a6,6,0,0,0,1.13-.64,31.77,31.77,0,0,0,4-3.47,27.1,27.1,0,0,0,3.26-4.06,26.17,26.17,0,0,0,1.81-3.23,34.88,34.88,0,0,0,1.26-3.69A12.61,12.61,0,0,0,56.93,41.6ZM72.7,40.06a28.23,28.23,0,0,0-4.6-15.28,43.57,43.57,0,0,0-12.52-12.6c-.83-.57-1.7-1.1-2.55-1.65a.5.5,0,0,0-.77.13c-.18.28,0,.46.25.62l.21.15A39,39,0,0,1,58,15.84c6,6,9.79,13.13,10.56,21.69a31.34,31.34,0,0,1-2.12,14.56A36.47,36.47,0,0,1,54.64,67.52c-.73.57-1.5,1.09-2.24,1.64-.2.15-.43.34-.25.63a.51.51,0,0,0,.77.16,1.29,1.29,0,0,0,.16-.09,46.2,46.2,0,0,0,8.39-6.18,40.91,40.91,0,0,0,4.94-5.58A29.22,29.22,0,0,0,72.7,40.06Zm-11.59.12a27.53,27.53,0,0,1-1.36,8.64,30.06,30.06,0,0,1-10.3,14.45c-.36.29-.74.55-1.11.84-.15.13-.25.3-.11.5a.36.36,0,0,0,.5.11c.11,0,.22-.12.33-.18A32.91,32.91,0,0,0,61.29,51.69,23.62,23.62,0,0,0,61.45,29c-2.83-5.59-7.22-9.74-12.39-13.14-.25-.16-.51-.32-.71,0s.09.45.28.6A32.62,32.62,0,0,1,54.43,22,28.74,28.74,0,0,1,61.11,40.18Zm-30,9.47a3.92,3.92,0,0,0-1.44.13c-2.1.82-4.24,1.54-6.29,2.49-.48.22-.45.37-.18.75a21.62,21.62,0,0,0,7.32,6.49c.8.42.77.42,1.06-.44,1-2.82,1.93-5.62,2.9-8.43.14-.4.13-.59-.36-.66A27.7,27.7,0,0,0,31.07,49.65Zm.28-41.79a3.61,3.61,0,0,0-1.18.2c-.85.25-1.69.54-2.54.76-.46.12-.55.29-.41.75.66,2.07,1.28,4.15,1.9,6.23.47,1.57.47,1.56,2,1.07.36-.12.47-.24.34-.62-.24-.67-.44-1.37-.62-2.06-.06-.2-.31-.46.06-.65a.56.56,0,0,1,.76.2c.58.67,1.19,1.32,1.78,2,.17.2.33.35.64.25.54-.19,1.09-.35,1.63-.5.35-.1.33-.23.1-.46-.74-.75-1.46-1.52-2.21-2.26-.24-.24-.26-.39,0-.67a2.4,2.4,0,0,0,.22-2.74A2.62,2.62,0,0,0,31.35,7.86Zm11,3.27c0-.58,0-1-.07-1.47a3.29,3.29,0,0,0-6.56,0,22.32,22.32,0,0,0,0,2.71,3.27,3.27,0,0,0,4.63,2.83c.32-.13.55-.15.76.13s.46.27.69,0a1.75,1.75,0,0,1,.35-.37c.29-.24.37-.47,0-.73a.4.4,0,0,1-.17-.54A5.83,5.83,0,0,0,42.4,11.13ZM19.78,24.53a3.1,3.1,0,0,0-1.44-2.71c-1.14-.79-2.29-1.57-3.44-2.35s-1.11-.75-1.92.34c-.36.49-.38.74.18,1.09,1.34.84,2.63,1.76,3.93,2.65a1.22,1.22,0,0,1,.67,1.26,1.12,1.12,0,0,1-1.84.73c-1.13-.73-2.24-1.5-3.35-2.26-1.36-.93-1.34-.92-2.26.45-.26.39-.13.52.18.73,1.36.91,2.72,1.84,4.07,2.77a3,3,0,0,0,3.27.3A3.59,3.59,0,0,0,19.78,24.53Zm3-2.85A8.2,8.2,0,0,1,23.79,21c.57-.28.77-.65.47-1.24-.2-.4-.05-.65.32-.87A14.53,14.53,0,0,0,26,18c.26-.18.46-.19.65.05a.94.94,0,0,0,1.58,0,2,2,0,0,1,.52-.35c.51-.25.4-.44,0-.72-2.13-1.55-4.26-3.1-6.36-4.69a.9.9,0,0,0-1.2,0c-.67.39-.87.81-.55,1.51a3.87,3.87,0,0,1,.17.67q.83,3.4,1.66,6.81C22.52,21.38,22.48,21.6,22.74,21.68ZM7,32.55a3,3,0,0,0,2,2.92,14.14,14.14,0,0,0,3.05.8,3,3,0,0,0,3.44-1.93,3.12,3.12,0,0,0-1.14-4c-.51-.39-.59-.35-.77.28-.08.31-.14.62-.24.92a.69.69,0,0,0,.22.87,1,1,0,0,1,.17,1.22.91.91,0,0,1-1,.59,10,10,0,0,1-3.34-.89A.9.9,0,0,1,9,32.35c0-.44.21-.89.68-1s.65-.42.73-.85a5.57,5.57,0,0,1,.22-.8c.17-.46.09-.62-.45-.59A3.27,3.27,0,0,0,7,32.55Zm3.07,8.52a1.14,1.14,0,0,0-1.16-1.16,1.18,1.18,0,0,0-1.15,1.18,1.16,1.16,0,0,0,1.14,1.12A1.13,1.13,0,0,0,10.09,41.07Zm2.27,11.61a2.64,2.64,0,0,0-.25-.78c-.15-.51-.39-.67-.89-.35a9,9,0,0,1-1.14.52c-.84.38-.84.38-.46,1.18l.14.29c.17.33.48.6.8.43a9.9,9.9,0,0,1,1.58-.74C12.34,53.16,12.37,52.89,12.36,52.68ZM43,72c.09-.14-.21-.42.14-.55s.44.13.58.35.17.24.24.37.3.45.54.26-.12-.33-.17-.51-.52-.41-.22-.75a.8.8,0,0,0,0-1.22,2.4,2.4,0,0,0-1.65,0,.31.31,0,0,0-.08.29c.09.75.17,1.5.25,2.25,0,.15.09.24.25.22s.17-.11.17-.23S43,72.19,43,72Zm-7.9-1.73a.75.75,0,0,0-.53-.73c-.3-.09-.61-.13-.92-.21s-.37,0-.41.3c-.09.54-.24,1.08-.3,1.62,0,.26-.35.7.07.79s.2-.44.34-.66,0-.37.24-.37a.4.4,0,0,1,.45.36c0,.24.15.48.21.72s.17.32.35.28.1-.27.06-.39c-.13-.46-.35-.9.27-1.2C35.06,70.71,35,70.46,35.06,70.28ZM14.25,58.34A.81.81,0,0,0,15,58a.77.77,0,0,0,0-.89c-.13-.23-.3-.45-.44-.69s-.32-.31-.59-.1-.87.58-1.28.91c-.21.18-.76.26-.54.6s.48-.18.75-.24.26-.24.43,0a.37.37,0,0,1,.09.46c-.11.21-.22.41-.34.61s-.27.47,0,.6.26-.22.38-.35S13.65,58.1,14.25,58.34Zm2.3,4.46c.26,0,.89-.38.93-.58s-.25-.41-.4-.6-.17-.21-.31-.1-.08.21,0,.31.21.23.07.38a.48.48,0,0,1-.46.15.54.54,0,0,1-.42-.84,2.47,2.47,0,0,1,.46-.51c.25-.21.48-.54.87-.4s.45.45.36.83a.24.24,0,0,0,.17.3c.14,0,.19-.13.23-.25a1,1,0,0,0-.33-1.08.87.87,0,0,0-1.16-.08,6.22,6.22,0,0,0-.91.87.83.83,0,0,0-.09,1A1,1,0,0,0,16.55,62.8Zm18.68,8.6a1.12,1.12,0,0,0,.39,1c.42.36,1,0,1.42.3,0,0,.11-.09.11-.12-.13-.64.25-1.22.19-1.84a1,1,0,0,0-.89-1,.92.92,0,0,0-1.08.75A6.31,6.31,0,0,0,35.23,71.4Zm5-.11c0,.23,0,.46,0,.69.06.94-.09.84.89.78.3,0,.88.19.87-.24s-.55-.12-.86-.13-.47,0-.48-.4.11-.43.43-.46.69.17.68-.19-.46-.16-.71-.17-.42,0-.43-.37.06-.48.4-.47.42,0,.63,0,.31,0,.29-.22-.16-.16-.29-.17C40.26,69.78,40.13,69.9,40.23,71.29ZM26.28,69.9a.92.92,0,0,0,.65-.09,2.49,2.49,0,0,0,.87-1.87c-.14-.68-.79-.74-1.26-1-.19-.11-.27,0-.34.17-.31.67-.61,1.34-.92,2-.09.19-.08.33.12.41A5.73,5.73,0,0,0,26.28,69.9Zm3,.87c-.2-.23-.53-.26-.8-.38a.46.46,0,0,1-.17-.8c.24-.21.46.06.69.09s.37.26.48,0-.22-.23-.35-.32a.58.58,0,0,0-.23-.09c-.28-.09-.42-.21-.29-.55s.31-.34.58-.22l.59.22c.12,0,.25.1.31-.07s0-.24-.16-.29c-.4-.15-.79-.28-1.18-.44s-.33.08-.4.26c-.24.65-.47,1.3-.72,1.95-.08.21-.1.35.14.44.4.15.79.29,1.18.45C29.12,71.06,29.21,71,29.26,70.77Zm-11-6.24a.93.93,0,0,0,.37-.1,8.84,8.84,0,0,0,1.44-1.49c.08-.09.05-.19-.05-.27s-.23-.05-.32,0l-1,1.13a.56.56,0,0,1-.88.09c-.32-.29-.22-.6,0-.88l1-1.08c.1-.11.2-.23,0-.37s-.26,0-.36.08c-.37.41-.75.8-1.1,1.23a.87.87,0,0,0-.09,1A1.08,1.08,0,0,0,18.3,64.53Zm-3.41-3.59a.71.71,0,0,0,.28-.06,11.16,11.16,0,0,0,1.6-1.23c.1-.07.09-.17,0-.27s-.25-.07-.37,0l-1.13.92a.58.58,0,0,1-.89,0c-.29-.34-.13-.63.16-.87l1.12-.91c.13-.1.24-.19.11-.36s-.24-.09-.37,0c-.43.36-.89.71-1.3,1.09a.84.84,0,0,0-.18,1A1.05,1.05,0,0,0,14.89,60.94ZM9.75,51.6,11.46,51a.18.18,0,0,0,.12-.29c-.07-.17-.19-.14-.31-.09l-1.3.46c-.4.15-.77.19-.94-.3s.15-.65.52-.78l1.31-.47c.14-.06.28-.12.19-.32a.19.19,0,0,0-.25-.13A18,18,0,0,0,9,49.8a.84.84,0,0,0-.33,1.11A1,1,0,0,0,9.75,51.6Zm2.31,5.25A6.94,6.94,0,0,0,13.79,56c.13-.07.36-.13.23-.36s-.32-.07-.47,0c-.35.19-.69.39-1,.6s-.72.36-1-.08.05-.73.42-.94l1.14-.66c.12-.07.21-.16.13-.31a.19.19,0,0,0-.31-.08c-.54.32-1.1.61-1.61,1a.85.85,0,0,0-.21,1A1.06,1.06,0,0,0,12.06,56.85ZM32.38,71.64c-.06-.77-.13-1.51-.19-2.24,0-.17,0-.36-.2-.43s-.29.11-.39.25c-.42.6-.85,1.2-1.27,1.81-.07.11-.24.23-.07.37s.26,0,.39-.07a.76.76,0,0,1,1.3.34c.06.16.13.27.3.26S32.38,71.73,32.38,71.64Zm7.35-.55c0-.21,0-.42,0-.63s.11-.43-.19-.45-.24.23-.25.4c0,.42,0,.85,0,1.27s-.15.74-.61.71a.63.63,0,0,1-.65-.74,4.82,4.82,0,0,1,.12-1.36c0-.11.07-.31-.14-.35s-.26.08-.27.26c0,.57-.07,1.14,0,1.7a1,1,0,0,0,1,.9.9.9,0,0,0,1-.89C39.72,71.64,39.72,71.36,39.73,71.09Zm-19.56-5a.27.27,0,0,0,.2.39c.16,0,.17-.14.21-.26l.69-2.16c.05-.14.11-.28,0-.41s-.32,0-.45.06c-.63.39-1.25.77-1.87,1.17-.11.07-.32.12-.23.31s.25.14.43.07A.79.79,0,0,1,20.17,66.08Zm25.67,5.71c0,.16-.16.37.12.43a.26.26,0,0,0,.28-.19c.33-.69.78-.79,1.37-.3a.28.28,0,0,0,.34.06c.16-.09.07-.22,0-.32l-1.26-2c-.08-.12-.14-.27-.33-.22s-.21.23-.23.4C46,70.39,45.94,71.1,45.84,71.79ZM9,45.11a9.81,9.81,0,0,0-1,.26.85.85,0,0,0-.59.81,1,1,0,0,0,.47,1c.15.09.38.23.51.06s-.07-.32-.25-.4a.56.56,0,0,1-.34-.61.6.6,0,0,1,.47-.46,3.89,3.89,0,0,1,.49-.12c.34-.07.72-.22,1,.16s.1.59-.16.84a.24.24,0,0,0,0,.34c.12.11.23,0,.33-.09a1,1,0,0,0,.26-1.09C10,45.32,9.7,45.1,9,45.11ZM44.9,14.89a.91.91,0,1,0-1.82,0,.92.92,0,0,0,.92.91A.9.9,0,0,0,44.9,14.89ZM16,29.12a.92.92,0,1,0,0,1.84.92.92,0,1,0,0-1.84Zm4.8-7.29a.93.93,0,1,0,.89.94A.92.92,0,0,0,20.77,21.83ZM10.54,47.41c-.06-.22-.23-.19-.4-.14l-1.45.4c-.94.27-.95.27-.66,1.22.08.25,0,.76.37.67s.07-.51,0-.74c-.15-.45-.05-.64.41-.74s1-.26,1.46-.4C10.39,47.64,10.56,47.64,10.54,47.41Zm34.1,22.48c.13.74.25,1.49.37,2.23,0,.15.1.23.25.22s.21-.16.18-.32l-.36-2.17c0-.14,0-.31-.25-.29S44.61,69.73,44.64,69.89Zm-.07-.57c.48-.1.5-.38.57-.6s-.09-.13-.18-.1C44.63,68.71,44.76,69,44.57,69.32Z"/><path class="cls-6" d="M45.59,22.25c.63.08.9.64,1.3,1a22.71,22.71,0,0,1,5,6.41,20.86,20.86,0,0,1,2,5.44,15.43,15.43,0,0,1,.49,3.57,1.65,1.65,0,0,1-1.49.64,10.77,10.77,0,0,0-1.27,0,8.68,8.68,0,0,1-2.68-.21,7.16,7.16,0,0,0-4.16.38,1.8,1.8,0,0,1-.92.08,13.13,13.13,0,0,0-4.84,0,.75.75,0,0,1-.55,0A6.15,6.15,0,0,0,35.09,39a2.21,2.21,0,0,1-.63,0c-.19,0-.45-.21-.35-.36.46-.76.32-1.69.91-2.46,3.48-4.52,6.89-9.1,10.32-13.66A3.07,3.07,0,0,1,45.59,22.25Z"/><path class="cls-6" d="M54.47,41.23a1.16,1.16,0,0,1,.08.91,39.46,39.46,0,0,1-1.15,5.43,23.88,23.88,0,0,1-4.73,8.26c-.71.84-1.59,1.55-2.37,2.32a1.77,1.77,0,0,1-.54.29c-3-4.06-5.92-8.13-8.9-12.18-.3-.4-.39-.65,0-1A7.12,7.12,0,0,0,38,43.79a1.09,1.09,0,0,1,1.14-.58,12.59,12.59,0,0,0,3.51-.32,5.41,5.41,0,0,1,1.45,0,11.73,11.73,0,0,0,5-.6,15.93,15.93,0,0,1,4.75-1C54.05,41.31,54.26,41.26,54.47,41.23Z"/><path class="cls-6" d="M31,9.82a.89.89,0,0,1,1,.87A1.4,1.4,0,0,1,30.4,11.8c-.62-.12-.64-.93-.61-1.35C29.85,9.82,30.66,10.07,31,9.82Z"/><path class="cls-6" d="M39.12,13.53a1,1,0,0,1-1.07-.87A10.68,10.68,0,0,1,38,9.57a1,1,0,0,1,1.11-1.05,1,1,0,0,1,1.08,1c.08.75.08,1.51.11,2.27,0,.19,0,.31-.31.24-.52-.1-.69.49-1,.77S39.13,13.19,39.12,13.53Z"/><path class="cls-6" d="M24.82,16.51c-1.15,1.06-1.15,1.06-1.53-.35a2.25,2.25,0,0,1-.17-1Z"/><path class="cls-6" d="M10.4,52.35c.36.16.41.48.47.77a.35.35,0,0,1-.35.43c-.47,0-.57-.4-.64-.72S10.24,52.56,10.4,52.35Z"/><path class="cls-6" d="M11.59,53c-.42-.05-.53-.42-.58-.73s.31-.35.49-.35c.39,0,.37.4.44.65S11.83,53,11.59,53Z"/><path class="cls-6" d="M42.8,70.58c0-.49.31-.38.55-.41s.56.1.53.45-.41.41-.72.44S42.87,70.76,42.8,70.58Z"/><path class="cls-6" d="M34.07,70.73c-.18-.12-.62.08-.56-.37,0-.21-.06-.63.4-.56s.71.06.7.53S34.36,70.72,34.07,70.73Z"/><path class="cls-6" d="M14.74,57.48c-.06.28-.2.46-.48.42a.73.73,0,0,1-.6-.65c0-.27.35-.49.57-.46S14.63,57.21,14.74,57.48Z"/><path class="cls-6" d="M36.89,71c-.17.21.26.86-.51.75a.14.14,0,0,0-.08.09c0,.17.18.46-.23.35a.51.51,0,0,1-.4-.56,7.34,7.34,0,0,1,.08-.82c0-.36.19-.66.62-.64S36.92,70.55,36.89,71Z"/><path class="cls-6" d="M27.38,68.23a3.22,3.22,0,0,1-.54,1.1c-.28.33-.61.14-.91,0s-.06-.4,0-.57a4.48,4.48,0,0,1,.4-.86c.1-.18.07-.57.47-.4S27.43,67.77,27.38,68.23Z"/><path class="cls-6" d="M23.49,68a.58.58,0,0,1-.5-.46,2.14,2.14,0,0,1,.84-1.45.51.51,0,0,1,.65.21.65.65,0,0,1,.1.36C24.55,67.17,23.86,68,23.49,68Z"/><path class="cls-6" d="M23.33,65.72c0-.07-.07-.14,0-.19s.18,0,.23.06S23.5,65.84,23.33,65.72Z"/><path class="cls-6" d="M31.76,69.78c0,.35.32.72,0,1a.6.6,0,0,1-.5-.13C31.14,70.26,31.58,70.09,31.76,69.78Z"/><path class="cls-6" d="M20.74,64.27c-.08.41-.07.78-.4,1-.07.05-.48-.26-.47-.33C20,64.54,20.36,64.46,20.74,64.27Z"/><path class="cls-6" d="M46.49,70.08c.27.12.32.37.45.55s.25.26.09.37a.83.83,0,0,1-.53.13c-.21,0-.12-.23-.11-.36S46.45,70.32,46.49,70.08Z"/></g></g></g></svg>