<svg xmlns="http://www.w3.org/2000/svg" viewBox="0 0 602.83 414.57"><defs><style>.cls-1{fill:#1d2024;}.cls-2,.cls-4{opacity:0.33;}.cls-3,.cls-4{fill:#fff;}.cls-3{stroke:#fff;stroke-miterlimit:10;}</style></defs><g id="Layer_2" data-name="Layer 2"><g id="Layer_3" data-name="Layer 3"><rect class="cls-1" width="602.83" height="414.57"/><g class="cls-2"><path class="cls-3" d="M170.34,373.45a13.56,13.56,0,0,1-3.09-1.05,13.32,13.32,0,0,1-2.68-1.76l2.23-2.74a10.22,10.22,0,0,0,3.22,1.89,11,11,0,0,0,3.82.64,7.7,7.7,0,0,0,4.3-1,3.31,3.31,0,0,0,1.53-2.91v0a3.09,3.09,0,0,0-.69-2.12,4.25,4.25,0,0,0-1.8-1.16,19.9,19.9,0,0,0-2.83-.69l-.12,0a.2.2,0,0,1-.11,0l-.27,0a26.87,26.87,0,0,1-4.17-1,5.94,5.94,0,0,1-2.75-2,6.69,6.69,0,0,1-1.14-4.18v0a7.41,7.41,0,0,1,1.06-4.05,6.7,6.7,0,0,1,3.1-2.56,12.5,12.5,0,0,1,4.91-.87,12.74,12.74,0,0,1,2.69.29,13.5,13.5,0,0,1,2.62.89,14.75,14.75,0,0,1,2.54,1.49l-2,2.85a11.43,11.43,0,0,0-2.91-1.61,8.22,8.22,0,0,0-2.9-.54,6.82,6.82,0,0,0-4.07,1.05,3.41,3.41,0,0,0-1.45,3v0a2.81,2.81,0,0,0,.74,2.07,4.57,4.57,0,0,0,1.87,1.12,26.14,26.14,0,0,0,3.1.74l.13,0a.61.61,0,0,1,.13,0l.2,0,.19,0a21.07,21.07,0,0,1,3.88,1.12,6.2,6.2,0,0,1,2.6,2.1,6.73,6.73,0,0,1,1,4v0a7.11,7.11,0,0,1-1.1,4,6.9,6.9,0,0,1-3.21,2.53,13.23,13.23,0,0,1-5.07.87A17.09,17.09,0,0,1,170.34,373.45Z"/><path class="cls-3" d="M188,348h3.58v25.56H188Zm1.74,0h14.68v3.41H189.71Zm0,11.16h12.74v3.41H189.71Zm0,11h14.68v3.41H189.71Z"/><path class="cls-3" d="M209.48,348h3.26l12.49,19.76-.42.45V348h3.55v25.54h-3.28l-12.47-19.46.43-.46v19.92h-3.56Z"/><path class="cls-3" d="M238.28,373.54h-3.59V348h3.59Z"/><path class="cls-3" d="M248.35,372.63a8,8,0,0,1-3.16-3.3,10.62,10.62,0,0,1-1.11-4.95v-7.24a10.56,10.56,0,0,1,1.11-4.95,8.07,8.07,0,0,1,3.16-3.31,10.14,10.14,0,0,1,9.42,0,8.07,8.07,0,0,1,3.16,3.31,10.56,10.56,0,0,1,1.11,4.95v7.24a10.62,10.62,0,0,1-1.11,4.95,8,8,0,0,1-3.16,3.3,10.07,10.07,0,0,1-9.42,0Zm7.5-3.07a4.82,4.82,0,0,0,1.86-2,6.63,6.63,0,0,0,.66-3V357a6.69,6.69,0,0,0-.66-3,4.85,4.85,0,0,0-1.86-2,5.84,5.84,0,0,0-5.58,0,4.85,4.85,0,0,0-1.86,2,6.69,6.69,0,0,0-.66,3v7.49a6.63,6.63,0,0,0,.66,3,4.82,4.82,0,0,0,1.86,2,5.84,5.84,0,0,0,5.58,0Z"/><path class="cls-3" d="M267.49,348h3.59v25.58h-3.59Zm1.57,11.36h8.72a3.37,3.37,0,0,0,1.81-.5,3.25,3.25,0,0,0,1.22-1.39,5.27,5.27,0,0,0,0-4.17,3.27,3.27,0,0,0-1.22-1.4,3.38,3.38,0,0,0-1.81-.49h-8.72V348h8.57a8,8,0,0,1,3.9.92,6.42,6.42,0,0,1,2.6,2.59,8,8,0,0,1,.92,3.87,7.87,7.87,0,0,1-.93,3.88,6.44,6.44,0,0,1-2.61,2.59,8,8,0,0,1-3.88.92h-8.57Zm7,2.62,3.57-.81,6.53,12.41h-4.25Z"/><path class="cls-3" d="M302.42,362.67v3.41H290.61v-3.41Z"/><path class="cls-3" d="M326.59,348H330v25.56h-3.5V354.4l.17,1.12L320.33,370h-2.49l-6.3-14.12.18-1.47v19.14h-3.5V348h3.36l7.5,16.87Z"/><path class="cls-3" d="M342.88,348h3.06l9.43,25.56H351.5l-7.09-20.62-7.08,20.62h-3.87Zm-5.08,16.54h13.45v3.41H337.8Z"/><path class="cls-3" d="M362,373.45a12.79,12.79,0,0,1-5.77-2.81l2.24-2.74a10.07,10.07,0,0,0,3.21,1.89,11.06,11.06,0,0,0,3.82.64,7.7,7.7,0,0,0,4.3-1,3.31,3.31,0,0,0,1.53-2.91v0a3.09,3.09,0,0,0-.69-2.12,4.22,4.22,0,0,0-1.79-1.16,20.44,20.44,0,0,0-2.84-.69l-.12,0a.2.2,0,0,1-.11,0l-.26,0a26.75,26.75,0,0,1-4.18-1,5.94,5.94,0,0,1-2.75-2,6.69,6.69,0,0,1-1.14-4.18v0a7.41,7.41,0,0,1,1.06-4.05,6.7,6.7,0,0,1,3.1-2.56,12.5,12.5,0,0,1,4.91-.87,12.9,12.9,0,0,1,2.7.29,13.64,13.64,0,0,1,2.61.89,14.39,14.39,0,0,1,2.54,1.49l-2,2.85a11.77,11.77,0,0,0-2.91-1.61,8.31,8.31,0,0,0-2.91-.54,6.82,6.82,0,0,0-4.07,1.05,3.41,3.41,0,0,0-1.45,3v0a2.85,2.85,0,0,0,.74,2.07,4.57,4.57,0,0,0,1.87,1.12,26.64,26.64,0,0,0,3.1.74l.13,0a.61.61,0,0,1,.13,0l.2,0,.19,0a21.07,21.07,0,0,1,3.88,1.12,6.2,6.2,0,0,1,2.6,2.1,6.66,6.66,0,0,1,1,4v0a7,7,0,0,1-1.1,4,6.9,6.9,0,0,1-3.21,2.53,13.23,13.23,0,0,1-5.07.87A17.09,17.09,0,0,1,362,373.45Z"/><path class="cls-3" d="M376.48,348h18v3.41h-18Zm7.22,2.09h3.59v23.47H383.7Z"/><path class="cls-3" d="M398,348h3.58v25.56H398Zm1.74,0h14.68v3.41H399.77Zm0,11.16h12.74v3.41H399.77Zm0,11h14.68v3.41H399.77Z"/><path class="cls-3" d="M419.54,348h3.59v25.58h-3.59Zm1.57,11.36h8.72a3.35,3.35,0,0,0,1.81-.5,3.25,3.25,0,0,0,1.22-1.39,5.27,5.27,0,0,0,0-4.17,3.32,3.32,0,0,0-1.21-1.4,3.44,3.44,0,0,0-1.82-.49h-8.72V348h8.58a8,8,0,0,1,3.89.92,6.36,6.36,0,0,1,2.6,2.59,8.58,8.58,0,0,1,0,7.75,6.44,6.44,0,0,1-2.61,2.59,8,8,0,0,1-3.87.92h-8.58Zm7,2.62,3.57-.81,6.54,12.41h-4.26Z"/></g><path class="cls-4" d="M416.18,86.11c-1-6.16-8.95-7.54-14.22-7.78-6.8-.29-13.51-.44-20.37-.91A2.85,2.85,0,0,1,378.88,74l4.18-18.55A2.79,2.79,0,0,0,380.32,52H235.87a2.82,2.82,0,0,0-2.74,3.44l4.24,18.66a2.82,2.82,0,0,1-2.8,3.42c-10.8-.09-19-.53-27.11.47a7.41,7.41,0,0,0-3.92,1.71c-3.53,3-3.68,6.27-3.68,10,0,7.39.71,14.86,1.24,22.16.94,13,3.94,26.41,14.48,35,7.92,6.44,15.34,13.33,22.55,20.37a70.88,70.88,0,0,0,49.61,55.9c.2,12.07.09,24.2.09,36.54a2.9,2.9,0,0,1-2.51,2.82c-11.42,1.56-26.17-3.26-25.55,13.28a4.59,4.59,0,0,1-3.8,4.65l-7.8,1.21a2.78,2.78,0,0,0-2.29,2.18C241.81,302.66,243.4,304,262.33,304q45.71,0,91.38,0c19.11,0,20.61-1.23,16.63-20.07a2.81,2.81,0,0,0-2.29-2.21l-10.19-1.68a2.81,2.81,0,0,1-2.32-3c1.79-18.55-13.25-12.81-24.44-14.37a2.82,2.82,0,0,1-2.41-2.94c.5-12-2.42-24.11-.56-36.09a1.83,1.83,0,0,1,.09-.39,70.91,70.91,0,0,0,50-56.81c1.5-1.39,3-2.71,4.5-4,3.8-3.3,7.77-6.36,11.75-9.45,5.18-4,9.77-8.48,12.33-14.57,3.36-8,4.62-16.66,6-25.08,1.29-7.83,2.56-15.69,3.38-23.58A14.62,14.62,0,0,0,416.18,86.11ZM236,138a2.84,2.84,0,0,1-4.65,2.15c-13.33-11.1-12.63-26.62-14.78-42a2.83,2.83,0,0,1,2.77-3.24h13.84A2.79,2.79,0,0,1,236,97.73Zm148.26,2.65a2.82,2.82,0,0,1-4.74-2.06V98.23a2.79,2.79,0,0,1,2.8-2.79h14a2.81,2.81,0,0,1,2.79,3C398,113.57,397.75,128.7,384.3,140.66Z"/></g></g></svg>