<svg xmlns="http://www.w3.org/2000/svg" viewBox="0 0 736.91 717.38"><defs><style>.cls-1{opacity:0.36;}.cls-2{fill:#fff;stroke:#fff;stroke-miterlimit:10;opacity:0.38;}</style></defs><g id="Layer_2" data-name="Layer 2"><g id="Layer_2-2" data-name="Layer 2"><g class="cls-1"><path class="cls-2" d="M369.76,195.32c88.3.46,158.55,71.82,158.57,160.09,0,88.12-71.1,159.81-158.49,159.83-88.06,0-159.1-71.55-159-160.24C210.84,266.79,282,195.35,369.76,195.32Zm-1.47,19.37c-30.33.49-59.19,9.33-84.88,27.86-20,14.41-35.54,32.64-45.75,55.09-12.12,26.66-15.72,54.48-10.17,83.39A136.46,136.46,0,0,0,261,447.92c19.63,21.72,43.84,36,72.22,43.26,29.59,7.53,58.89,6.16,87.41-4.51,38-14.21,65.78-39.72,82.16-77a131.92,131.92,0,0,0,7.11-88.11c-9-34.95-29-62.42-59-82.38C426.27,222.8,399,215,368.29,214.69Z"/><path class="cls-2" d="M659.69,358.12a296.72,296.72,0,0,1-10.46,77.33c-.74,2.72-1.6,3.38-4.42,2.48q-11.55-3.69-23.3-6.71c-2.82-.73-2.84-1.9-2.14-4.28A243.4,243.4,0,0,0,629,348.17c-4.6-110.69-80.69-202.93-185.1-233.4a261.76,261.76,0,0,0-71.85-10.61c-2.31,0-2.75-.68-2.73-2.84.12-10.15.15-20.31,0-30.46-.05-2.59.67-3.14,3.18-3.1,60.07,1.06,115,18.35,164,53.08,59.7,42.32,98,99.48,115.4,170.5A279.51,279.51,0,0,1,659.69,358.12Z"/><path class="cls-2" d="M161.12,558.56C81.7,475.39,58.7,352.71,102.61,247c1.43-3.45,2.64-4.14,6.08-2.49,7.06,3.4,14.28,6.52,21.59,9.35,2.95,1.14,2.67,2.37,1.74,4.73a251.41,251.41,0,0,0-16.14,122.7c5.66,49.22,23.92,93.35,54.41,132.37a261.16,261.16,0,0,0,107,81.39c2.21.92,2.55,1.72,1.67,3.93q-5.47,13.8-10.55,27.75c-.82,2.26-1.74,2.22-3.69,1.44a292.27,292.27,0,0,1-103.59-69.62Z"/><path class="cls-2" d="M15.63,353.52c-3.93,0-7.86-.1-11.78,0-2.37.09-3.34-.52-3.35-3.14a327.33,327.33,0,0,1,3.57-47.66,354.08,354.08,0,0,1,16.32-67,361.66,361.66,0,0,1,50.9-96.21,365.59,365.59,0,0,1,79.63-78.71,371.37,371.37,0,0,1,81.35-44.6A384.68,384.68,0,0,1,276.26,2c2.78-.73,4.16-.27,4.86,2.68C283,12.39,285,20.1,287,27.8c.61,2.29-.21,3.07-2.39,3.63A342.66,342.66,0,0,0,182.87,76.05a335.48,335.48,0,0,0-65.75,55.86,329.6,329.6,0,0,0-58,89.17,332.31,332.31,0,0,0-28,129.25c0,2.55-.87,3.31-3.3,3.23C23.74,353.41,19.68,353.52,15.63,353.52Z"/><path class="cls-2" d="M370.17,701.73c0,3.8-.22,7.62.07,11.4.24,3.18-1.05,3.77-3.91,3.75A379.92,379.92,0,0,1,204.39,678.4,365.27,365.27,0,0,1,130.18,630,370.69,370.69,0,0,1,53,540.38c-1.73-2.8-3.27-5.71-4.92-8.56-.89-1.52-1.07-2.65.85-3.68,7.37-3.93,14.68-8,22-12,2.31-1.28,3.37-.17,4.47,1.74a326.27,326.27,0,0,0,31.84,45.71,335.44,335.44,0,0,0,74.4,66.55,339.69,339.69,0,0,0,90.94,42.18,329.25,329.25,0,0,0,68.56,12.79c8.72.67,17.43,1.44,26.18,1.29,2.46,0,3,1,2.91,3.18C370.08,693.62,370.17,697.68,370.17,701.73Z"/><path class="cls-2" d="M179.53,363.18c-7.08-1.7-13.85-3.38-20.65-4.93-1.83-.42-1.31-1.71-1.31-2.77-.08-20.37,2.37-40.46,8.65-59.83,25-77.17,77.22-125.78,155.73-145.74,29.08-7.4,58.64-7.26,88.14-1.63,1.69.33,2.65.51,1.26,2.49-3.7,5.28-7.32,10.62-10.81,16-1,1.59-2.25,1.74-3.81,1.48a171.59,171.59,0,0,0-28.29-1.92c-32.27.08-62.66,7.74-90.76,23.46-49.87,27.91-81.16,70-94.07,125.65a158.11,158.11,0,0,0-4.09,38.69C179.57,357.07,179.53,360,179.53,363.18Z"/><path class="cls-2" d="M699.73,189c-.1,1.35-1,1.65-1.77,2.05-7.49,3.71-15,7.4-22.45,11.14-2,1-3.09.75-4.21-1.38A329.47,329.47,0,0,0,576.79,89.58,333.91,333.91,0,0,0,470.05,35.5c-6.18-1.85-12.38-3.61-18.65-5.13-2.8-.68-3.25-1.72-2.51-4.47,1.94-7.19,3.59-14.47,5.13-21.77C454.73.79,456.07,0,459.51.82A374,374,0,0,1,585.21,58a365.8,365.8,0,0,1,97.26,101A319.94,319.94,0,0,1,699,187.57C699.28,188.12,699.55,188.68,699.73,189Z"/><path class="cls-2" d="M621.68,625c-1.33.28-1.86-.48-2.46-1.13-5.63-6.17-11.25-12.35-16.92-18.5-1.47-1.59-1.57-2.76.17-4.42a329.57,329.57,0,0,0,80.8-121.58,333.9,333.9,0,0,0,22.47-117.53c.06-6.45,0-12.9-.22-19.34-.13-2.88.75-3.61,3.6-3.65,7.45-.13,14.9-.55,22.33-1.09,3.41-.24,4.58.81,4.71,4.36a374.19,374.19,0,0,1-20.23,136.62,365.77,365.77,0,0,1-70.19,121.39,320.55,320.55,0,0,1-22.86,23.77Z"/><path class="cls-2" d="M581.81,355.42C578.4,436,543.18,497.7,473.06,538.88c-2.2,1.29-3.1,1.24-4-1.36-1.83-5.15-4-10.21-6.16-15.23-.77-1.78-.45-2.59,1.22-3.52a184.51,184.51,0,0,0,51.14-42.4,187.14,187.14,0,0,0,41.15-86.32,189.77,189.77,0,0,0,2.38-53.92,169.59,169.59,0,0,0-7.7-37.12c-.63-1.95-.37-2.73,1.61-3.44,5.15-1.85,10.29-3.8,15.29-6,2.4-1.07,3-.36,3.72,1.85A222.25,222.25,0,0,1,581.81,355.42Z"/><path class="cls-2" d="M327.58,563.52c-78.07-20-131.17-67.31-156.9-144.45-.81-2.42-.57-3.29,2.16-3.65,5.43-.73,10.82-1.77,16.18-2.87,1.9-.39,2.63.1,3.19,1.92a184.5,184.5,0,0,0,30.87,58.82A187,187,0,0,0,299,531.46,189.69,189.69,0,0,0,351.24,545a169.71,169.71,0,0,0,37.9.17c2-.22,2.75.21,3,2.28.75,5.43,1.59,10.86,2.73,16.22.54,2.57-.27,3-2.58,3.25A221.82,221.82,0,0,1,327.58,563.52Z"/><path class="cls-2" d="M368.74,327.84A29.73,29.73,0,0,0,351.92,333a28.19,28.19,0,0,0-9.08,36.39A31.22,31.22,0,0,0,362,384.8c10.74,3.27,23.64-.4,30.82-9,5.83-7,8-15.08,6.08-24A30.48,30.48,0,0,0,368.74,327.84Z"/><path class="cls-2" d="M305.5,355.26A62.23,62.23,0,0,1,316,321.05c1.82-2.81,1.83-2.81,4.51-.83s2.85,2.09.95,5a52.42,52.42,0,0,0-9,32.71c.87,15.33,7.2,28.22,18.46,38.65A54.27,54.27,0,0,0,349,407.8c.95.35,1.39.66.86,1.79a32.86,32.86,0,0,0-1.78,4.89c-.4,1.37-1.11,1.09-2.05.72a61.71,61.71,0,0,1-17.67-10.53,63.65,63.65,0,0,1-20.88-33.05A60.69,60.69,0,0,1,305.5,355.26Z"/><path class="cls-2" d="M369.28,300.65l-.61,0c-4.45-.1-4.45-.1-4.69-4.7-.16-2.87-.16-3,2.72-3.06a64.88,64.88,0,0,1,62.38,40.26,65.51,65.51,0,0,1,4.45,18.67c.16,1.54-.21,2.24-1.91,2.06s-3.64.73-4.64-.22-.48-2.89-.76-4.39c-3.11-17.21-12-30.53-26.88-39.81A57.31,57.31,0,0,0,369.28,300.65Z"/><path class="cls-2" d="M371.43,460.83h-9.95c-2,0-2.67-.91-2.35-3,.9-5.75.82-5.86,6.56-5.57A98.88,98.88,0,0,0,417.74,441,92.67,92.67,0,0,0,446,418a94.88,94.88,0,0,0,14.89-24.73c.77-1.9,1.77-2.23,3.57-1.63,6.09,2,6.07,2,3.46,7.92a99.9,99.9,0,0,1-25.85,35.4,103.23,103.23,0,0,1-49,24.09A84.57,84.57,0,0,1,371.43,460.83Z"/><path class="cls-2" d="M468.64,342.64c-1.59.46-2.31-.26-2.7-2.14-5-24.6-17.7-44.41-37.62-59.58a86.38,86.38,0,0,0-22.84-12.75c-2.17-.78-2.81-1.67-1.81-4,2.48-5.67.72-6.41,7.92-3.2a109.32,109.32,0,0,1,45.08,36.25,99.32,99.32,0,0,1,17.19,38c0,.18.09.35.14.53C475.68,342,475.46,342.34,468.64,342.64Z"/><path class="cls-2" d="M263.68,368.42s-.09-.54.11-.66c2.23-1.39,4.82-.71,7.23-1.11,1.4-.24,1.43,1.27,1.59,2.17A114.49,114.49,0,0,0,277.33,387a97.56,97.56,0,0,0,25.77,38.69,115.7,115.7,0,0,0,11,8.8c1.39,1,1.88,1.76.8,3.31-4.51,6.46-2.75,6.28-9.42,1.35a105.06,105.06,0,0,1-31.2-36.76,101.47,101.47,0,0,1-10.49-32.73C263.74,369.35,263.73,369.08,263.68,368.42Z"/></g></g></g></svg>