<svg xmlns="http://www.w3.org/2000/svg" viewBox="0 0 246.82 246.82"><defs><style>.cls-1{fill:#6d960e;}.cls-2{fill:#1e1e21;}.cls-3,.cls-4{fill:none;stroke:#6d960e;stroke-miterlimit:10;}.cls-3{stroke-width:12px;}.cls-4{stroke-width:8px;}</style></defs><g id="Layer_2" data-name="Layer 2"><g id="Layer_2-2" data-name="Layer 2"><path class="cls-1" d="M200.38,219.89a123.45,123.45,0,0,1-152.69,1l22.06-35.58c15.31,13.57,33.34,21,54.73,21s39.28-7.38,54.56-20.86Z"/><path class="cls-1" d="M246.82,123.41A123,123,0,0,1,213.25,208q-2-3.86-4.26-7.59-8.34-14.06-16.79-28.05a1.46,1.46,0,0,1,.06-1.85A83.53,83.53,0,0,0,205,140c3.88-20.54.55-39.87-10.22-57.76C182,61,163,48.36,138.79,43.6a78.44,78.44,0,0,0-21.64-.88C100.1,44.11,85.28,50.89,72,61.42c-.84.68-1.65,1.41-2.57,2.2l25,24.94.08-.07-2.82-2.83a62.52,62.52,0,0,1,9.57-6.3,46.45,46.45,0,0,1,15.9-5.23A75.9,75.9,0,0,1,128,73.87c20.52.57,41.24,16.92,46.23,40.17a49.33,49.33,0,0,1,.72,13.34A50.52,50.52,0,0,1,134.5,174.2c-4.24.89-8.57.76-12.88.66-12.91-.29-23.61-5.67-32.74-14.49a47.47,47.47,0,0,1-13.66-23.7c-2.85-12.37-1.68-24.39,4.3-35.76.42-.79.78-1.61,1.25-2.36a1.56,1.56,0,0,0,.2-.45L58.49,75.62A88.43,88.43,0,0,0,44.4,106.45a83.31,83.31,0,0,0-1.82,19.66c.14,15.78,4.9,30.14,13.43,43.3a3.25,3.25,0,0,1,.06,4.09c-7,11.61-13.94,23.29-20.91,34.95a3.47,3.47,0,0,0-.38.84,123.43,123.43,0,0,1-8-162.62c1.07-1.35,2.16-2.67,3.29-4A126.18,126.18,0,0,1,42.82,29.94q1.91-1.65,3.88-3.22a123.43,123.43,0,0,1,200.12,96.69Z"/><path class="cls-2" d="M209.06,213.9a3.57,3.57,0,0,1-.89-.78l.26-.25Z"/><path class="cls-2" d="M81,98.1,58.49,75.62a0,0,0,0,0,0,0,3.7,3.7,0,0,1,.32-.28c1.28,1.3,2.53,2.58,3.79,3.84q9,9,17.94,17.92C80.91,97.45,81.06,97.73,81,98.1Z"/><path class="cls-2" d="M152.08,157.2c-18,15.34-42.86,11.62-56.56-1.2-17-15.85-16.56-38.6-8.72-52.08l.18-.32a1.18,1.18,0,0,1,.22.17q8.72,8.69,17.4,17.38a1.77,1.77,0,0,1,.41,1s0,.07,0,.1c.12,1.78,0,3.6.29,5.35A19.36,19.36,0,0,0,123,143.82c12.63,1.2,25.42-12,19.51-26.79a19.11,19.11,0,0,0-21.12-11.83,16.86,16.86,0,0,0-7.4,2.93l0,0,2,2c1.13,1.13,2.25,2.24,3.39,3.32l0,0a1.14,1.14,0,0,0,1,.07,11.88,11.88,0,0,1,5-.75,11.63,11.63,0,0,1,5.7,21.28c-1.7,1.1-1.78,1.07-3.17-.33L117.09,123l-1-1c-2-2-3.93-4-5.9-5.93Q99.4,105.19,88.63,94.37q-13.92-14-27.86-28a.61.61,0,0,0-.15-.12,2.09,2.09,0,0,0-1.1-.36c-4.18-.07-8.36-.11-12.53-.15a4.62,4.62,0,0,1-3.42-1.4c-4.35-4.36-8.77-8.64-13.11-13C29.13,50,28,48.43,26.75,47V45.63A6.5,6.5,0,0,0,27,45a2.9,2.9,0,0,1,3-2.32H30c2.93,0,5.87-.25,8.81-.36,1.13,0,2.27,0,3.58,0,0-1.25,0-2.27,0-3.29.11-3,.28-6.06.38-9.1,0-.12,0-.24,0-.36A2.71,2.71,0,0,1,44.73,27a3.46,3.46,0,0,1,2-.29,4.61,4.61,0,0,1,2.48,1.47q7.73,7.75,15.48,15.51a3.82,3.82,0,0,1,1.15,2.83q.07,6.4.17,12.82c0,.34,0,.79.16,1,1.07,1.12,2.2,2.19,3.31,3.28l25,24.94.08-.07,2.68,2.67c9.77-7.46,20.78-11,33.21-9.35s22.41,8.08,29.44,18.26C172.29,118.14,169.5,142.39,152.08,157.2Z"/><path class="cls-3" d="M171.51,124.39A46.88,46.88,0,1,1,84,101.07a45.18,45.18,0,0,1,4.61-6.61.28.28,0,0,1,.07-.09,46.57,46.57,0,0,1,5.77-5.81l.08-.07a46.88,46.88,0,0,1,77,35.9Z"/><circle class="cls-3" cx="124.63" cy="124.39" r="16.72"/><polyline class="cls-4" points="120.85 137.97 107.92 125.04 105.01 122.13 86.8 103.92 83.95 101.07 80.97 98.1"/><line class="cls-4" x1="58.49" y1="75.62" x2="56.61" y2="73.74"/><polygon class="cls-2" points="122.96 117.12 117.09 122.99 88.56 94.46 60.62 66.52 60.62 63.62 69.45 63.62 94.4 88.56 115.94 110.1 119.28 113.45 119.31 113.47 122.96 117.12"/><path class="cls-2" d="M213.25,208q-2.34,2.49-4.82,4.85l-.26.25q-3.75,3.54-7.79,6.77L179,185.46c-15.28,13.48-33.24,20.88-54.56,20.86s-39.42-7.46-54.73-21L47.69,220.87q-4.21-3.27-8.12-6.9-2.46-2.28-4.79-4.68a3.47,3.47,0,0,1,.38-.84c7-11.66,13.88-23.34,20.91-34.95a3.25,3.25,0,0,0-.06-4.09c-8.53-13.16-13.29-27.52-13.43-43.3a83.31,83.31,0,0,1,1.82-19.66A88.43,88.43,0,0,1,58.49,75.62L81,98.1a1.56,1.56,0,0,1-.2.45c-.47.75-.83,1.57-1.25,2.36-6,11.37-7.15,23.39-4.3,35.76a47.47,47.47,0,0,0,13.66,23.7c9.13,8.82,19.83,14.2,32.74,14.49,4.31.1,8.64.23,12.88-.66A50.52,50.52,0,0,0,175,127.38a49.33,49.33,0,0,0-.72-13.34c-5-23.25-25.71-39.6-46.23-40.17a75.9,75.9,0,0,0-10.88.26,46.45,46.45,0,0,0-15.9,5.23,62.52,62.52,0,0,0-9.57,6.3l2.82,2.83-.08.07-25-24.94c.92-.79,1.73-1.52,2.57-2.2,13.26-10.53,28.08-17.31,45.13-18.7a78.44,78.44,0,0,1,21.64.88C163,48.36,182,61,194.75,82.28,205.52,100.17,208.85,119.5,205,140a83.53,83.53,0,0,1-12.71,30.49,1.46,1.46,0,0,0-.06,1.85q8.43,14,16.79,28.05Q211.22,204.16,213.25,208Z"/><path class="cls-2" d="M209.06,213.9a3.57,3.57,0,0,1-.89-.78l.26-.25Z"/></g></g></svg>