<svg id="Capa_1" data-name="Capa 1" xmlns="http://www.w3.org/2000/svg" viewBox="0 0 299.07 77.07"><defs><style>.cls-1{fill:#f0ce00;}.cls-2{fill:#fff;}</style></defs><title>logo_1</title><path class="cls-1" d="M56.86,13.35A29.24,29.24,0,0,1,46.28,15.6h0c-0.61,0-1.23,0-1.82-.06A21.46,21.46,0,0,1,29,7.13L28.6,6.56h0l-0.42.57a21.48,21.48,0,0,1-15.45,8.4A29.27,29.27,0,0,1,.32,13.35L0,13.22V54.8A22.43,22.43,0,0,0,7.22,71.45a32.55,32.55,0,0,0,13.45,7.62,17.26,17.26,0,0,1,7.53,4.17l0.39,0.36h0L29,83.25a17.28,17.28,0,0,1,7.53-4.17A32.52,32.52,0,0,0,50,71.45,22.41,22.41,0,0,0,57.19,54.8V13.22Z" transform="translate(0 -6.55)"/><path d="M46.06,17.39c-0.63,0-1.19,0-1.38,0A25.24,25.24,0,0,1,28.59,9.95a22.79,22.79,0,0,1-15.14,7.42c-1.08.07-2.49,0.16-3.9,0.16A28,28,0,0,1,1.71,16.1V54.41A22.46,22.46,0,0,0,7,68.47V40.13h6.41V74a31.21,31.21,0,0,0,5.89,2.84V40.13h6.41V79a12.47,12.47,0,0,1,2.9,1.89,12.44,12.44,0,0,1,3-1.94V40.13H38V76.75a31,31,0,0,0,5.89-2.86V40.13H50.3V68.36a22.44,22.44,0,0,0,5.18-14V16.06A46.76,46.76,0,0,1,46.06,17.39Zm-35,18.38L9,34.22,6.79,35.77l0.83-2.51L5.47,31.7H8.13L9,29.16,9.78,31.7H12.4l-2.14,1.55Zm-0.33-7.46,0.79-2.54L9.41,24.21h2.66L12.9,21.7l0.79,2.52h2.69L14.2,25.77,15,28.31,12.9,26.76Zm7.34,4.95,0.82,2.51-2.14-1.55-2.14,1.55,0.83-2.51L13.35,31.7H16l0.79-2.55,0.82,2.55h2.66Zm0.49-5,0.79-2.54-2.14-1.55H19.9l0.86-2.51,0.79,2.51h2.66l-2.14,1.55,0.83,2.55-2.14-1.55Zm8.2,7.46-2.14-1.55-2.17,1.55,0.83-2.51L21.18,31.7h2.65l0.82-2.54,0.83,2.54h2.66L26,33.26Zm1.8-9-2.13,1.55,0.79-2.54-2.13-1.55h2.65L28.6,21.7l0.79,2.52h2.69l-2.17,1.55,0.83,2.55Zm6,9L32.5,34.22l-2.14,1.55,0.83-2.51L29,31.7H31.7l0.79-2.55,0.83,2.55H36l-2.14,1.55ZM34.3,28.31l0.79-2.54L33,24.21h2.65l0.87-2.51,0.79,2.51h2.66l-2.14,1.55,0.79,2.55-2.1-1.55Zm8.2,7.46-2.14-1.55L38.2,35.77,39,33.26,36.88,31.7h2.65l0.83-2.54,0.82,2.54h2.62l-2.13,1.55Zm-0.35-7.46,0.79-2.54L40.8,24.21h2.66l0.83-2.52,0.79,2.52h2.69l-2.17,1.55,0.83,2.55-2.14-1.55Zm8.26,7.46-2.14-1.55-2.14,1.55,0.79-2.51L44.78,31.7h2.65l0.83-2.55,0.79,2.55h2.66l-2.14,1.55Z" transform="translate(0 -6.55)"/><path class="cls-2" d="M100.25,58.4H98.91c-0.25,0-.31.05-0.31,0.31v1.51a3.4,3.4,0,0,1-.87.09,1.94,1.94,0,0,1-2-.94,8.54,8.54,0,0,1-.67-3.87A5.75,5.75,0,0,1,95.9,52a1.72,1.72,0,0,1,1.57-.6,3,3,0,0,1,1,.15V53c0,0.25.05,0.31,0.29,0.31h1.35c0.25,0,.31-0.06.31-0.31V50.59a0.45,0.45,0,0,0-.25-0.45,5.52,5.52,0,0,0-2.76-.74c-3.13,0-4.85,2.31-4.85,6.54,0,2.38.5,4.11,1.51,5.24a4.21,4.21,0,0,0,3.35,1.19,5.7,5.7,0,0,0,2.92-.67,0.39,0.39,0,0,0,.22-0.38V58.71C100.55,58.46,100.5,58.4,100.25,58.4Z" transform="translate(0 -6.55)"/><path class="cls-2" d="M112,60.33h-0.69L108.2,50c-0.09-.29-0.11-0.31-0.4-0.31h-1.88c-0.29,0-.31,0-0.4.31l-3.15,10.32h-0.61c-0.26,0-.31.06-0.31,0.31v1.12c0,0.26.05,0.31,0.31,0.31h3.71c0.25,0,.31-0.05.31-0.31V60.64c0-.25-0.05-0.31-0.31-0.31h-0.69l0.4-1.55h3.15l0.4,1.55h-0.67c-0.25,0-.3.06-0.3,0.31v1.12c0,0.26.05,0.31,0.3,0.31H112c0.25,0,.31-0.05.31-0.31V60.64C112.27,60.39,112.21,60.33,112,60.33Zm-6.5-3.2,0.79-3.1c0.16-.65.25-1.22,0.45-2.5,0.05,0.36.14,0.9,0.2,1.28s0.15,0.83.24,1.22l0.76,3.1h-2.43Z" transform="translate(0 -6.55)"/><path class="cls-2" d="M124.82,60.33h-0.9l-0.45-8.9h1c0.26,0,.31-0.05.31-0.31V50c0-.25-0.05-0.31-0.31-0.31h-3.12c-0.29,0-.31,0-0.4.29l-1.57,4.54c-0.09.24-.25,0.79-0.33,1.08-0.18.76-.2,0.78-0.27,1.12a14.81,14.81,0,0,0-.52-2.18L116.82,50c-0.07-.25-0.11-0.29-0.4-0.29h-3.12c-0.25,0-.31.05-0.31,0.31v1.12c0,0.25.06,0.31,0.31,0.31h0.94l-0.4,8.9h-0.9c-0.25,0-.31.06-0.31,0.31v1.12c0,0.26.05,0.31,0.31,0.31h3.86c0.25,0,.3-0.05.3-0.31V60.64c0-.25-0.05-0.31-0.3-0.31H116l0.11-4.75,0-.67V53.36l0-.69c0.31,1.39.38,1.82,0.69,2.85l1,3.51c0.09,0.29.11,0.3,0.4,0.3h1c0.31,0,.33,0,0.42-0.29l1.19-3.71c0.25-.76.38-1.23,0.72-2.67l0,1.73v0.94l0.09,5h-0.85c-0.25,0-.31.06-0.31,0.31v1.12c0,0.26.06,0.31,0.31,0.31h4c0.25,0,.31-0.05.31-0.31V60.64C125.13,60.39,125.08,60.33,124.82,60.33Z" transform="translate(0 -6.55)"/><path class="cls-2" d="M133.73,50.21a5.4,5.4,0,0,0-2.83-.51h-4.22c-0.34,0-.38.05-0.38,0.38v1c0,0.32.05,0.38,0.38,0.38h0.92v8.9h-0.92c-0.32,0-.38.06-0.38,0.38v1c0,0.34,0,.38.38,0.38h4.54c0.32,0,.36-0.05.36-0.38v-1c0-.32-0.05-0.38-0.36-0.38H130v-3.2h1a3.82,3.82,0,0,0,4.11-4A3.26,3.26,0,0,0,133.73,50.21Zm-3.13,4.92H130V51.5h0.76c1.49,0,2,.43,2,1.73S132.18,55.12,130.59,55.12Z" transform="translate(0 -6.55)"/><path class="cls-2" d="M143.82,58.47h-1.24c-0.25,0-.31.06-0.31,0.31v1.35h-2.4V56.57h3.06c0.33,0,.38-0.06.38-0.38V55c0-.33,0-0.36-0.38-0.36h-3.06v-3h2.33v1.21c0,0.25.05,0.31,0.31,0.31h1.24c0.25,0,.3-0.05.3-0.31V50c0-.25-0.05-0.31-0.3-0.31h-7.21c-0.34,0-.38.05-0.38,0.38v1c0,0.32.05,0.38,0.38,0.38h0.92v8.9h-0.92c-0.33,0-.38.06-0.38,0.38v1c0,0.34,0,.38.38,0.38h7.21c0.32,0,.36,0,0.36-0.38v-2.9C144.11,58.51,144.07,58.47,143.82,58.47Z" transform="translate(0 -6.55)"/><path class="cls-2" d="M150.4,49.39a4.12,4.12,0,0,0-3,1.12c-1.1,1.08-1.59,2.68-1.59,5.31q0,6.54,4.4,6.54c3,0,4.53-2.24,4.53-6.63,0-2.36-.43-4-1.34-5.06A4.1,4.1,0,0,0,150.4,49.39ZM150.3,60.46c-1.28,0-1.91-1.51-1.91-4.56s0.67-4.6,1.89-4.6,1.95,1.46,1.95,4.61S151.58,60.46,150.3,60.46Z" transform="translate(0 -6.55)"/><path class="cls-2" d="M152.74,45.83a0.67,0.67,0,0,0-.27.07l-3.15,1.48a0.33,0.33,0,0,0-.27.24,0.67,0.67,0,0,0,.07.25l0.24,0.59c0.09,0.24.14,0.27,0.27,0.27l0.22-.05,3.39-1c0.21-.05.3-0.13,0.3-0.23a0.53,0.53,0,0,0-.07-0.25L153,46.1A0.33,0.33,0,0,0,152.74,45.83Z" transform="translate(0 -6.55)"/><path class="cls-2" d="M166.76,49.7h-3.89c-0.32,0-.38.05-0.38,0.38v1c0,0.32.05,0.38,0.38,0.38h0.92v4.38c0,0.63,0,1,.05,2.34a17.38,17.38,0,0,0-1.12-2.61l-3-5.58a0.35,0.35,0,0,0-.42-0.26h-2.78c-0.34,0-.38.05-0.38,0.38v1c0,0.32.06,0.38,0.38,0.38h0.92v8.9h-0.92c-0.32,0-.38.06-0.38,0.38v1c0,0.34,0,.38.38,0.38h3.89c0.32,0,.38-0.05.38-0.38v-1c0-.32-0.06-0.38-0.38-0.38h-0.92V55.52c0-.88,0-0.88-0.07-2.33a13.5,13.5,0,0,0,1.1,2.45l3.32,6.16a0.35,0.35,0,0,0,.42.25h1.19c0.32,0,.38-0.05.38-0.38V51.43h0.92c0.32,0,.38-0.05.38-0.38v-1C167.14,49.75,167.1,49.7,166.76,49.7Z" transform="translate(0 -6.55)"/><path class="cls-2" d="M178.9,49.93a7,7,0,0,0-2.43-.24h-4.13c-0.34,0-.38.05-0.38,0.38v1c0,0.32.05,0.38,0.38,0.38h0.92v8.9h-0.92c-0.32,0-.38.06-0.38,0.38v1c0,0.34,0,.38.38,0.38h4.07a5.26,5.26,0,0,0,3.13-.63c1.46-.9,2.16-2.72,2.16-5.57C181.71,52.49,180.81,50.56,178.9,49.93Zm-2.54,10.2h-0.68v-8.5h0.68a2.45,2.45,0,0,1,1.79.47c0.72,0.56,1,1.7,1,3.75C179.17,59.11,178.51,60.13,176.36,60.13Z" transform="translate(0 -6.55)"/><path class="cls-2" d="M190.82,58.47h-1.25c-0.25,0-.3.06-0.3,0.31v1.35h-2.4V56.57h3.07c0.32,0,.38-0.06.38-0.38V55c0-.33,0-0.36-0.38-0.36h-3.07v-3h2.33v1.21c0,0.25.05,0.31,0.31,0.31h1.24c0.25,0,.31-0.05.31-0.31V50c0-.25-0.05-0.31-0.31-0.31h-7.21c-0.34,0-.38.05-0.38,0.38v1c0,0.32.05,0.38,0.38,0.38h0.92v8.9h-0.92c-0.32,0-.38.06-0.38,0.38v1c0,0.34,0,.38.38,0.38h7.21c0.32,0,.36,0,0.36-0.38v-2.9C191.1,58.51,191.06,58.47,190.82,58.47Z" transform="translate(0 -6.55)"/><path class="cls-2" d="M201.05,58.71l-1.19-.25-0.29-.05c-0.11,0-.16.05-0.22,0.33L199,60.13H196.4v-8.7h1c0.32,0,.38-0.05.38-0.38v-1c0-.32-0.05-0.38-0.38-0.38h-4.31c-0.34,0-.38.05-0.38,0.38v1c0,0.32.05,0.38,0.38,0.38H194v8.9h-0.92c-0.33,0-.38.06-0.38,0.38v1c0,0.34,0,.38.38,0.38h7.28c0.29,0,.33,0,0.4-0.32l0.58-2.56a1.81,1.81,0,0,0,0-.23C201.35,58.82,201.28,58.76,201.05,58.71Z" transform="translate(0 -6.55)"/><path class="cls-2" d="M210.24,54.38c-1.3-.65-1.6-1-1.6-1.62a1.42,1.42,0,0,1,1.69-1.35,3.62,3.62,0,0,1,1.21.22V53c0,0.25.05,0.31,0.31,0.31h1.33c0.25,0,.31-0.05.31-0.31V50.59a0.42,0.42,0,0,0-.27-0.43,6.63,6.63,0,0,0-3-.7c-2.43,0-3.95,1.39-3.95,3.62a3.14,3.14,0,0,0,.77,2.22,6.91,6.91,0,0,0,2,1.24,6.1,6.1,0,0,1,2.09,1.17,1.46,1.46,0,0,1,.4,1.06,1.44,1.44,0,0,1-1.64,1.53,4.81,4.81,0,0,1-1.7-.36V58.42c0-.25-0.05-0.31-0.31-0.31h-1.33c-0.25,0-.31.05-0.31,0.31v2.72a0.41,0.41,0,0,0,.27.45,9,9,0,0,0,3.44.72,3.76,3.76,0,0,0,2.9-6.27A8.28,8.28,0,0,0,210.24,54.38Z" transform="translate(0 -6.55)"/><path class="cls-2" d="M220.11,49.7H215.7c-0.34,0-.38.05-0.38,0.38v1c0,0.32.06,0.38,0.38,0.38h1v8.9h-1c-0.32,0-.38.06-0.38,0.38v1c0,0.33,0,.38.38,0.38h4.42c0.32,0,.38-0.05.38-0.38v-1c0-.32-0.05-0.38-0.38-0.38h-1v-8.9h1c0.32,0,.38-0.05.38-0.38v-1C220.49,49.75,220.44,49.7,220.11,49.7Z" transform="translate(0 -6.55)"/><path class="cls-2" d="M231.34,55.58h-4.47c-0.34,0-.38.05-0.38,0.38v1c0,0.32.05,0.38,0.38,0.38h1.35V60.1a3,3,0,0,1-1.3.29,2,2,0,0,1-1.84-1,8.61,8.61,0,0,1-.58-3.53,7.16,7.16,0,0,1,.76-3.71,2,2,0,0,1,1.68-.81,3.2,3.2,0,0,1,1.22.25V53c0,0.25.05,0.3,0.3,0.3h1.33c0.25,0,.31-0.05.31-0.3V50.64a0.47,0.47,0,0,0-.29-0.47,5.87,5.87,0,0,0-3-.78c-3.15,0-4.83,2.25-4.83,6.51s1.58,6.47,4.78,6.47a6.42,6.42,0,0,0,3.37-.88A0.46,0.46,0,0,0,230.4,61V57.3h0.94c0.25,0,.3-0.05.3-0.31V55.88C231.65,55.63,231.59,55.58,231.34,55.58Z" transform="translate(0 -6.55)"/><path class="cls-2" d="M241,58.71l-1.19-.25a1.12,1.12,0,0,0-.29-0.05c-0.11,0-.16.05-0.22,0.33L239,60.13h-2.63v-8.7h1c0.33,0,.38-0.05.38-0.38v-1c0-.32-0.05-0.38-0.38-0.38h-4.3c-0.34,0-.38.05-0.38,0.38v1c0,0.32.06,0.38,0.38,0.38H234v8.9h-0.92c-0.32,0-.38.06-0.38,0.38v1c0,0.34,0,.38.38,0.38h7.28c0.29,0,.32,0,0.4-0.32l0.58-2.56a2.15,2.15,0,0,0,0-.23C241.34,58.82,241.27,58.76,241,58.71Z" transform="translate(0 -6.55)"/><path class="cls-2" d="M247,49.39a4.12,4.12,0,0,0-3,1.12c-1.1,1.08-1.58,2.68-1.58,5.31,0,4.36,1.46,6.54,4.4,6.54s4.53-2.24,4.53-6.63c0-2.36-.43-4-1.33-5.06A4.1,4.1,0,0,0,247,49.39Zm-0.09,11.06c-1.28,0-1.91-1.51-1.91-4.56s0.67-4.6,1.89-4.6,1.94,1.46,1.94,4.61S248.22,60.46,246.95,60.46Z" transform="translate(0 -6.55)"/><path class="cls-1" d="M101.56,38.5c0-.24-0.05-0.29-0.31-0.29H99c-0.24,0-.29.05-0.29,0.29v1.14c-0.2,0-.54,0-0.77,0-1.25,0-1.93-.85-1.93-4.14,0-2.44.76-3.18,1.66-3.18,0.3,0,.65,0,0.9,0v1.1c0,0.23.06,0.29,0.29,0.29h2.24c0.25,0,.3-0.05.3-0.29V31.13a0.54,0.54,0,0,0-.23-0.45,5.2,5.2,0,0,0-3.59-1.16A4.73,4.73,0,0,0,94.07,31c-1.12,1.17-1.51,2.74-1.51,4.89,0,4.07,1.66,6.61,5.15,6.61a6.32,6.32,0,0,0,3.21-.79,1.29,1.29,0,0,0,.65-0.7V38.5Z" transform="translate(0 -6.55)"/><path class="cls-1" d="M103.15,42.2h7.69c0.27,0,.38,0,0.43-0.31L112,38.81c0.07-.32,0-0.4-0.29-0.47l-2-.42c-0.32-.07-0.38-0.09-0.49.27l-0.27.94H107.2V32.45h0.63c0.34,0,.38-0.07.38-0.38V30.19c0-.31,0-0.36-0.38-0.36h-4.69c-0.34,0-.38.05-0.38,0.36v1.88c0,0.31,0,.38.38,0.38h0.56v7.13h-0.56c-0.34,0-.38,0-0.38.38v1.86C102.77,42.16,102.81,42.2,103.15,42.2Z" transform="translate(0 -6.55)"/><path class="cls-1" d="M113,38c0,2.83,1.17,4.48,4.69,4.48,3,0,5.11-1.4,5.11-4.63V32.45h0.56c0.34,0,.36-0.07.36-0.38V30.19c0-.31,0-0.36-0.36-0.36h-3.6c-0.31,0-.38.05-0.38,0.36v7.53c0,1.48-.46,2-1.51,2s-1.39-.38-1.39-2V30.19c0-.31-0.07-0.36-0.38-0.36h-3.66c-0.34,0-.38.05-0.38,0.36v1.88c0,0.31,0,.38.38,0.38H113V38Z" transform="translate(0 -6.55)"/><path class="cls-1" d="M132.16,42a3.54,3.54,0,0,0,2.54-3.48,2.92,2.92,0,0,0-1.91-2.84,2.54,2.54,0,0,0,1.46-2.49,3.42,3.42,0,0,0-1.08-2.52c-0.77-.69-1.57-0.83-3.53-0.83h-4.47c-0.34,0-.38.05-0.38,0.36v1.88c0,0.31,0,.38.38,0.38h0.56v7.13h-0.56c-0.34,0-.38,0-0.38.38v1.86c0,0.34,0,.38.38,0.38h4.63A8.52,8.52,0,0,0,132.16,42Zm-3.06-9.68h0.67c1,0,1.28.36,1.28,1.15a1.05,1.05,0,0,1-1.21,1.23H129.1V32.32Zm0,4.76h0.59c1.48,0,1.73.42,1.73,1.28s-0.34,1.22-1.59,1.22H129.1v-2.5Z" transform="translate(0 -6.55)"/><path class="cls-1" d="M146.61,42.2h3.1c0.23,0,.32-0.05.32-0.31v-2c0-.24-0.09-0.29-0.32-0.29h-0.43l-3.08-9.44a0.32,0.32,0,0,0-.42-0.31H143.1c-0.29,0-.31,0-0.4.31l-3.08,9.44h-0.47c-0.23,0-.31.06-0.31,0.29v2c0,0.25.06,0.31,0.31,0.31h2.9c0.29,0,.29,0,0.38-0.31l0.74-2.58h2.36l0.69,2.58C146.29,42.18,146.32,42.2,146.61,42.2Zm-3-5.32L144,34.77c0.11-.52.25-1.48,0.31-2.05,0.07,0.54.23,1.55,0.32,2.05L145,36.88h-1.46Z" transform="translate(0 -6.55)"/><path class="cls-1" d="M150.2,34.16h1.62c0.25,0,.31-0.07.31-0.32v-1h1v6.75h-1c-0.34,0-.36,0-0.36.38v1.86c0,0.34,0,.38.32,0.38h5.68c0.34,0,.34,0,0.34-0.38V40c0-.34,0-0.38-0.38-0.38h-1V32.83h1v1c0,0.25.05,0.32,0.31,0.32h1.62c0.26,0,.31-0.07.31-0.32v-3.7c0-.25,0-0.31-0.29-0.31h-9.25c-0.25,0-.36.05-0.36,0.31v3.7C149.89,34.09,149.94,34.16,150.2,34.16Z" transform="translate(0 -6.55)"/><path class="cls-1" d="M169.71,38.34l-2-.42c-0.32-.07-0.38-0.09-0.49.27l-0.27.94h-1.71V32.45h0.63c0.34,0,.38-0.07.38-0.38V30.19c0-.31,0-0.36-0.38-0.36h-4.69c-0.34,0-.38.05-0.38,0.36v1.88c0,0.31,0,.38.38,0.38h0.56v7.13h-0.56c-0.34,0-.38,0-0.38.38v1.86c0,0.34,0,.38.38,0.38h7.69c0.27,0,.38,0,0.43-0.31L170,38.81C170.07,38.48,170,38.41,169.71,38.34Z" transform="translate(0 -6.55)"/><path class="cls-1" d="M179.7,41.89V38.77c0-.25-0.07-0.32-0.31-0.32h-2.23c-0.24,0-.31.07-0.31,0.32V39.4h-1.39V37.17h2.72c0.31,0,.38-0.05.38-0.36V34.91c0-.34-0.07-0.38-0.38-0.38h-2.72V32.61h1.35v0.5a0.25,0.25,0,0,0,.31.31h2.23c0.24,0,.31-0.05.31-0.31v-3c0-.25-0.07-0.31-0.31-0.31h-7.94c-0.34,0-.38.05-0.38,0.36v1.88c0,0.31,0,.38.38,0.38H172v7.13h-0.56c-0.34,0-.38,0-0.38.38v1.86c0,0.34,0,.38.38,0.38h8A0.25,0.25,0,0,0,179.7,41.89Z" transform="translate(0 -6.55)"/><path class="cls-1" d="M173.62,28.66c0.13,0.27.21,0.3,0.48,0.2l4.22-1.6c0.31-.11.34-0.22,0.2-0.51l-1-2c-0.17-.32-0.22-0.32-0.51-0.14L173.19,27c-0.29.18-.3,0.24-0.16,0.5Z" transform="translate(0 -6.55)"/><path class="cls-1" d="M188.94,41.82V40c0-.34,0-0.38-0.38-0.38h-1V32.83h1v1c0,0.25.05,0.32,0.31,0.32h1.62c0.25,0,.31-0.07.31-0.32v-3.7c0-.25,0-0.31-0.29-0.31h-9.24c-0.25,0-.36.05-0.36,0.31v3.7c0,0.25.06,0.32,0.31,0.32h1.62c0.25,0,.31-0.07.31-0.32v-1h1v6.75H183c-0.34,0-.36,0-0.36.38v1.86c0,0.34,0,.38.33,0.38h5.68C188.94,42.2,188.94,42.16,188.94,41.82Z" transform="translate(0 -6.55)"/><path class="cls-1" d="M197.26,41.82V40c0-.31,0-0.38-0.38-0.38H196.2V32.47h0.68c0.35,0,.38,0,0.38-0.38V30.19c0-.31,0-0.36-0.38-0.36h-4.77c-0.34,0-.38.05-0.38,0.36v1.89c0,0.34,0,.38.38,0.38h0.59v7.11h-0.59c-0.34,0-.38,0-0.38.38v1.86c0,0.34,0,.38.38,0.38h4.77C197.23,42.2,197.26,42.16,197.26,41.82Z" transform="translate(0 -6.55)"/><path class="cls-1" d="M207.48,41V38.5c0-.24-0.05-0.29-0.31-0.29h-2.23c-0.24,0-.29.05-0.29,0.29v1.14c-0.2,0-.54,0-0.78,0-1.24,0-1.93-.85-1.93-4.14,0-2.44.76-3.18,1.66-3.18,0.31,0,.65,0,0.9,0v1.1c0,0.23.05,0.29,0.29,0.29H207c0.25,0,.31-0.05.31-0.29V31.13a0.57,0.57,0,0,0-.24-0.45,5.21,5.21,0,0,0-3.59-1.16A4.73,4.73,0,0,0,200,31c-1.12,1.17-1.51,2.74-1.51,4.89,0,4.07,1.66,6.61,5.15,6.61a6.32,6.32,0,0,0,3.21-.79A1.28,1.28,0,0,0,207.48,41Z" transform="translate(0 -6.55)"/><path class="cls-1" d="M213.5,42.5c3.49,0,5-2.47,5-6.65,0-4-1.55-6.33-5-6.33-4.15,0-5,3.57-5,6.33C208.58,40.07,210,42.5,213.5,42.5Zm0.05-10.38c0.79,0,1.44.85,1.44,3.88s-0.67,3.89-1.44,3.89-1.44-.87-1.46-3.82S212.8,32.12,213.56,32.12Z" transform="translate(0 -6.55)"/><path class="cls-1" d="M231.84,30.68c-0.76-.65-1.75-0.85-3.5-0.85H223.9c-0.34,0-.4.05-0.4,0.36v1.88c0,0.31,0,.38.38,0.38h0.56v7.13h-0.56c-0.34,0-.38,0-0.38.38v1.86c0,0.34,0,.38.35,0.38h5c0.34,0,.32,0,0.32-0.38V40c0-.34,0-0.38-0.36-0.38h-0.85v-2h0.56c2.7,0,4.49-1.67,4.49-4.18A3.68,3.68,0,0,0,231.84,30.68ZM228.35,35h-0.41v-2.6h0.5a1.12,1.12,0,0,1,1.39,1.23C229.82,34.57,229.47,35,228.35,35Z" transform="translate(0 -6.55)"/><path class="cls-1" d="M242.59,41.89V38.77c0-.25-0.07-0.32-0.31-0.32H240c-0.23,0-.31.07-0.31,0.32V39.4h-1.39V37.17h2.72c0.31,0,.38-0.05.38-0.36V34.91c0-.34-0.07-0.38-0.38-0.38h-2.72V32.61h1.35v0.5c0,0.25.07,0.31,0.31,0.31h2.23a0.25,0.25,0,0,0,.31-0.31v-3c0-.25-0.07-0.31-0.31-0.31H234.3c-0.34,0-.38.05-0.38,0.36v1.88c0,0.31,0,.38.38,0.38h0.56v7.13H234.3c-0.34,0-.38,0-0.38.38v1.86c0,0.34,0,.38.38,0.38h8C242.52,42.2,242.59,42.14,242.59,41.89Z" transform="translate(0 -6.55)"/><path class="cls-1" d="M254.75,29.83h-3.28c-0.34,0-.36.05-0.36,0.36v4.24a17.16,17.16,0,0,0,.23,2.11,18.21,18.21,0,0,0-.81-1.91l-2.61-4.49a0.42,0.42,0,0,0-.5-0.31h-3.24c-0.34,0-.38.05-0.38,0.36v1.88c0,0.31,0,.38.38,0.38h0.56v7.13h-0.56c-0.34,0-.38,0-0.38.38v1.86c0,0.34,0,.38.34,0.38h3.36c0.3,0,.38,0,0.38-0.38V37a14.94,14.94,0,0,0-.29-2.09,14.6,14.6,0,0,0,.85,1.87l2.83,5a0.47,0.47,0,0,0,.52.36h2.07c0.34,0,.36,0,0.36-0.38V32.45h0.56c0.34,0,.38-0.07.38-0.38V30.19C255.14,29.89,255.09,29.83,254.75,29.83Z" transform="translate(0 -6.55)"/><path class="cls-1" d="M246.15,28.23l1.51,0.61c0.18,0.07.22,0.07,0.32-.11a0.62,0.62,0,0,1,.65-0.45c0.41,0,.88.63,1.71,0.63,1.44,0,2.09-1.4,2.47-2.27,0.07-.18.16-0.31-0.05-0.4l-1.53-.63c-0.11-.05-0.21-0.11-0.29,0a0.62,0.62,0,0,1-.58.49,7.11,7.11,0,0,0-1.86-.59c-1.49,0-2.09,1.49-2.43,2.36C246,28.07,246,28.16,246.15,28.23Z" transform="translate(0 -6.55)"/><path class="cls-1" d="M266.5,39.58h-0.43L263,30.14a0.32,0.32,0,0,0-.42-0.31h-2.68c-0.29,0-.31,0-0.4.31l-3.08,9.44h-0.47c-0.24,0-.31.06-0.31,0.29v2c0,0.25.06,0.31,0.31,0.31h2.9c0.29,0,.29,0,0.38-0.31L260,39.31h2.36L263,41.89c0.08,0.29.11,0.31,0.4,0.31h3.1c0.23,0,.32-0.05.32-0.31v-2C266.82,39.64,266.73,39.58,266.5,39.58Zm-6.14-2.7,0.47-2.11c0.11-.52.25-1.48,0.3-2.05,0.07,0.54.24,1.55,0.32,2.05l0.36,2.11h-1.46Z" transform="translate(0 -6.55)"/><path class="cls-1" d="M278.17,40c0-.34,0-0.39-0.36-0.38l-0.59,0-1.72-2.74a4,4,0,0,0,1.82-3.46,3.68,3.68,0,0,0-1.14-2.72c-0.75-.65-1.75-0.85-3.49-0.85h-4.45c-0.34,0-.4.05-0.4,0.36v1.88c0,0.31,0,.38.38,0.38h0.56v7.13h-0.56c-0.34,0-.38,0-0.38.38v1.86c0,0.34,0,.38.34,0.38h3.68c0.31,0,.36,0,0.36-0.38V37.4h0.16L274.73,42a0.35,0.35,0,0,0,.45.24h2.66c0.34,0,.33,0,0.33-0.38V40Zm-5.49-5h-0.45V32.36h0.54a1.11,1.11,0,0,1,1.37,1.23C274.14,34.57,273.79,34.93,272.68,34.93Z" transform="translate(0 -6.55)"/><path class="cls-1" d="M283.74,29.53c-4.15,0-5,3.57-5,6.33,0,4.22,1.46,6.65,4.92,6.65s5-2.47,5-6.65C288.72,31.89,287.17,29.53,283.74,29.53Zm0,10.36c-0.78,0-1.44-.87-1.46-3.82s0.7-3.95,1.46-3.95S285.16,33,285.16,36,284.5,39.89,283.73,39.89Z" transform="translate(0 -6.55)"/><path class="cls-1" d="M298.75,38.34l-2-.42c-0.32-.07-0.38-0.09-0.48.27l-0.27.94h-1.71V32.45h0.63c0.34,0,.38-0.07.38-0.38V30.19c0-.31,0-0.36-0.38-0.36h-4.69c-0.34,0-.38.05-0.38,0.36v1.88c0,0.31,0,.38.38,0.38h0.56v7.13h-0.56c-0.34,0-.38,0-0.38.38v1.86c0,0.34,0,.38.38,0.38h7.7c0.27,0,.38,0,0.43-0.31L299,38.81C299.12,38.48,299.08,38.41,298.75,38.34Z" transform="translate(0 -6.55)"/><rect class="cls-1" x="73.77" y="4.31" width="2.25" height="70.14"/></svg>