<?xml version="1.0" encoding="utf-8"?>
<!-- Generator: Adobe Illustrator 24.0.2, SVG Export Plug-In . SVG Version: 6.00 Build 0)  -->
<svg version="1.1" id="Capa_1" xmlns="http://www.w3.org/2000/svg" xmlns:xlink="http://www.w3.org/1999/xlink" x="0px" y="0px"
	 viewBox="0 0 279.9 62" style="enable-background:new 0 0 279.9 62;" xml:space="preserve">
<style type="text/css">
	.st0{fill-rule:evenodd;clip-rule:evenodd;fill:#F3B402;}
	.st1{fill:#F3B402;}
</style>
<title>marca</title>
<path class="st0" d="M279.9,22.1c0,0.3-0.2,0.7-0.4,0.9c-0.2-0.2-0.4-0.5-0.6-0.7c-0.4-0.4-0.9-0.8-1.3-1.1
	c-0.5-0.4-1.3-0.8-2.2-1.4c-0.7-0.4-1.4-0.8-2.2-1.2l-0.6-0.3c-0.4-0.2-1-0.5-1.7-0.8s-1.4-0.7-2.2-1s-1.5-0.6-2.2-0.9
	s-1.5-0.5-2.2-0.7l-0.3-0.1c-0.5-0.2-1.2-0.3-1.9-0.5c-0.7-0.2-1.5-0.3-2.2-0.4s-1.5-0.2-2.2-0.3s-1.4-0.1-2.1-0.1h-0.1
	c-0.6,0-1.4,0-2.2,0c-0.7,0-1.4,0-2.2,0.1c-0.8,0.1-1.5,0.1-2.2,0.2l-2.2,0.3l-1.2,0.1l-1.1,0.2c-0.8,0.1-1.5,0.2-2.2,0.3l-4.4,0.8
	c-0.7,0.1-1.4,0.3-2.2,0.4l-2.2,0.5l-1.2,0.3l-5.4,1.2c-0.8,0.2-1.5,0.4-2.2,0.5s-1.5,0.4-2.2,0.6s-1.5,0.4-2.2,0.6l-0.3,0.1
	c-0.8,0.2-1.4,0.5-2,0.7c-0.8,0.3-1.5,0.6-2.2,1c-0.6,0.3-1.2,0.7-1.7,1.1c-0.1,0.1-0.1,0.1-0.2,0.2c-0.2-0.3-0.4-0.7-0.4-1.1
	c0,0,0-0.1,0-0.1c0-0.4,0.2-0.9,0.6-1.2c0.5-0.5,1-0.8,1.7-1.1c0.7-0.4,1.5-0.7,2.2-1c0.6-0.2,1.3-0.5,2-0.7l0.3-0.1
	c0.6-0.2,1.4-0.4,2.2-0.6l2.2-0.6l2.2-0.5l8.8-1.9c0.8-0.2,1.5-0.3,2.2-0.5l4.4-0.8l2.2-0.4l1.1-0.2l1.2-0.1l2.2-0.3
	c0.7-0.1,1.4-0.1,2.2-0.2s1.5-0.1,2.2-0.1c0.8,0,1.6,0,2.2,0h0.1c0.7,0,1.4,0.1,2.1,0.1s1.4,0.2,2.2,0.3s1.4,0.3,2.2,0.4
	s1.3,0.3,1.9,0.5l0.3,0.1c0.7,0.2,1.4,0.5,2.2,0.7s1.5,0.6,2.2,0.9s1.4,0.6,2.2,1l1.7,0.8l0.6,0.3c0.8,0.4,1.6,0.8,2.2,1.2
	c0.9,0.5,1.6,1,2.2,1.4c0.5,0.3,0.9,0.7,1.3,1.1C279.5,20.6,279.9,21.3,279.9,22.1z M253.3,15.8c0.8,0,1.5,0,2.2,0h0.1
	c0.8,0,1.5,0.1,2.1,0.1s1.4,0.2,2.2,0.3s1.5,0.3,2.2,0.4s1.2,0.3,1.9,0.5l0.3,0.1c0.7,0.2,1.4,0.5,2.2,0.7s1.5,0.5,2.2,0.9
	s1.5,0.6,2.2,1l1.7,0.8l0.6,0.3c0.7,0.4,1.5,0.8,2.2,1.2c0.9,0.5,1.6,1,2.2,1.4c0.3,0.2,0.5,0.4,0.8,0.5c-0.2,0.1-0.4,0.2-0.8,0.4
	l-1.1,0.5c-0.4-0.2-0.7-0.5-1.1-0.6c-0.7-0.4-1.4-0.8-2.2-1.2L271,22c-0.8-0.4-1.5-0.7-2.2-1s-1.4-0.6-2.2-0.9s-1.5-0.5-2.2-0.7
	l-0.3-0.1c-0.7-0.2-1.3-0.3-1.9-0.5s-1.4-0.3-2.2-0.4s-1.4-0.2-2.2-0.3s-1.4-0.1-2.1-0.1h-0.1c-0.7,0-1.4,0-2.2,0
	c-0.5,0-1.3,0-2.2,0.1c-0.7,0-1.4,0.1-2.2,0.2l-2.2,0.3l-2.2,0.3l-2.2,0.4l-2.2,0.4l-2.2,0.4l-5.7,1.2l-1,0.2l-2.2,0.5l-4.4,1
	l-2.2,0.6c-0.9,0.2-1.6,0.4-2.2,0.6l-0.3,0.1c-0.7,0.2-1.4,0.4-2,0.7s-0.8,0.3-1,0.4c-0.4-0.3-0.8-0.5-1.2-0.8s-0.4-0.3-0.6-0.5
	c0.2-0.1,0.4-0.3,0.6-0.4c0.7-0.4,1.5-0.7,2.2-1c0.6-0.2,1.3-0.5,2-0.7l0.3-0.1c0.6-0.2,1.3-0.4,2.2-0.6l2.2-0.6
	c0.8-0.2,1.6-0.4,2.2-0.5l8.8-2l2.2-0.4l4.4-0.8c0.8-0.1,1.6-0.3,2.2-0.4l1.1-0.2l1.2-0.1l2.2-0.2c0.6-0.1,1.4-0.1,2.2-0.2
	S252.5,15.8,253.3,15.8z M248.8,20.5c0.9-0.1,1.7-0.1,2.2-0.2c0.8-0.1,1.5-0.1,2.2-0.1c0.8,0,1.6,0,2.2,0h0.1c0.7,0,1.4,0.1,2.1,0.1
	s1.5,0.2,2.2,0.3s1.5,0.3,2.2,0.4s1.3,0.3,1.9,0.5l0.3,0.1c0.7,0.2,1.4,0.5,2.2,0.7s1.5,0.6,2.2,0.9s1.4,0.6,2.2,1
	c0.5,0.2,1,0.5,1.7,0.8l1.6,0.8l-0.7,0.2l-0.3,0.1l-1.8,0.5l-0.4-0.2c-0.9-0.4-1.6-0.7-2.2-1s-1.4-0.6-2.2-0.9s-1.4-0.5-2.2-0.7
	l-0.3-0.1c-0.5-0.2-1.2-0.3-1.9-0.5c-0.8-0.2-1.5-0.3-2.2-0.4s-1.6-0.2-2.2-0.3s-1.5-0.1-2.1-0.1h-0.1c-0.6,0-1.4,0-2.2,0
	c-0.7,0-1.4,0-2.2,0.1s-1.6,0.1-2.2,0.2l-2.2,0.3l-1.2,0.1l-1.1,0.2c-0.8,0.1-1.5,0.2-2.2,0.4L240,24l-2.2,0.4
	c-0.7,0.1-1.4,0.3-2.2,0.4l-2.2,0.5l-2.2,0.5l-2.2,0.5l-2.2,0.5c-0.9,0.2-1.6,0.4-2.2,0.5l-2.2,0.6L222,28l-1.2-0.6l-1.5-0.8
	c0.2-0.1,0.4-0.1,0.6-0.2l0.3-0.1c0.6-0.2,1.4-0.4,2.2-0.6l2.2-0.6l2.2-0.5c0.9-0.2,1.6-0.4,2.2-0.5l6.6-1.4l2.2-0.5l2.2-0.4
	l2.2-0.4l4.4-0.7C247.3,20.7,248,20.6,248.8,20.5L248.8,20.5z M244.4,25.4l1.1-0.2l1.2-0.1c0.7-0.1,1.4-0.2,2.2-0.2s1.4-0.1,2.2-0.2
	s1.5-0.1,2.2-0.1s1.5,0,2.2,0h0.1c0.8,0,1.5,0,2.1,0.1c0.7,0.1,1.5,0.2,2.2,0.3s1.5,0.3,2.2,0.4s1.3,0.3,1.9,0.5l0.3,0.1
	c0.7,0.2,1.4,0.5,2.2,0.7c0.5,0.2,1.1,0.4,1.7,0.7l-3.7,0.9l-0.6-0.2c-0.6-0.2-1.3-0.3-1.9-0.5s-1.4-0.3-2.2-0.4s-1.5-0.2-2.2-0.3
	s-1.4-0.1-2.1-0.1h-0.1c-0.7,0-1.4,0-2.2,0s-1.5,0-2.2,0.1c-0.7,0-1.5,0.1-2.2,0.2l-2.2,0.2l-2.2,0.3l-2.2,0.3l-2.2,0.4l-2.2,0.4
	l-2.2,0.4l-6.6,1.5c-0.1,0-0.1,0-0.2,0c-0.7-0.2-1.4-0.5-2.1-0.7l-1.6-0.6l6.1-1.4l1-0.2l3.5-0.7c0.7-0.2,1.5-0.3,2.2-0.4l2.2-0.4
	l2.2-0.4C243,25.6,243.8,25.5,244.4,25.4L244.4,25.4z M237.8,32.2L237.8,32.2c-0.8,0-1.5-0.1-2.2-0.1c-0.7-0.1-1.3-0.1-1.8-0.2
	l1.8-0.4l2.2-0.4l2.2-0.4l2.2-0.4c0.8-0.1,1.6-0.3,2.2-0.4l2.2-0.3l2.2-0.2c0.7-0.1,1.4-0.1,2.2-0.2c0.8,0,1.6-0.1,2.2-0.1
	s1.5,0,2.2,0h0.1c0.7,0,1.4,0.1,2.1,0.1s1.3,0.1,1.9,0.2l-4.1,0.8l-2.2,0.4c-0.8,0.1-1.5,0.3-2.2,0.4l-4.4,0.6l-2.2,0.3
	c-0.7,0.1-1.4,0.1-2.2,0.2s-1.5,0.1-2.2,0.1S238.6,32.2,237.8,32.2L237.8,32.2z M251.1,52.9V35.4l-3.5,0.5l-3.1,0.4
	c-0.7,0.1-1.4,0.1-2.2,0.2c-0.8,0-1.5,0.1-2.2,0.1c-0.8,0-1.5,0-2.2,0l0,0c-0.8,0-1.5,0-2.2-0.1c-0.4,0-0.8-0.1-1.2-0.1l-1-0.2
	c-0.8-0.1-1.5-0.3-2.2-0.4s-1.2-0.3-1.8-0.5l-0.6-0.2c-0.7-0.2-1.4-0.4-2.1-0.7c-0.5-0.2-1-0.4-1.6-0.6c-0.2-0.1-0.4-0.1-0.6-0.2
	c-0.7-0.3-1.5-0.6-2.2-1c-0.1-0.1-0.2-0.1-0.3-0.2c-0.4-0.2-0.8-0.4-1.2-0.6l-2.9-1.5l-1-0.6c-0.4-0.2-0.8-0.5-1.2-0.8l-0.6-0.5
	c-0.2-0.2-0.4-0.4-0.6-0.5c-0.2-0.2-0.4-0.4-0.6-0.6c-0.2-0.3-0.4-0.7-0.4-1.1v-2.2c0,0.4,0.2,0.7,0.4,1.1c0.2,0.2,0.3,0.5,0.6,0.7
	c0.2,0.2,0.4,0.4,0.6,0.5c0.2,0.2,0.4,0.3,0.6,0.5s0.7,0.5,1.2,0.8l1,0.6l1.3,0.7l1.6,0.8c0.3,0.2,0.7,0.4,1.2,0.6l0.3,0.2
	c0.7,0.3,1.4,0.7,2.2,1l0.6,0.2c0.6,0.3,1.1,0.5,1.6,0.6c0.7,0.3,1.4,0.5,2.1,0.7l0.6,0.2c0.6,0.2,1.2,0.3,1.8,0.5s1.5,0.3,2.2,0.4
	l1,0.2c0.4,0,0.8,0.1,1.2,0.1c0.7,0.1,1.5,0.1,2.2,0.1l0,0c0.7,0,1.4,0,2.2,0s1.4,0,2.2-0.1s1.6-0.1,2.2-0.2l1.6-0.2l0.6-0.1h0.3
	l0.6-0.1l0.4,0l1-0.1l0.5-0.1l1.7-0.3c0.7-0.1,1.4-0.2,2.2-0.4v19.7L251.1,52.9z M213.5,30.5v-2.2c0,0.4,0.2,0.8,0.4,1.1
	c0.2,0.2,0.3,0.5,0.6,0.7c0.2,0.1,0.3,0.3,0.6,0.5s0.5,0.3,0.7,0.5s0.7,0.5,1.2,0.8l1,0.6l1.3,0.7l1.6,0.8c0.4,0.2,0.8,0.4,1.2,0.6
	l0.3,0.2c0.8,0.4,1.5,0.7,2.2,1l0.6,0.2c0.5,0.2,1.1,0.4,1.6,0.6c0.7,0.3,1.4,0.5,2.1,0.7h0.2l0.4,0.1c0.6,0.2,1.2,0.3,1.8,0.5
	s1.5,0.3,2.2,0.4l0.3,0c0.7,0.1,1.3,0.2,1.9,0.2s1.4,0.1,2.2,0.1l0,0c0.7,0,1.4,0,2.2,0s1.5,0,2.2-0.1s1.6-0.1,2.2-0.2
	s1.4-0.1,2.2-0.2h0.3l0.4,0l0.6-0.1l1-0.1v2.2l-2,0.3h-0.3l-2.2,0.3l-2.2,0.2c-0.8,0-1.5,0.1-2.2,0.1s-1.4,0-2.2,0l0,0
	c-0.8,0-1.5-0.1-2.2-0.1s-1.4-0.2-2.2-0.3s-1.5-0.3-2.2-0.4s-1.2-0.3-1.8-0.5l-0.6-0.2c-0.7-0.2-1.4-0.4-2.1-0.7l-1.6-0.6l-0.6-0.2
	c-0.7-0.3-1.4-0.6-2.2-1l-0.3-0.2l-1.2-0.6l-1.5-0.8c-0.5-0.3-0.9-0.5-1.3-0.7s-0.8-0.4-1-0.6c-0.5-0.3-0.8-0.5-1.2-0.8l-0.6-0.5
	c-0.2-0.2-0.4-0.4-0.6-0.6c-0.2-0.2-0.4-0.4-0.6-0.6C213.7,31.2,213.5,30.8,213.5,30.5L213.5,30.5z M213.5,34.8v-2.2
	c0,0.4,0.2,0.8,0.4,1.1c0.2,0.2,0.3,0.5,0.6,0.7c0.2,0.2,0.4,0.4,0.6,0.5c0.2,0.2,0.4,0.3,0.6,0.5s0.8,0.5,1.2,0.8l1,0.6
	c0.4,0.2,0.9,0.5,1.3,0.7l1.5,0.8l1.2,0.6l0.3,0.2c0.8,0.4,1.5,0.7,2.2,1l0.6,0.2c0.6,0.3,1.2,0.5,1.6,0.6c0.8,0.3,1.5,0.5,2.2,0.7
	l0.4,0.1c0.6,0.2,1.2,0.3,1.8,0.5s1.5,0.3,2.2,0.4s1.5,0.2,2.2,0.3s1.4,0.1,2.2,0.1l0,0c0.7,0,1.4,0,2.2,0s1.4,0,2.2-0.1
	s1.6-0.1,2.2-0.2l2.2-0.3h0.3l2-0.3v2.2l-1,0.1l-1,0.1h-0.3l-2.2,0.3c-0.7,0.1-1.4,0.1-2.2,0.2s-1.5,0.1-2.2,0.1s-1.4,0-2.2,0l0,0
	c-0.8,0-1.5,0-2.2-0.1c-0.7-0.1-1.4-0.2-2.2-0.3s-1.5-0.3-2.2-0.4s-1.2-0.3-1.8-0.5l-0.4-0.1c-0.8-0.2-1.5-0.5-2.2-0.7
	s-1.5-0.5-2.2-0.9s-1.5-0.6-2.2-1l-0.3-0.2c-0.4-0.2-0.8-0.4-1.2-0.6l-1.5-0.8L218,39c-0.3-0.2-0.7-0.4-1-0.6s-0.9-0.5-1.2-0.8
	s-0.4-0.3-0.6-0.5c-0.2-0.2-0.4-0.4-0.6-0.5c-0.2-0.2-0.4-0.4-0.6-0.7C213.7,35.6,213.6,35.2,213.5,34.8L213.5,34.8z M213.5,39.2V37
	c0,0.4,0.2,0.8,0.4,1.1c0.2,0.2,0.3,0.5,0.6,0.7c0.2,0.2,0.4,0.4,0.6,0.5c0.2,0.1,0.4,0.3,0.6,0.5s0.8,0.5,1.2,0.8l1,0.6
	c0.4,0.2,0.9,0.5,1.3,0.7s0.6,0.3,0.9,0.5l0.7,0.3c0.6,0.3,1.1,0.5,1.5,0.8c0.8,0.4,1.6,0.7,2.2,1s1.4,0.6,2.2,0.9
	c0.7,0.3,1.5,0.5,2.2,0.7l0.4,0.1c0.6,0.2,1.2,0.3,1.8,0.5s1.4,0.3,2.2,0.4s1.5,0.2,2.2,0.3s1.5,0.1,2.2,0.1l0,0c0.7,0,1.4,0,2.2,0
	c0.6,0,1.4,0,2.2-0.1s1.6-0.1,2.2-0.2l2.5-0.3l1-0.1l1-0.1v2.2l-1,0.1l-1,0.1h-0.3c-0.8,0.1-1.5,0.2-2.2,0.2s-1.4,0.1-2.2,0.2
	s-1.5,0.1-2.2,0.1s-1.5,0-2.2,0l0,0c-0.8,0-1.5-0.1-2.2-0.1s-1.4-0.2-2.2-0.3s-1.5-0.3-2.2-0.4s-1.2-0.3-1.8-0.5l-0.4-0.1
	c-0.8-0.2-1.5-0.5-2.2-0.7s-1.5-0.5-2.2-0.9s-1.5-0.6-2.2-1c-0.5-0.2-1-0.5-1.5-0.8l-0.7-0.3c-0.8-0.4-1.5-0.8-2.2-1.2l-1-0.6
	c-0.5-0.3-0.9-0.5-1.2-0.8l-0.7-0.5c-0.3-0.2-0.4-0.4-0.6-0.5c-0.2-0.2-0.4-0.4-0.6-0.7C213.7,40,213.5,39.6,213.5,39.2L213.5,39.2z
	 M248.8,53.2l-2,0.3h-0.3l-2.2,0.3c-0.7,0.1-1.4,0.1-2.2,0.2S240.6,54,240,54s-1.4,0-2.2,0l0,0c-0.7,0-1.5,0-2.2-0.1
	c-0.7-0.1-1.4-0.2-2.2-0.3s-1.5-0.3-2.2-0.4s-1.2-0.3-1.8-0.5l-0.4-0.1c-0.8-0.2-1.5-0.5-2.2-0.7c-0.7-0.3-1.5-0.5-2.2-0.9
	s-1.4-0.6-2.2-1c-0.5-0.2-1-0.5-1.5-0.8l-0.7-0.3c-0.8-0.4-1.5-0.8-2.2-1.2c-0.9-0.5-1.6-1-2.2-1.4c-0.4-0.3-0.9-0.6-1.3-1
	c-0.2-0.2-0.4-0.4-0.6-0.7c-0.1-0.2-0.2-0.4-0.3-0.6c0,0,0-0.1,0-0.1c0-0.1,0-0.3-0.1-0.4v-2.2c0,0.4,0.2,0.8,0.4,1.1
	c0.2,0.2,0.3,0.5,0.6,0.7c0.2,0.2,0.4,0.4,0.6,0.6c0.2,0.2,0.4,0.3,0.6,0.5c0.6,0.4,1.3,0.9,2.2,1.4c0.7,0.4,1.5,0.8,2.2,1.2
	l0.7,0.3c0.5,0.3,1,0.5,1.5,0.7c0.8,0.4,1.5,0.7,2.2,1s1.4,0.6,2.2,0.9s1.5,0.5,2.2,0.7l0.4,0.1c0.6,0.2,1.2,0.3,1.8,0.5
	s1.5,0.3,2.2,0.4s1.5,0.2,2.2,0.3s1.4,0.1,2.2,0.1l0,0c0.7,0,1.4,0,2.2,0c0.7,0,1.5,0,2.2-0.1s1.5-0.1,2.2-0.2l2.2-0.3h0.3l2-0.3
	L248.8,53.2L248.8,53.2z M279.8,39.6c0,0.3-0.2,0.7-0.4,0.9l-0.2,0.2c-0.3,0.3-0.6,0.5-1,0.8c-0.2,0.1-0.4,0.3-0.8,0.4
	s-0.7,0.3-1.1,0.5l-1.1,0.5c-0.6,0.2-1.2,0.4-1.9,0.6l-0.3,0.1c-0.8,0.2-1.5,0.4-2.2,0.6l-2.2,0.6v-2.2l2.2-0.6l2.5-0.7l0.7-0.2
	c0.5-0.1,0.9-0.3,1.2-0.4l1.1-0.5c0.4-0.2,0.8-0.3,1.1-0.5s0.6-0.3,0.7-0.4c0.4-0.2,0.7-0.5,1-0.8l0.2-0.2c0.2-0.3,0.4-0.6,0.4-0.9
	L279.8,39.6L279.8,39.6z M279.8,41.8V44c0,0.3-0.2,0.7-0.4,0.9l-0.2,0.2c-0.5,0.5-1.1,0.9-1.7,1.2c-0.7,0.4-1.5,0.7-2.2,1
	c-0.6,0.2-1.2,0.4-1.9,0.6l-0.3,0.1c-0.7,0.2-1.4,0.4-2.2,0.6c-0.6,0.2-1.3,0.4-2.2,0.6V47l2.2-0.6c0.8-0.2,1.6-0.4,2.2-0.6l0.3-0.1
	c0.7-0.2,1.3-0.4,1.9-0.6c0.8-0.3,1.5-0.6,2.2-0.9l0.7-0.4c0.4-0.2,0.7-0.5,1-0.8c0.1-0.1,0.1-0.1,0.2-0.2
	C279.7,42.4,279.8,42.1,279.8,41.8L279.8,41.8z M262.1,50.6l-2.2,0.5V31.5l1.3-0.3c0.3-0.1,0.6-0.1,0.9-0.2V50.6L262.1,50.6z
	 M266.5,49.6l-2.2,0.5V30.5l0.2,0l2-0.5l4.9-1.2l1.8-0.5l0.3-0.1l0.7-0.2c0.4-0.1,0.8-0.3,1.2-0.4l1.1-0.4l1.1-0.5l0.8-0.4
	c0.4-0.2,0.7-0.5,1-0.8c0.3-0.3,0.5-0.7,0.6-1.1v2.2c0,0.3-0.2,0.7-0.4,0.9l-0.2,0.2c-0.3,0.3-0.6,0.5-1,0.8
	c-0.2,0.1-0.4,0.3-0.7,0.4s-0.7,0.3-1.1,0.5l-1.1,0.4l-1.2,0.4l-0.7,0.2l-2.5,0.7l-2.2,0.6l-2.2,0.5L266.5,49.6L266.5,49.6z
	 M257.7,51.5l-2.2,0.5V32.4l2.2-0.4V51.5L257.7,51.5z M279.9,30.8c0,0.3-0.2,0.7-0.4,0.9l-0.2,0.2c-0.3,0.3-0.6,0.6-1,0.8
	c-0.2,0.1-0.4,0.3-0.8,0.4c-0.4,0.2-0.7,0.4-1.1,0.5s-0.7,0.3-1.1,0.4s-0.8,0.3-1.2,0.4l-0.7,0.2l-2.5,0.7l-2.2,0.6v-2.1
	c0.8-0.2,1.6-0.4,2.2-0.6l0.4-0.1l1.8-0.5l1-0.3c0.4-0.1,0.8-0.3,1.2-0.4l1.1-0.5l1.1-0.5c0.3-0.2,0.6-0.3,0.8-0.4
	c0.4-0.2,0.7-0.5,1-0.8l0.2-0.2c0.2-0.3,0.4-0.6,0.4-0.9L279.9,30.8L279.9,30.8z M279.9,32.9v2.2c0,0.3-0.2,0.7-0.4,0.9
	c0,0.1-0.1,0.1-0.2,0.2c-0.3,0.3-0.6,0.6-1,0.8c-0.2,0.1-0.4,0.3-0.8,0.4l-1.1,0.5c-0.3,0.1-0.7,0.3-1.1,0.4s-0.8,0.3-1.2,0.4
	l-0.7,0.2l-0.3,0.1c-0.6,0.2-1.2,0.4-1.8,0.5l-0.4,0.1l-2.2,0.6v-2.2c0.9-0.2,1.6-0.4,2.2-0.6l0.4-0.1l1.8-0.5l0.3-0.1
	c0.2-0.1,0.4-0.1,0.7-0.2c0.4-0.1,0.8-0.3,1.2-0.4s0.8-0.3,1.1-0.4s0.7-0.3,1.1-0.5s0.6-0.3,0.8-0.4c0.4-0.2,0.7-0.5,1-0.8l0.2-0.2
	C279.7,33.6,279.8,33.3,279.9,32.9L279.9,32.9z"/>
<path class="st1" d="M151.7,18.9c-8.3,0-15,6.6-15.1,14.9c0,0.1,0,0.1,0,0.2c-0.1,5.4,2.8,10.3,7.5,12.9L137.8,59h17.7
	c11.1-20.6,11.3-20.4,11.3-25.1c0-8.3-6.6-15-14.9-15.1C151.8,18.9,151.8,18.9,151.7,18.9z"/>
<path class="st1" d="M128.7,24.4c1.3-1.9,2.1-4.1,2-6.4c0-5.6-4.5-10.2-10.1-10.2c0,0,0,0-0.1,0c-5.6,0.1-10.1,4.6-10.2,10.2
	c0,2.3,0.8,4.6,2.2,6.4c-3.9,2.5-6.3,6.9-6.2,11.5c0,7.8,6.4,14.2,14.2,14.2s14.2-6.4,14.2-14.2C134.7,31.4,132.4,27,128.7,24.4z"/>
<polygon class="st1" points="86.4,49.5 103.7,49.5 103.7,19.5 81.7,19.5 81.7,30 86.4,30 "/>
<polygon class="st1" points="167.9,30 172.6,30 172.6,49.5 189.9,49.5 189.9,19.5 167.9,19.5 "/>
<polygon class="st1" points="43.3,5 44.4,8.1 47.8,8.1 45,10.1 46.1,13.1 43.3,11.2 40.6,13.1 41.7,10.1 38.9,8.1 42.3,8.1 "/>
<polygon class="st1" points="20.9,5 21.9,8.1 25.3,8.1 22.5,10.1 23.6,13.1 20.9,11.2 18.1,13.1 19.2,10.1 16.4,8.1 19.8,8.1 "/>
<polygon class="st1" points="32.1,0 33.4,3.7 37.4,3.7 34.1,6 35.4,9.8 32.1,7.5 28.8,9.8 30.1,6 26.8,3.7 30.9,3.7 "/>
<path class="st1" d="M28.6,17L28.6,17h0.2c3.3-1.2,6.8-1.5,10.3-0.8h0.2l0.1-0.5h-0.1c-0.8-0.4-1.6-0.6-2.5-0.8
	c-3.5-1-7.2-0.7-10.5,0.9l-0.5,0.2l0.5,0.1C27.1,16.4,27.8,16.6,28.6,17z"/>
<path class="st1" d="M16,33.9l0.1,0.1l0.1-0.1L17,33l0.8-0.9l0.4-0.4c0.3-0.3,0.6-0.6,0.9-0.9c0.9-1,1.8-1.9,2.8-2.8l0.2-0.2v-0.1
	c-0.1-3.2,0.7-6.3,2.2-9.1l0.1-0.2l-0.2-0.1c-0.9-0.5-1.9-0.7-2.9-0.6l0,0c-1.4,0.8-2.6,1.7-3.7,2.9c-1.7,1.9-3,4.2-3.6,6.7
	c-0.3,1.1-0.5,2.3-0.5,3.5l0,0l0,0C14.2,31.9,15.1,32.9,16,33.9z"/>
<path class="st1" d="M25.7,29L25.7,29l0.2,0.1c0.4,0.2,0.8,0.3,1.4,0.6c3.2,1.4,6.3,3.1,9.3,4.9l0.1,0.1l0.1-0.1
	c2.6-1.7,5.1-3.7,7.3-5.9l0.1-0.1v-0.1c-0.9-3.5-2.8-6.7-5.3-9.3l0,0h-0.1c-3.1-0.6-6.2-0.5-9.3,0.3c-0.5,0.1-1,0.3-1.4,0.5H28v0
	c-1.5,2.7-2.3,5.7-2.3,8.8L25.7,29L25.7,29C25.8,29,25.7,29,25.7,29z"/>
<path class="st1" d="M28.5,48.2c2,0,4-0.5,5.8-1.5h0.1v-0.1c0.7-2.5,1-5.1,1-7.7v-1.5l-0.2-0.1L35,37.1c-1.2-0.7-2.3-1.4-3.4-2
	l-0.4-0.2c-0.3-0.2-0.6-0.3-0.9-0.5c-1.5-0.8-2.9-1.4-4.2-2l-0.5-0.3l-0.9-0.4l-0.1,0l-0.1,0.1c-1.2,1.1-2.3,2.3-3.4,3.3
	s-1.8,1.9-2.5,2.7l-0.1,0.1V38c0.6,3.1,2.1,6,4.3,8.3c0.4,0.4,0.8,0.8,1.2,1.1H24c1,0.3,2,0.6,3,0.7C27.5,48.2,28,48.2,28.5,48.2z"
	/>
<path class="st1" d="M17.9,45.1c-0.4-0.5-0.8-1.1-1.1-1.6c-0.8-1.5-1.4-3.2-1.6-5v-0.1h0c-0.9-0.8-1.7-1.7-2.4-2.6l-0.4-0.5v0.6
	c0.2,2.5,1,4.9,2.3,7V43c0.1,0.2,0.2,0.3,0.3,0.5l0.1,0.2c0.1,0.1,0.2,0.2,0.3,0.4c0.6,0.9,1.3,1.7,2.1,2.4c0.7,0.6,1.4,1.2,2.2,1.7
	h0.1c0.2,0,0.5,0,0.7,0h0.6l-0.4-0.3C19.6,47,18.7,46.1,17.9,45.1z"/>
<path class="st1" d="M35.7,49.1L35.7,49.1h-0.1c-2.6,1.5-5.7,2.1-8.7,1.5h-0.2v0.2c0,0.1,0,0.1,0,0.2l0,0c0,0.1,0,0.1,0,0.2v0.1h0.1
	c0.3,0.1,0.7,0.2,1,0.3l0.2,0.1l0.2,0c1.4,0.4,2.9,0.6,4.4,0.6c2.9,0,5.7-0.8,8.1-2.3c0.7-0.4,1.4-0.9,2.1-1.4l-0.2-0.3
	C40.4,49.3,38,49.6,35.7,49.1z"/>
<path class="st1" d="M46.5,24.3c0.5,1.1,0.9,2.3,1.1,3.5v0.1h0.1c1.5,0.8,2.8,2,3.7,3.5l0.3-0.1c-0.1-2.7-0.9-5.4-2.4-7.7
	c-0.7-1.2-1.6-2.2-2.5-3.2c-1.3-1.2-2.7-2.3-4.3-3l-0.2-0.1l-0.2,0.6l0.1,0.1C43.9,19.8,45.4,22,46.5,24.3z"/>
<path class="st1" d="M51.1,35.1c-0.8-1.5-1.9-2.7-3.4-3.5l-0.1-0.1l-0.1,0.1L47,32.1l-0.4,0.4c-0.8,0.8-1.9,1.7-3,2.5
	c-1.1,0.9-2.3,1.7-3.6,2.5l-0.1,0.1v0.2c0,0.3,0,0.7,0,1.1v1.2c0,2.2-0.3,4.4-0.8,6.5v0.2h0.2c0.6,0.1,1.2,0.2,1.8,0.1
	c0.4,0,0.9,0,1.4-0.1c1.5-0.2,3-0.8,4.3-1.6l0.5-0.3l0.5-0.4l0.1-0.1l0.2-0.1l0.1-0.1c0.1,0,0.1-0.1,0.2-0.2
	c1.3-1.6,2.2-3.5,2.8-5.6c0.2-0.8,0.3-1.6,0.5-2.6v-0.1C51.3,35.6,51.2,35.4,51.1,35.1z"/>
<path class="st1" d="M6.4,19.3c0-0.3,0-0.5-0.1-0.7l0,0c-0.1-0.7-0.3-1.4-0.5-2.1c-1.4,1.7-1.7,4.1-1,6.1c0.1,0.2,0.2,0.5,0.3,0.7
	c0,0.1,0.1,0.1,0.1,0.2l0.3-0.3c0.2-0.3,0.4-0.7,0.6-1.1C6.4,21.3,6.5,20.3,6.4,19.3z"/>
<path class="st1" d="M8.2,22.6c0.3-0.1,0.7-0.3,1-0.5c0.7-0.4,1.4-0.9,2.1-1.5c0.2-0.3,0.5-0.5,0.8-0.6c-0.3-0.1-0.7-0.1-1-0.1
	c-0.9,0-1.7,0.1-2.5,0.5c-0.1,0-0.1,0.1-0.2,0.1c-0.8,0.4-1.5,1-1.9,1.8c-0.1,0.2-0.2,0.5-0.2,0.8C6.9,23,7.6,22.8,8.2,22.6z"/>
<path class="st1" d="M4.5,27.3c0,0.3,0,0.6,0,0.9c0.4-0.1,0.8-0.4,1.1-0.6c0.4-0.3,0.7-0.6,1-1c0.2-0.2,0.5-0.5,0.6-0.8
	c0.3-0.4,0.6-0.8,0.8-1.2c0.3-0.6,0.8-1.2,1.3-1.6c-0.3,0-0.6,0.1-0.9,0.2c-0.8,0.3-1.6,0.7-2.2,1.3c-0.1,0.1-0.2,0.2-0.3,0.3
	C5.2,25.4,4.7,26.3,4.5,27.3z"/>
<path class="st1" d="M2.5,20.9c-0.8,2.4-0.6,5,0.7,7.1c0.1,0.2,0.2,0.3,0.3,0.5c0,0,0,0,0.1,0l0,0c0,0,0,0,0-0.1l0,0
	C3.8,28,3.9,27.6,4,27.2c0.1-1.2,0-2.4-0.3-3.6c0-0.2-0.1-0.4-0.2-0.6C3.2,22.3,2.9,21.6,2.5,20.9z"/>
<path class="st1" d="M9.1,18.4C9,18.6,8.9,18.8,8.9,19c0.7,0,1.4-0.1,2.1-0.3c0,0,0,0,0.1,0c0.3-0.1,0.5-0.2,0.7-0.3
	c0.3-0.1,0.6-0.3,0.9-0.5c0.4-0.2,0.7-0.5,1.1-0.7l0.4-0.2c0.1-0.1,0.2-0.2,0.4-0.3c-1.2-0.3-2.5-0.2-3.7,0.2
	c-0.1,0-0.2,0.1-0.2,0.1C10,17.2,9.4,17.7,9.1,18.4z"/>
<path class="st1" d="M7.3,18.1c0.1,0.3,0.2,0.5,0.3,0.8c0.4-0.3,0.7-0.6,1-1c0.6-0.8,1-1.8,1.1-2.8c0-0.7,0-1.3-0.1-2
	C7.6,14.7,6.9,16.4,7.3,18.1z"/>
<path class="st1" d="M12.2,13.3c-0.5,0.5-0.8,1.1-0.9,1.8c-0.1,0.2-0.1,0.5-0.1,0.7c1.8-0.1,3-1.5,3.7-4
	C13.9,12.1,13,12.6,12.2,13.3z"/>
<path class="st1" d="M0.7,27.2c-0.1,3,0.6,5.2,2.1,6.7l0,0c0.2,0.2,0.3,0.3,0.5,0.5l0,0c0,0,0.1,0.1,0.1,0.1c0-0.1,0.1-0.2,0.1-0.3
	l0,0c0.1-0.5,0.1-1,0.1-1.4c-0.2-1.3-0.7-2.5-1.4-3.5c-0.1-0.2-0.3-0.4-0.4-0.5C1.5,28.2,1.1,27.7,0.7,27.2z"/>
<path class="st1" d="M5.2,29.3c-0.1,0.2-0.2,0.3-0.3,0.5c-0.5,0.9-0.8,1.9-0.8,2.9l0,0c0,0.3,0.1,0.6,0.2,0.9
	c0.5-0.4,0.9-0.9,1.2-1.4C5.7,32,5.8,31.7,6,31.5c0.3-0.8,0.6-1.6,0.9-2.4c0.2-0.7,0.5-1.4,0.9-2c-0.6,0.2-1.1,0.6-1.5,1
	C5.8,28.4,5.5,28.8,5.2,29.3z"/>
<path class="st1" d="M4.9,35.5c-0.3,1-0.4,2.1-0.1,3.1C4.9,39,5,39.3,5.1,39.6c0.5-0.1,0.9-0.4,1.1-0.9c0.1-0.2,0.1-0.4,0.2-0.6
	c0.2-1,0.3-2.1,0.3-3.1c0-1,0.1-2,0.3-3c-0.2,0.2-0.5,0.5-0.7,0.7c-0.5,0.7-1,1.5-1.3,2.3C5,35.1,5,35.3,4.9,35.5z"/>
<path class="st1" d="M3.1,39.9c0.3,0.2,0.6,0.4,0.9,0.6l0,0l0,0c0.2,0.1,0.4,0.2,0.7,0.3c0-0.3,0-0.6,0-0.9l0,0l0,0
	c0-0.4-0.1-0.8-0.3-1.1c-0.5-1.3-1.3-2.4-2.3-3.4l0,0C2,35.3,1.8,35.1,1.6,35c-0.5-0.4-1-0.8-1.6-1.2C0.6,36.6,1.6,38.7,3.1,39.9z"
	/>
<path class="st1" d="M7.2,45.1c0.1,0.2,0.2,0.4,0.4,0.6c0.5-0.4,0.8-0.9,0.8-1.5c0.1-0.3,0.1-0.5,0.1-0.8c-0.1-0.8-0.2-1.7-0.3-2.5
	C8,40.6,8,40.3,7.9,40.1c-0.2-0.9-0.3-1.8-0.4-2.7c-0.3,0.5-0.5,1-0.7,1.4c-0.2,0.7-0.4,1.4-0.5,2.1c0,0.1,0,0.2,0,0.2s0,0.3,0,0.4
	C6.2,42.8,6.5,44,7.2,45.1z"/>
<path class="st1" d="M1.7,41.1c0.1,0.3,0.2,0.6,0.3,0.9c0.4,1.2,1.1,2.3,2,3.2c0.7,0.8,1.6,1.4,2.6,1.7c0.1,0,0.3,0.1,0.5,0.1
	c0.1,0,0.3,0,0.4,0c0-0.2,0-0.4,0-0.6c0-0.1,0-0.1,0-0.2c-0.1-0.4-0.3-0.7-0.5-1l-0.5-0.6c-0.8-0.7-1.7-1.4-2.6-2
	c-0.4-0.2-0.7-0.4-1-0.6c0,0,0-0.1-0.1-0.1c0,0-0.1-0.1-0.1-0.1C2.3,41.6,1.9,41.4,1.7,41.1z"/>
<path class="st1" d="M9.1,47c0.2,1.3,0.8,2.5,1.8,3.3c0.1,0.1,0.3,0.2,0.5,0.3c0.3-0.5,0.5-1.1,0.4-1.7c0-0.3-0.1-0.5-0.2-0.8
	c-0.3-1.1-0.8-2.1-1.3-3.1c-0.4-0.8-0.8-1.7-1-2.6C9.1,43,9,43.5,9,44.1l0,0c-0.1,0.7-0.1,1.4,0,2.1C9,46.5,9.1,46.8,9.1,47z"/>
<path class="st1" d="M8,51.7c0.8,0.6,1.7,0.9,2.7,1c0.2,0,0.5,0,0.7-0.2c0.2-0.1,0.3-0.2,0.4-0.3c-0.1-0.2-0.3-0.4-0.4-0.6
	c-0.2-0.3-0.5-0.6-0.8-0.8c-1.2-1-2.7-1.7-4.2-2.1c-0.1,0-0.3-0.1-0.4-0.1c-0.7-0.2-1.4-0.3-2.1-0.4C5.1,49.4,6.5,50.6,8,51.7z"/>
<path class="st1" d="M18.3,55.7c0.6,0.9,1.6,1.5,2.7,1.7c0.2,0,0.4,0,0.5,0c0-0.6-0.1-1.2-0.5-1.7c-0.1-0.2-0.3-0.4-0.5-0.6
	c-0.7-0.7-1.4-1.3-2.2-1.9c-0.7-0.5-1.3-1-1.9-1.5c0.1,0.5,0.3,1,0.5,1.4c0.3,0.9,0.7,1.7,1.3,2.5C18.2,55.5,18.2,55.6,18.3,55.7z"
	/>
<path class="st1" d="M23.5,57.3c0.7,0.5,1.6,0.8,2.4,0.7c0.2,0,0.4-0.1,0.6-0.1c-0.3-1.1-1.4-2-3.5-2.7c-0.8-0.2-1.5-0.6-2.2-1
	c0.2,0.4,0.5,0.8,0.8,1.2C22.2,56.1,22.8,56.7,23.5,57.3z"/>
<path class="st1" d="M13.2,56.8c0.9,0.3,1.8,0.4,2.7,0.2c0.3-0.1,0.6-0.3,0.8-0.6c0-0.1,0.1-0.1,0.1-0.2c-0.1-0.1-0.2-0.2-0.3-0.3
	l0,0c-0.3-0.3-0.7-0.6-1.1-0.8c-1.3-0.6-2.7-0.9-4.2-0.9h-0.6c-0.7,0-1.4,0.1-2.1,0.2C10,55.5,11.6,56.3,13.2,56.8z"/>
<path class="st1" d="M13.1,51.7c0,0.1,0.1,0.3,0.2,0.4c0.5,1.1,1.3,2,2.3,2.7c0.2,0.1,0.4,0.2,0.6,0.3c0.2-0.6,0.2-1.3-0.1-1.9
	c-0.1-0.2-0.2-0.5-0.3-0.7c-0.5-1-1.2-1.9-1.9-2.7c-0.6-0.7-1.1-1.5-1.6-2.3c0,0.4,0.1,0.8,0.1,1.3l0,0
	C12.5,49.8,12.7,50.8,13.1,51.7z"/>
<path class="st1" d="M14.4,59.3c1.6,0.4,3.3,0.7,4.9,0.7c0.9,0.1,1.7-0.1,2.4-0.6c0.3-0.2,0.6-0.6,0.7-1l0,0c0,0,0-0.1,0-0.1
	c-0.1-0.1-0.2-0.1-0.3-0.1l0,0c-0.4-0.2-0.9-0.4-1.3-0.4c-1.2-0.2-2.4,0-3.6,0.4c-0.3,0.1-0.5,0.2-0.8,0.3
	C15.8,58.6,15.1,59,14.4,59.3z"/>
<path class="st1" d="M22.5,60.1c-0.7,0.6-1.4,1.2-2,1.9c1.6-0.1,3.2-0.4,4.7-0.9c1.7-0.6,2.5-1.6,2.5-2.9c-0.5-0.1-1.1-0.2-1.6,0
	c-1,0.2-1.9,0.5-2.6,1.1l0,0C23.1,59.6,22.8,59.8,22.5,60.1z"/>
<path class="st1" d="M58.3,22.2c0.2,0.4,0.4,0.7,0.6,1.1c0.1,0.1,0.2,0.2,0.3,0.3c0-0.1,0.1-0.1,0.1-0.2l0.3-0.7
	c0.7-2.1,0.3-4.4-1-6.1c-0.2,0.7-0.4,1.4-0.5,2.1l0,0c0,0.2,0,0.5-0.1,0.7C57.9,20.3,58,21.2,58.3,22.2z"/>
<path class="st1" d="M58,23c0-0.3-0.1-0.5-0.2-0.8c-0.4-0.8-1.1-1.4-1.9-1.8c-0.1,0-0.1-0.1-0.2-0.1c-0.8-0.4-1.6-0.5-2.5-0.5
	c-0.3,0-0.7,0-1,0.1c0.3,0.1,0.6,0.3,0.8,0.6c0.7,0.5,1.3,1,2.1,1.5c0.3,0.2,0.7,0.4,1,0.5C56.7,22.8,57.3,23,58,23z"/>
<path class="st1" d="M58.4,24.7L58,24.4c-0.6-0.6-1.4-1-2.2-1.3c-0.3-0.1-0.6-0.2-0.9-0.2c0.6,0.4,1,1,1.3,1.6
	c0.2,0.4,0.5,0.8,0.8,1.2c0.2,0.3,0.4,0.6,0.7,0.8c0.3,0.4,0.6,0.7,1,1c0.3,0.3,0.7,0.5,1.2,0.6c0-0.3,0-0.6,0-0.9
	C59.6,26.3,59.1,25.4,58.4,24.7z"/>
<path class="st1" d="M60.8,23.1c-0.1,0.2-0.2,0.4-0.2,0.6c-0.4,1.2-0.5,2.4-0.3,3.6c0.1,0.4,0.2,0.9,0.4,1.3l0,0c0,0,0,0,0,0.1l0,0
	c0,0,0,0,0.1,0c0.1-0.1,0.2-0.3,0.3-0.5c1.3-2.1,1.6-4.7,0.7-7.1C61.3,21.7,61,22.4,60.8,23.1z"/>
<path class="st1" d="M53.6,17l-0.2-0.1c-1.2-0.4-2.4-0.5-3.7-0.2c0.1,0.1,0.3,0.2,0.4,0.3l0.4,0.2c0.4,0.3,0.7,0.5,1.1,0.7
	c0.3,0.2,0.6,0.3,0.9,0.5c0.2,0.1,0.4,0.2,0.7,0.3c0,0,0,0,0.1,0c0.7,0.2,1.4,0.3,2.1,0.3c0-0.2-0.1-0.4-0.2-0.6
	C54.9,17.7,54.3,17.2,53.6,17z"/>
<path class="st1" d="M54.7,13c-0.1,0.7-0.2,1.3-0.1,2c0.1,1,0.5,2,1.1,2.8c0.3,0.4,0.6,0.7,1,1c0.1-0.2,0.2-0.5,0.3-0.8
	C57.4,16.4,56.7,14.7,54.7,13z"/>
<path class="st1" d="M49.5,11.8c0.7,2.5,1.9,3.9,3.7,4c0-0.2,0-0.5-0.1-0.7c-0.1-0.7-0.4-1.3-0.9-1.8C51.3,12.7,50.4,12.2,49.5,11.8
	z"/>
<path class="st1" d="M62.4,28.7c-0.1,0.2-0.3,0.4-0.3,0.5c-0.8,1-1.2,2.3-1.4,3.5c-0.1,0.5,0,1,0.1,1.4l0,0c0,0.1,0,0.2,0.1,0.3
	c0,0,0.1-0.1,0.1-0.1l0,0c0.2-0.1,0.4-0.3,0.5-0.5l0,0c1.5-1.5,2.3-3.7,2.1-6.7C63.1,27.7,62.8,28.2,62.4,28.7z"/>
<path class="st1" d="M58,28.1c-0.4-0.4-1-0.8-1.5-1c0.5,0.6,0.8,1.3,0.9,2c0.2,0.8,0.5,1.6,0.9,2.4c0.1,0.3,0.3,0.5,0.4,0.8
	c0.3,0.5,0.7,1,1.2,1.4c0.1-0.3,0.2-0.6,0.2-0.9l0,0c0-1-0.2-2-0.8-2.9c-0.1-0.2-0.2-0.4-0.3-0.5C58.8,28.9,58.4,28.5,58,28.1z"/>
<path class="st1" d="M59.2,34.9c-0.3-0.8-0.7-1.6-1.3-2.3c-0.2-0.2-0.4-0.5-0.7-0.7c0.2,1,0.3,2,0.3,3c0,1.1,0.1,2.1,0.3,3.1
	c0.1,0.2,0.1,0.4,0.2,0.6c0.1,0.5,0.6,0.9,1.1,0.9c0.1-0.3,0.3-0.6,0.4-0.9c0.3-1,0.2-2.1-0.1-3.1C59.3,35.3,59.3,35.1,59.2,34.9z"
	/>
<path class="st1" d="M64.3,33.7c-0.6,0.4-1.1,0.8-1.6,1.2c-0.2,0.1-0.4,0.3-0.5,0.5l0,0c-1,0.9-1.8,2.1-2.3,3.4
	c-0.1,0.4-0.2,0.7-0.3,1.1l0,0l0,0c0,0.3-0.1,0.6,0,0.9c0.2-0.1,0.5-0.2,0.7-0.3l0,0l0,0c0.3-0.2,0.6-0.4,0.9-0.6
	C62.7,38.7,63.7,36.6,64.3,33.7z"/>
<path class="st1" d="M58,41.6c0-0.1,0-0.3,0-0.4c0-0.1,0-0.2,0-0.2c-0.1-0.7-0.3-1.4-0.5-2.1c-0.2-0.5-0.5-1-0.7-1.4
	c-0.1,0.9-0.2,1.8-0.4,2.7c-0.1,0.3-0.1,0.5-0.2,0.8c-0.2,0.8-0.3,1.6-0.3,2.5c0,0.3,0,0.5,0.1,0.8c0,0.6,0.3,1.1,0.8,1.5
	c0.2-0.2,0.3-0.4,0.4-0.6C57.8,44,58.1,42.8,58,41.6z"/>
<path class="st1" d="M61.7,41.9c0,0,0,0.1-0.1,0.1c0,0,0,0-0.1,0.1c-0.3,0.2-0.6,0.4-1,0.6c-0.9,0.6-1.8,1.3-2.6,2l-0.5,0.6
	c-0.2,0.3-0.4,0.6-0.5,1c0,0.1,0,0.1,0,0.2c0,0.2,0,0.4,0,0.6c0.1,0,0.3,0,0.4,0c0.1,0,0.3,0,0.4-0.1c1-0.3,1.9-0.9,2.6-1.7
	c0.9-0.9,1.6-2,2-3.2c0.1-0.3,0.2-0.6,0.3-0.9C62.4,41.4,62.1,41.7,61.7,41.9z"/>
<path class="st1" d="M55.3,46.2c0.1-0.7,0.1-1.4,0-2.1l0,0c0-0.6-0.1-1.1-0.3-1.6c-0.2,0.9-0.6,1.8-1,2.6c-0.5,1-0.9,2.1-1.3,3.1
	c-0.1,0.3-0.1,0.5-0.2,0.8c-0.1,0.6,0,1.2,0.4,1.7c0.2-0.1,0.3-0.2,0.5-0.3c0.9-0.9,1.6-2.1,1.8-3.3C55.2,46.8,55.3,46.5,55.3,46.2z
	"/>
<path class="st1" d="M60.5,48.1c-0.8,0.1-1.4,0.3-2.1,0.4c-0.1,0-0.3,0.1-0.4,0.1c-1.5,0.4-3,1.1-4.2,2.1c-0.3,0.2-0.6,0.5-0.8,0.8
	c-0.1,0.2-0.3,0.4-0.4,0.6c0.1,0.1,0.3,0.2,0.4,0.3c0.2,0.1,0.5,0.2,0.7,0.2c1-0.1,1.9-0.4,2.7-1C57.8,50.6,59.2,49.4,60.5,48.1z"/>
<path class="st1" d="M46.1,55.5c0.6-0.7,1-1.6,1.3-2.5c0.2-0.5,0.3-0.9,0.5-1.4c-0.6,0.6-1.2,1.1-1.9,1.5c-0.8,0.6-1.5,1.2-2.2,1.9
	c-0.2,0.2-0.3,0.4-0.5,0.6c-0.3,0.5-0.5,1.1-0.5,1.7c0.2,0,0.4,0,0.5,0c1.1-0.2,2.1-0.8,2.7-1.7C46.1,55.7,46.1,55.6,46.1,55.5z"/>
<path class="st1" d="M42.6,55.3c0.3-0.4,0.5-0.8,0.8-1.2c-0.7,0.4-1.4,0.7-2.2,1c-2.1,0.7-3.2,1.6-3.5,2.7c0.2,0.1,0.4,0.1,0.6,0.1
	c0.9,0.1,1.8-0.1,2.5-0.7C41.5,56.7,42.1,56.1,42.6,55.3z"/>
<path class="st1" d="M55.8,54.6c-0.7-0.1-1.4-0.2-2.1-0.2h-0.6c-1.4-0.1-2.9,0.3-4.2,0.9c-0.4,0.2-0.8,0.5-1.1,0.8l0,0
	c-0.1,0.1-0.2,0.2-0.3,0.3c0,0.1,0.1,0.1,0.1,0.2c0.2,0.3,0.5,0.5,0.8,0.6c0.9,0.2,1.8,0.2,2.7-0.2C52.8,56.3,54.3,55.5,55.8,54.6z"
	/>
<path class="st1" d="M51.9,48.9L51.9,48.9c0-0.4,0.1-0.8,0.1-1.3c-0.5,0.8-1,1.5-1.6,2.3c-0.7,0.9-1.3,1.8-1.9,2.7
	c-0.1,0.2-0.3,0.5-0.3,0.7c-0.3,0.6-0.3,1.3-0.1,1.9c0.2-0.1,0.4-0.2,0.6-0.3c1-0.7,1.8-1.6,2.3-2.7c0.1-0.1,0.1-0.3,0.2-0.4
	C51.6,50.9,51.8,49.9,51.9,48.9z"/>
<path class="st1" d="M47.7,58.3c-0.2-0.1-0.5-0.2-0.8-0.3c-1.1-0.4-2.4-0.5-3.6-0.4c-0.5,0.1-0.9,0.2-1.3,0.4l0,0
	c-0.1,0-0.2,0.1-0.2,0.1c0,0,0,0.1,0,0.1l0,0c0.1,0.4,0.4,0.8,0.7,1c0.7,0.5,1.6,0.7,2.4,0.6c1.7,0,3.3-0.3,4.9-0.7
	C49.2,58.9,48.5,58.6,47.7,58.3z"/>
<path class="st1" d="M40.9,59.4L40.9,59.4c-0.8-0.6-1.7-1-2.6-1.1c-0.5-0.1-1.1-0.1-1.6,0c-0.1,1.3,0.8,2.2,2.4,2.9
	c1.5,0.5,3.1,0.8,4.7,0.9c-0.6-0.7-1.3-1.3-2-1.9C41.5,59.8,41.2,59.6,40.9,59.4z"/>
</svg>
