<?xml version="1.0" encoding="utf-8"?>
<!-- Generator: Adobe Illustrator 25.2.3, SVG Export Plug-In . SVG Version: 6.00 Build 0)  -->
<svg version="1.1" id="Layer_1" xmlns="http://www.w3.org/2000/svg" xmlns:xlink="http://www.w3.org/1999/xlink" x="0px" y="0px"
	 viewBox="0 0 576 626" style="enable-background:new 0 0 576 626;" xml:space="preserve">
<style type="text/css">
	.st0{fill:#808AFF;}
	.st1{fill:#404EED;}
	.st2{fill:#FF78B9;}
	.st3{fill:#FFA8D2;}
	.st4{fill:#FFFFFF;}
	.st5{fill:#FFD557;}
	.st6{fill:#66BCFF;}
	.st7{fill:none;stroke:#000000;stroke-width:2;stroke-linecap:round;stroke-linejoin:round;}
	.st8{fill:#3FA5F2;}
	.st9{fill:#5865F2;}
	.st10{fill:#FFC619;}
	.st11{fill:none;stroke:#3442D9;stroke-width:8;stroke-linecap:round;stroke-linejoin:round;}
	.st12{fill:none;stroke:#2835BD;stroke-width:8;stroke-linejoin:round;}
	.st13{fill:none;stroke:#2835BD;stroke-width:8;stroke-linecap:round;stroke-linejoin:round;}
	.st14{fill:#8CD9FF;}
	.st15{fill:none;stroke:#000000;stroke-width:2;stroke-linejoin:round;}
	.st16{fill:#2835BD;}
	.st17{fill:#DE3A93;}
	.st18{fill:none;stroke:#000000;stroke-width:8;stroke-linecap:round;stroke-linejoin:round;}
	.st19{fill:none;stroke:#FFA8D2;stroke-width:3;stroke-linecap:round;stroke-linejoin:round;}
	.st20{fill:#121B80;}
	.st21{fill:#FFE75C;}
	.st22{fill:#29CC7A;}
	.st23{fill:none;stroke:#FFFFFF;stroke-width:2;stroke-linecap:round;stroke-miterlimit:10;}
	.st24{fill:none;stroke:#000000;stroke-width:4;stroke-linecap:round;stroke-miterlimit:10;}
	.st25{fill:#15AD75;}
	.st26{fill:#57F287;}
	.st27{fill:#3442D9;}
	.st28{fill:none;stroke:#000000;stroke-width:2;stroke-linecap:round;stroke-miterlimit:10;}
	.st29{fill:none;stroke:#FFFFFF;stroke-width:3.0059;stroke-linecap:round;stroke-miterlimit:10;}
	.st30{fill:#45AAF7;}
	.st31{fill:#C40655;}
	.st32{fill:#A3E1FF;}
	.st33{fill:#287CEB;}
	.st34{fill:none;stroke:#4150F2;stroke-width:2;stroke-linecap:round;stroke-miterlimit:10;}
	.st35{fill:#FF8C19;}
	.st36{fill:none;stroke:#F551A0;stroke-width:2;stroke-linecap:round;stroke-linejoin:round;}
	.st37{fill:#F551A0;}
	.st38{fill:#3F4EEB;}
</style>
<g>
	<path class="st0" d="M409.435,623.719c-0.798-1.597-2.909-2.509-5.703-2.509h-0.057c-1.13,0.007-2.257,0.121-3.365,0.342
		l0.342-1.312c1.483-7.357,0.741-13.915-1.882-17.109c-0.463-0.607-1.058-1.102-1.739-1.448c-0.682-0.346-1.432-0.533-2.196-0.548
		h-0.057c-3.194,0-6.673,3.023-9.467,8.269c-4.106-3.935-10.722-6.216-18.364-6.216c-15.113,0-29.998,8.783-33.135,19.504
		c-0.267,0.992-0.458,2.002-0.57,3.023h1.141c0.121-0.902,0.293-1.797,0.513-2.68c3.023-10.323,17.394-18.706,32.051-18.706
		c7.699,0,14.258,2.338,18.079,6.387c0.056,0.08,0.136,0.139,0.229,0.17c0.092,0.031,0.192,0.031,0.285,0.001
		c0.087-0.005,0.171-0.034,0.241-0.084c0.071-0.05,0.125-0.12,0.158-0.201c2.623-5.133,5.988-8.326,8.84-8.326h0.057
		c0.588,0.011,1.165,0.155,1.689,0.422c0.524,0.267,0.98,0.649,1.334,1.118c2.395,2.966,3.023,9.296,1.654,16.14
		c-0.116,0.753-0.288,1.496-0.513,2.224c-0.022,0.095-0.019,0.193,0.007,0.286c0.027,0.093,0.076,0.178,0.145,0.246
		c0.068,0.068,0.153,0.119,0.246,0.145c0.094,0.027,0.192,0.029,0.286,0.007c1.248-0.327,2.532-0.5,3.821-0.513h0.228
		c2.395,0,4.106,0.684,4.677,1.882c0.25,0.452,0.331,0.977,0.228,1.483h1.141C409.901,625.03,409.78,624.323,409.435,623.719z"/>
	<path class="st1" d="M149.718,626H-6.146c-6.444-5.76-10.38-12.433-9.752-18.592c1.312-13.288,22.242-15.227,42.545-5.646
		l3.992,1.996c0.673-2.444,1.753-4.758,3.194-6.844c10.151-14.885,33.077-16.311,47.905-5.418c1.634,1.195,3.161,2.531,4.562,3.992
		c1.994-2.756,4.268-5.299,6.787-7.585c13.744-12.433,30.055-15.113,36.271-7.471c5.475,6.73,1.255,19.676-9.125,29.884
		C120.234,610.317,150.916,611.058,149.718,626z"/>
	<path class="st2" d="M574.139,604.271c-1.871-2.395-4.032-4.541-6.444-6.387c1.825-3.764,2.167-4.848,1.483-6.102
		c-1.198-2.338-4.619-4.049-8.897-3.536c-0.439,0.048-0.861,0.184-1.243,0.4s-0.713,0.506-0.981,0.855l-3.251,4.848l-5.817,9.695
		c-9.98-10.094-14.143-11.52-20.531-9.98c-6.387,1.54-7.129,7.927-6.102,11.862s3.65,6.616,4.562,7.699
		c-2.36-0.266-4.751-0.033-7.015,0.684c-0.296,0.108-0.563,0.282-0.78,0.51c-0.218,0.228-0.38,0.502-0.474,0.802
		c-0.828,2.382-1.383,4.85-1.654,7.357c-0.228,1.54,9.524,2.737,15.341,2.737h37.412c0.798-2.68,0-5.988,0-5.988
		s3.821-7.186,5.304-9.695C576.535,607.522,575.793,606.61,574.139,604.271z"/>
	<path class="st3" d="M548.989,604.043c3.194,3.479,8.498,5.931,8.498,5.931c2.852-8.84,3.365-13.915,5.418-14.315
		c2.053-0.399,3.251,0.969,4.791,2.224c1.825-3.764,2.167-4.848,1.483-6.102c-1.198-2.338-4.619-4.049-8.897-3.536
		c-0.439,0.048-0.861,0.184-1.243,0.4s-0.713,0.506-0.981,0.855l-3.251,4.848L548.989,604.043z"/>
	<path class="st4" d="M554.578,618.757l-19.105-5.703l-10.037-1.255l1.483,1.825c-2.36-0.266-4.751-0.033-7.015,0.684
		c-0.296,0.108-0.563,0.282-0.78,0.51c-0.218,0.228-0.38,0.502-0.474,0.802c-0.828,2.382-1.383,4.85-1.654,7.357
		c-0.228,1.54,9.524,2.737,15.341,2.737h37.412c0.587-2.117,0.684-4.341,0.285-6.501
		C566.497,619.156,560.224,618.985,554.578,618.757z"/>
	<path d="M535.302,599.709c-5.19-6.273-11.007-5.076-12.718-0.741c-0.753,2.248-0.833,4.666-0.228,6.958
		c0.855,3.194,3.65,6.616,4.562,7.699c10.95,1.141,17.223,4.734,27.66,5.133C543.628,612.256,539.864,605.184,535.302,599.709z"/>
	<path d="M532.336,625.715c-10.38,0-20.588-2.452-12.433-3.764c8.155-1.312,16.653,3.764,26.519,3.764H532.336z"/>
	<path class="st5" d="M518.021,617.617v0.114c3.878-1.711,10.608-1.198,19.618,1.483c9.011,2.68,15.569,2.966,32.621,2.966v-0.969
		c-16.938,0-23.211-0.228-32.336-2.966c-7.984-2.338-14.315-3.023-18.535-1.996c-0.331,0.083-0.633,0.254-0.874,0.495
		C518.275,616.984,518.104,617.286,518.021,617.617z"/>
	<path class="st4" d="M564.387,612.655c1.072,0,1.939-1.711,1.939-3.821c0-2.11-0.867-3.821-1.939-3.821
		c-1.072,0-1.939,1.711-1.939,3.821C562.448,610.944,563.315,612.655,564.387,612.655z"/>
	<path class="st6" d="M546.537,615.449c-2.566,2.167-5.019,0.342-4.334-3.422C543.585,613.244,545.032,614.386,546.537,615.449z"/>
	<path class="st6" d="M539.522,609.404c-1.711,2.909-4.163,1.483-4.163-0.684c-2.852,0-2.966-2.566-0.855-5.19
		C536.059,605.585,537.735,607.547,539.522,609.404z"/>
	<path class="st6" d="M528.971,597.827c-2.794,4.049-3.593,3.821-4.22,2.966c-2.509,3.251-2.509,0.342-1.027-2.224
		S526.804,596.401,528.971,597.827z"/>
	<path class="st6" d="M523.61,606.325c-1.255,3.707,0.228,4.734,1.996,3.707C524.872,608.834,524.205,607.597,523.61,606.325z"/>
	<path d="M563.817,607.522c-0.456-0.114-0.97,0.228-1.312,0.855c-0.046,0.147-0.068,0.302-0.057,0.456
		c-0.046,1.109,0.257,2.204,0.855,3.137c0.627-0.448,1.061-1.122,1.198-1.882C564.786,608.834,564.501,607.693,563.817,607.522z"/>
	<path class="st7" d="M556.118,616.305c-1.306,1.487-2.053,3.383-2.11,5.361"/>
	<path class="st7" d="M448.844,602.332c0-2.566,1.141-2.566,1.141-5.133c0-2.566-1.141-2.623-1.141-5.19
		c0-2.566,1.141-2.566,1.141-5.133"/>
	<path class="st8" d="M492.301,622.521c-0.124,1.084-0.354,2.154-0.684,3.194h-23.382c0.126-1.378,0.413-2.737,0.855-4.049
		c0.862-2.362,2.18-4.533,3.878-6.387c3.308-3.593,7.87-5.532,12.033-4.676h0.057c3.479,0.798,5.874,3.365,6.844,6.787
		c0.193,0.691,0.327,1.397,0.399,2.11C492.415,620.503,492.415,621.517,492.301,622.521z"/>
	<path class="st6" d="M481.465,615.563c-0.741,3.365,0,6.958,1.54,10.151h-1.084c-1.597-3.65-2.053-7.357-1.369-10.38
		c0.282-1.377,0.887-2.668,1.768-3.764c0.326-0.378,0.744-0.666,1.213-0.835c0.469-0.17,0.975-0.216,1.467-0.134h0.057
		C483.233,611.457,482.036,613.168,481.465,615.563z"/>
	<path class="st9" d="M476.561,625.715h-6.787l4.106-9.182l0.342,0.399c1.154,1.112,1.981,2.517,2.394,4.065
		C477.028,622.546,477.009,624.177,476.561,625.715z"/>
	<path class="st10" d="M454.262,615.05c-1.273-1.27-2.067-2.942-2.244-4.731c-0.177-1.79,0.274-3.584,1.274-5.079l6.501-9.809
		l6.501,9.809c1,1.494,1.451,3.289,1.273,5.079c-0.177,1.789-0.97,3.461-2.243,4.731c-0.722,0.735-1.583,1.318-2.533,1.716
		c-0.95,0.399-1.969,0.603-2.999,0.603s-2.05-0.205-2.999-0.603C455.844,616.368,454.984,615.785,454.262,615.05z"/>
	<path class="st4" d="M457.855,611.286c-0.459-0.458-0.743-1.061-0.805-1.706c-0.063-0.645,0.101-1.292,0.463-1.83l2.281-3.479
		l2.338,3.479c0.342,0.544,0.493,1.187,0.431,1.826c-0.062,0.64-0.334,1.241-0.773,1.71c-0.524,0.519-1.231,0.81-1.968,0.81
		C459.085,612.096,458.378,611.805,457.855,611.286z"/>
	<path class="st11" d="M427.286,621.552v-48.476"/>
	<path class="st8" d="M475.306,621.552c-0.168,1.492-0.696,2.921-1.54,4.163h-17.451c-0.685-1.275-0.983-2.721-0.855-4.163
		c0.062-0.538,0.157-1.071,0.285-1.597l0.342-0.969c0.287-0.744,0.691-1.437,1.198-2.053c0.809-1.094,1.839-2.008,3.023-2.68
		c1.755-1.058,3.768-1.611,5.817-1.597h0.855c2.234,0.177,4.343,1.101,5.988,2.623c0.48,0.501,0.902,1.056,1.255,1.654
		C475.053,618.323,475.432,619.937,475.306,621.552z"/>
	<path class="st6" d="M463.265,617.668c1.42-0.418,2.406-1.32,2.201-2.015c-0.205-0.695-1.522-0.919-2.942-0.502
		c-1.42,0.418-2.406,1.32-2.201,2.015C460.528,617.862,461.845,618.086,463.265,617.668z"/>
	<path class="st8" d="M440.232,625.316c0,0.114-0.057,0.285-0.057,0.399h-19.447c-0.755-1.439-1.11-3.054-1.027-4.676
		c0.342-3.821,3.479-6.444,7.585-6.787c1.143-0.111,2.295-0.054,3.422,0.171c0.617,0.137,1.227,0.309,1.825,0.513
		c2.568,0.94,4.767,2.679,6.273,4.962l0.513,0.969C440.014,622.243,440.329,623.778,440.232,625.316z"/>
	<path class="st9" d="M437.495,625.715h-8.44c-2.053-3.821-0.513-7.528,2.737-8.726l3.023,4.677l0.57,0.912L437.495,625.715z"/>
	<path class="st8" d="M501.54,625.715h-16.368c0.114-2.11,1.54-4.562,4.22-6.673c0.787-0.623,1.627-1.177,2.509-1.654l0.399-0.228
		c3.878-1.939,8.098-2.395,10.608-0.798h0.114l0.228,0.171C505.817,618.586,505.019,622.407,501.54,625.715z"/>
	<path class="st6" d="M503.764,617.046c-0.527,0.012-1.04,0.17-1.483,0.456c-0.533,0.325-0.977,0.776-1.296,1.313
		c-0.318,0.537-0.5,1.143-0.529,1.767c0.008,0.057,0.004,0.115-0.013,0.171c-0.016,0.055-0.044,0.106-0.082,0.149
		c-0.038,0.043-0.085,0.078-0.137,0.102c-0.052,0.023-0.11,0.035-0.167,0.035c-2.338,0.285-3.365,2.509-3.365,4.448
		c0,0.057,0.057,0.171,0.057,0.228h-0.97v-0.228c-0.057-2.224,1.084-4.791,3.764-5.304c0.082-0.725,0.33-1.422,0.726-2.035
		c0.396-0.613,0.928-1.127,1.555-1.5l0.912-0.399l0.171,0.114h0.114l0.228,0.171L503.764,617.046z"/>
	<path class="st8" d="M465.782,625.715h-33.078c-0.433-0.91-0.759-1.867-0.97-2.852c-0.497-1.929-0.477-3.955,0.057-5.874
		c0.187-0.704,0.435-1.392,0.741-2.053c1.384-2.63,3.704-4.645,6.501-5.646l0.228-0.114l0.228-0.114
		c1.84-0.607,3.765-0.915,5.703-0.912c2.31,0.003,4.603,0.388,6.787,1.141c3.099,1.039,5.939,2.731,8.326,4.962
		c0.351,0.294,0.675,0.619,0.97,0.97c0.468,0.506,0.906,1.04,1.312,1.597l0.342,0.456c1.185,1.693,2.054,3.587,2.566,5.589
		C465.674,623.804,465.769,624.758,465.782,625.715z"/>
	<path class="st6" d="M439.776,619.955h-0.969c-0.688-0.034-1.376,0.081-2.015,0.337c-0.64,0.255-1.216,0.647-1.692,1.146
		c-0.114,0.057-0.171,0.171-0.285,0.285c-0.366,0.558-0.606,1.189-0.704,1.848c-0.099,0.66-0.053,1.333,0.133,1.973
		c-0.009,0.08,0.011,0.161,0.057,0.228h0.97c-0.018-0.156-0.056-0.31-0.114-0.456c-0.251-0.891-0.171-1.844,0.228-2.68
		c0.12-0.214,0.274-0.407,0.456-0.57c0.383-0.392,0.847-0.696,1.358-0.893c0.512-0.197,1.06-0.281,1.607-0.247h0.855
		c1.749,0.266,3.389,1.017,4.734,2.167c0.857,0.739,1.572,1.628,2.11,2.623h1.084c-0.754-1.51-1.855-2.819-3.214-3.82
		C443.018,620.893,441.441,620.229,439.776,619.955z"/>
	<path class="st6" d="M460.022,625.715h-0.969c-0.311-1.774-1.1-3.43-2.281-4.791c-0.3-0.365-0.645-0.691-1.027-0.97
		c-2.224-1.768-5.019-2.167-7.129-2.11c-0.127,0.001-0.25-0.046-0.344-0.129c-0.095-0.084-0.155-0.201-0.169-0.327
		c-0.114-2.509-1.768-5.247-4.049-6.787c-1.456-1.037-3.242-1.504-5.019-1.312l0.228-0.114c0.865-0.335,1.798-0.458,2.721-0.359
		c0.923,0.099,1.808,0.418,2.583,0.929c0,0.015,0.006,0.03,0.017,0.04c0.011,0.01,0.025,0.017,0.04,0.017
		c1.195,0.796,2.205,1.839,2.963,3.059c0.757,1.22,1.244,2.589,1.428,4.013c2.167,0.057,4.848,0.513,7.072,2.11
		c0.516,0.391,0.993,0.83,1.426,1.312C458.827,621.84,459.695,623.714,460.022,625.715z"/>
	<path class="st12" d="M492.301,625.715v-52.639"/>
	<path class="st13" d="M492.301,573.076l6.958-6.901"/>
	<path class="st11" d="M427.286,573.076l6.958-6.901"/>
	<path class="st7" d="M415.709,569.825h89.994L500,582.372h9.467"/>
	<path class="st13" d="M485.343,566.175l6.958,6.901"/>
	<path class="st11" d="M420.329,566.175l6.958,6.901"/>
	<path class="st4" d="M471.542,573.076v11.349l-4.22,4.22c-1.369,1.369-1.483,3.764,0,5.076c0.654,0.566,1.495,0.867,2.36,0.846
		c0.865-0.021,1.69-0.363,2.317-0.96l5.361-5.361c0.311-0.316,0.557-0.69,0.724-1.101c0.167-0.411,0.25-0.851,0.246-1.295v-12.775
		c0.008-0.064,0.002-0.13-0.017-0.192c-0.019-0.062-0.051-0.119-0.095-0.168c-0.043-0.048-0.096-0.087-0.156-0.113
		c-0.059-0.026-0.124-0.04-0.189-0.039h-5.874c-0.126,0.014-0.242,0.074-0.327,0.169
		C471.587,572.827,471.541,572.949,471.542,573.076z"/>
	<path class="st4" d="M471.542,575.699v-0.969c0.008-0.389-0.112-0.77-0.342-1.084v-0.171c-0.067-0.088-0.107-0.195-0.115-0.306
		c-0.007-0.111,0.017-0.222,0.072-0.319c0.055-0.097,0.136-0.176,0.236-0.227c0.099-0.051,0.21-0.072,0.321-0.06h6.73
		c0.116,0.005,0.229,0.043,0.326,0.108c0.097,0.066,0.173,0.157,0.22,0.263c0.048,0.107,0.064,0.225,0.048,0.34
		c-0.016,0.115-0.064,0.224-0.138,0.314c-0.164,0.165-0.294,0.361-0.382,0.576c-0.088,0.216-0.133,0.446-0.132,0.679v0.855H471.542z
		"/>
	<path class="st3" d="M467.208,593.607c0.639,0.627,1.499,0.978,2.395,0.978c0.895,0,1.755-0.351,2.395-0.978l-4.791-4.848
		c-0.326,0.314-0.586,0.691-0.763,1.107c-0.177,0.416-0.269,0.864-0.269,1.317s0.091,0.901,0.269,1.317
		C466.622,592.916,466.882,593.293,467.208,593.607z"/>
	<path class="st3" d="M475.477,587.105c-0.006,0.396,0.072,0.789,0.229,1.153c0.157,0.364,0.39,0.69,0.683,0.957l0.97-0.97
		c0.311-0.315,0.557-0.69,0.724-1.101c0.167-0.411,0.25-0.851,0.246-1.295v-1.597c-0.756,0-1.482,0.301-2.017,0.835
		C475.778,585.624,475.477,586.349,475.477,587.105z"/>
	<path class="st3" d="M478.386,575.471h-6.844v1.865h6.844V575.471z"/>
	<path class="st3" d="M478.386,578.722h-6.844v1.865h6.844V578.722z"/>
	<path class="st4" d="M444.453,573.076v15.17l-4.677,4.677c-0.369,0.366-0.662,0.801-0.862,1.281c-0.2,0.48-0.303,0.994-0.303,1.514
		s0.103,1.034,0.303,1.514c0.2,0.48,0.493,0.915,0.862,1.281c0.674,0.652,1.572,1.019,2.509,1.027
		c1.009-0.011,1.973-0.422,2.68-1.141l5.931-5.931c0.367-0.342,0.658-0.758,0.854-1.219c0.197-0.462,0.294-0.959,0.287-1.461v-16.71
		c-0.014-0.141-0.08-0.272-0.186-0.367c-0.106-0.095-0.242-0.147-0.384-0.147h-6.501c-0.067,0-0.134,0.013-0.197,0.039
		c-0.062,0.026-0.119,0.063-0.167,0.111c-0.047,0.047-0.085,0.104-0.111,0.167C444.466,572.942,444.453,573.008,444.453,573.076z"/>
	<path class="st4" d="M444.453,576.041v-1.084c0.009-0.424-0.11-0.842-0.342-1.198l-0.114-0.171
		c-0.059-0.103-0.091-0.218-0.092-0.336c-0.001-0.119,0.029-0.235,0.086-0.338c0.057-0.104,0.14-0.19,0.241-0.252
		c0.101-0.062,0.217-0.096,0.335-0.1h7.471c0.122,0.007,0.24,0.047,0.342,0.116c0.102,0.068,0.182,0.163,0.235,0.274
		c0.052,0.111,0.074,0.233,0.063,0.355c-0.011,0.122-0.055,0.239-0.127,0.338c-0.329,0.425-0.509,0.946-0.513,1.483v0.912H444.453z"
		/>
	<path class="st8" d="M439.662,598.397c0.34,0.354,0.746,0.638,1.197,0.834c0.451,0.196,0.935,0.3,1.426,0.307
		c1.009-0.011,1.973-0.422,2.68-1.141l-5.304-5.361c-0.355,0.35-0.638,0.768-0.83,1.228c-0.193,0.46-0.292,0.954-0.292,1.453
		s0.099,0.992,0.292,1.453C439.024,597.63,439.307,598.047,439.662,598.397z"/>
	<path class="st8" d="M448.844,591.211c0.001,0.439,0.093,0.874,0.269,1.276c0.177,0.402,0.435,0.764,0.757,1.062l1.027-1.084
		c0.367-0.342,0.658-0.758,0.854-1.219c0.197-0.462,0.294-0.959,0.287-1.461v-1.768c-0.847,0-1.66,0.336-2.258,0.935
		S448.844,590.365,448.844,591.211z"/>
	<path class="st10" d="M474.964,568c0.242,0,0.474,0.096,0.645,0.267c0.171,0.171,0.268,0.403,0.268,0.645v4.562h-1.768v-4.562
		c-0.001-0.233,0.088-0.456,0.246-0.626C474.514,568.117,474.732,568.014,474.964,568z"/>
	<path class="st10" d="M448.274,567.772c0.242,0,0.474,0.096,0.645,0.268c0.171,0.171,0.267,0.403,0.267,0.645v5.646h-1.768v-5.646
		c-0.001-0.233,0.088-0.456,0.247-0.626C447.824,567.889,448.042,567.786,448.274,567.772z"/>
	<path class="st14" d="M452.038,581.801v-4.619c-0.313-0.24-0.691-0.379-1.084-0.399c-1.198,0-2.11,1.198-2.11,2.68
		s0.912,2.68,2.11,2.68C451.342,582.144,451.72,582.024,452.038,581.801z"/>
	<path class="st15" d="M425.405,574.445h3.821"/>
	<path class="st15" d="M490.419,574.445h3.821"/>
	<path class="st7" d="M459.224,591.896c0-2.966,1.141-2.966,1.141-5.931s-1.141-2.966-1.141-5.931c0-2.966,1.141-2.966,1.141-5.931"
		/>
	<path class="st7" d="M467.493,600.507c0-2.737,1.141-2.737,1.141-5.475c0-2.737-1.141-2.737-1.141-5.475
		c0-2.737,1.141-2.737,1.141-5.418"/>
	<path class="st6" d="M427.971,616.476c0.85,0,1.54-0.179,1.54-0.399s-0.689-0.399-1.54-0.399c-0.85,0-1.54,0.179-1.54,0.399
		S427.121,616.476,427.971,616.476z"/>
	<path class="st16" d="M342.482,625.715c-12.604-26.006-19.676-57.144-19.676-57.144l-0.57-3.023l-25.379,3.023v57.144H342.482z"/>
	<path d="M337.007,625.715c-11.064-22.812-17.223-50.13-17.223-50.13l-1.483-7.642l-21.272,7.642v50.13H337.007z"/>
	<path class="st16" d="M340.999,549.636h-9.239v76.113h9.239V549.636z"/>
	<path d="M340.999,559.503c-1.384,0.63-2.918,0.852-4.423,0.64c-1.506-0.212-2.919-0.85-4.074-1.838l-0.741-0.627v-3.422
		l9.239-1.768V559.503z"/>
	<path class="st10" d="M326.855,625.715c6.33-1.54,14.942-9.923,14.942-9.923s3.023,6.501,4.791,9.923h6.387
		c0.689,0.004,1.372-0.138,2.003-0.416c0.631-0.278,1.197-0.686,1.66-1.197c0.463-0.512,0.813-1.114,1.027-1.77
		c0.214-0.655,0.287-1.349,0.215-2.035c-0.285-2.794-1.597-5.931-3.593-10.494c-3.365-7.585-4.448-11.577-11.007-11.577h-5.931
		l-13.687-6.045c-8.783,4.619-14.828,7.3-20.018,10.38c-7.642,4.677-13.687,13.915-7.756,23.154H326.855z"/>
	<path class="st16" d="M230.474,575.585v50.13h69.463c11.064-22.812,17.223-50.13,17.223-50.13l1.654-7.015L230.474,575.585z"/>
	<path d="M301.306,577.125l-70.832,6.616v41.974h52.981C288.588,614.024,301.306,577.125,301.306,577.125z"/>
	<path class="st7" d="M291.896,621.894c5.843-9.035,10.482-18.793,13.801-29.029"/>
	<path class="st1" d="M283.626,614.936c-2.934,0-5.749,1.166-7.823,3.24s-3.24,4.889-3.24,7.823h22.128
		c0-2.934-1.166-5.749-3.24-7.823S286.56,614.936,283.626,614.936z"/>
	<path class="st16" d="M299.367,625.715c11.064-22.812,17.28-50.13,17.28-50.13L299.367,625.715z"/>
	<path d="M320.753,625.658c-0.057-0.114-3.992-10.037-6.045-16.425l-0.114-0.399c-1.369-4.334-2.509-7.813-2.338-10.893l-0.97,0.513
		c0,3.08,1.084,6.501,2.452,10.665l0.114,0.399c1.882,5.817,5.247,14.543,5.931,16.197h0.97V625.658z"/>
	<path class="st4" d="M356.397,624.346c0.352-0.344,0.618-0.766,0.776-1.231c0.158-0.466,0.205-0.962,0.136-1.449
		c-0.399-4.049-2.509-8.897-4.734-13.915l-2.281-5.361l-0.855,0.342c0.741,1.825,1.54,3.593,2.281,5.361
		C354.401,614.195,356.967,620.069,356.397,624.346z"/>
	<path class="st10" d="M337.349,609.461c-1.084,4.448-2.623,9.98-4.619,16.254h-11.976c0,0-3.878-9.98-5.988-16.425
		c-2.11-6.444-3.65-11.064-1.54-15.341c2.11-4.277,5.418-4.619,10.437-1.768l-0.741,8.098l3.821,10.836l1.768-5.76
		C332.273,602.903,337.007,604.271,337.349,609.461z"/>
	<path class="st4" d="M321.894,622.122l-0.97-2.794c-2.11-6.216-3.935-11.52-5.19-16.368c-1.027-3.992-1.882-8.726-1.369-10.836
		c-0.419,0.511-0.782,1.065-1.084,1.654c0,3.08,1.027,7.357,1.54,9.41c1.312,4.905,3.137,10.208,5.247,16.425l0.97,2.852
		c0.418,1.179,0.817,2.262,1.198,3.251h1.027C322.806,624.688,322.407,623.548,321.894,622.122z"/>
	<path class="st4" d="M330.562,625.715c1.312-4.391,3.194-10.836,5.646-19.162c0.017-0.06,0.022-0.123,0.013-0.184
		c-0.008-0.062-0.029-0.121-0.061-0.175c-0.032-0.053-0.075-0.1-0.125-0.136c-0.05-0.036-0.108-0.062-0.169-0.075
		c-0.055-0.027-0.116-0.042-0.178-0.042c-0.062,0-0.123,0.014-0.178,0.042c-0.055,0.027-0.103,0.068-0.14,0.117
		c-0.037,0.05-0.062,0.107-0.074,0.168c-2.509,8.498-4.391,15.056-5.703,19.447H330.562z"/>
	<path class="st17" d="M335.182,574.387c-7.186-1.027-9.923-0.513-12.604,5.532c-2.68,6.045-1.312,11.178,3.137,17.679
		s15.398,5.304,19.561,3.764s7.813-5.703,9.866-11.577c2.053-5.874,1.426-12.319-1.654-15.854c-3.08-3.536-8.269-6.444-12.946-4.962
		C335.866,570.452,335.182,574.387,335.182,574.387z"/>
	<path class="st7" d="M338.661,582.885l-2.167-0.57"/>
	<path class="st7" d="M338.775,583.797l-2.224,0.285"/>
	<path class="st7" d="M354.515,582.714l1.711-1.141"/>
	<path class="st7" d="M354.401,583.683l1.768-0.285"/>
	<path d="M332.844,568.57c-1.198,0-2.11,0.798-2.167,1.369c-0.057,0.57,2.11,2.395,4.905,5.874l0.741-0.285
		C333.699,568.798,334.041,568.513,332.844,568.57z"/>
	<path class="st7" d="M338.375,573.874c-2.167,1.369-4.677,3.251-4.677,3.251"/>
	<path class="st2" d="M337.349,609.461c0.684-2.909,1.198-5.361,1.483-7.243c0.798-4.905-0.684-5.703-2.852-6.33
		s-3.707-1.825-4.734-5.532c-1.027-3.707-1.654-3.65-2.909-3.023c-1.369,0.741-2.542,1.796-3.422,3.08
		c-0.684,1.198-0.57,2.566,0.741,5.931c0.868,2.104,2.262,3.951,4.049,5.361l-1.198,3.65
		C332.901,605.184,335.524,605.754,337.349,609.461z"/>
	<path class="st2" d="M344.478,607.18c-0.627-2.794-1.426-5.817,0-6.615c1.426-0.798,5.817-2.852,8.212-8.041
		c0.05-0.129,0.125-0.247,0.222-0.346c0.096-0.099,0.212-0.178,0.34-0.231c0.128-0.054,0.265-0.08,0.404-0.079
		c0.138,0.002,0.275,0.031,0.402,0.086h0.114c0.104,0.038,0.199,0.096,0.279,0.172c0.08,0.076,0.144,0.168,0.186,0.269
		c0.043,0.102,0.064,0.212,0.063,0.322c-0.002,0.111-0.026,0.22-0.072,0.32c-1.167,2.481-2.56,4.848-4.163,7.072
		c0.332,1.337,0.752,2.652,1.255,3.935C349.097,605.355,344.478,607.18,344.478,607.18z"/>
	<path d="M330.448,598.055c0.084-0.094,0.131-0.216,0.131-0.342s-0.046-0.248-0.131-0.342c-0.853-0.894-1.616-1.868-2.281-2.909
		c-1.084-1.882-2.11-5.247-1.369-6.102L326,589.101c-0.127,0.137-0.223,0.299-0.282,0.476c-0.059,0.177-0.08,0.365-0.06,0.55
		c0.302,1.681,0.88,3.299,1.711,4.791c0.689,1.124,1.492,2.175,2.395,3.137l0.342,0.114L330.448,598.055z"/>
	<path class="st7" d="M330.163,601.819c1.645-0.203,3.304-0.279,4.962-0.228"/>
	<path class="st7" d="M324.745,617.331l3.593-11.406"/>
	<path class="st7" d="M326.741,611.115l-3.479-9.98"/>
	<path class="st7" d="M344.535,607.636c1.027,5.532,3.251,13.288,3.251,13.288"/>
	<path class="st1" d="M298.283,611.229c-1.981,0-3.882,0.787-5.283,2.188c-1.401,1.401-2.188,3.302-2.188,5.283v7.3h14.885v-7.3
		c0-1.972-0.779-3.863-2.168-5.263C302.14,612.038,300.255,611.245,298.283,611.229z"/>
	<path class="st1" d="M305.697,618.7c-0.963-0.007-1.919,0.176-2.811,0.539c-0.893,0.363-1.703,0.9-2.388,1.579
		c-0.684,0.679-1.227,1.486-1.597,2.375c-0.371,0.889-0.561,1.843-0.561,2.806h14.657c0-1.936-0.769-3.793-2.138-5.162
		C309.49,619.469,307.633,618.7,305.697,618.7z"/>
	<path class="st18" d="M328.566,555.054l11.235-1.768"/>
	<path class="st19" d="M352.063,575.927l0.399,0.627"/>
	<path class="st19" d="M346.417,571.764c1.477,0.443,2.839,1.202,3.992,2.224"/>
	<path class="st13" d="M339.516,553.343c9.524-1.597,24.808-5.133,32.735-7.243"/>
	<path class="st7" d="M369.4,547.64l3.023,14.029"/>
	<path class="st14" d="M375.274,561.213v-1.825h-11.748v1.882c-0.024,0.261-0.102,0.513-0.228,0.741
		c-0.589,0.857-0.906,1.87-0.913,2.909v7.471c0.001,1.263,0.457,2.482,1.285,3.435c0.828,0.953,1.971,1.576,3.221,1.754
		c1.684,0.228,3.392,0.228,5.076,0c1.234-0.192,2.357-0.822,3.163-1.776c0.807-0.953,1.243-2.165,1.228-3.414v-7.471
		c0.014-1.033-0.284-2.047-0.855-2.909C375.342,561.777,375.262,561.497,375.274,561.213z"/>
	<path class="st9" d="M374.191,562.012v-2.338h-9.638v2.338c0.003,0.46-0.115,0.912-0.342,1.312
		c-0.455,0.673-0.693,1.469-0.684,2.281v6.387c0.001,1.061,0.381,2.086,1.071,2.891s1.645,1.337,2.693,1.5
		c1.364,0.171,2.743,0.171,4.106,0c1.063-0.139,2.039-0.663,2.743-1.471c0.704-0.809,1.088-1.848,1.078-2.92v-6.387
		c-0.005-0.802-0.221-1.589-0.627-2.281C374.347,562.927,374.21,562.476,374.191,562.012z"/>
	<path class="st14" d="M363.526,560.301c0,0.798,2.623,1.426,5.874,1.426c3.251,0,5.874-0.627,5.874-1.426l-5.874-2.338
		L363.526,560.301z"/>
	<path class="st7" d="M363.184,559.845c-0.05,0.086-0.083,0.181-0.096,0.279c-0.013,0.099-0.006,0.198,0.021,0.294
		c0.026,0.096,0.072,0.185,0.134,0.263c0.062,0.078,0.139,0.143,0.226,0.19c0.97,0.57,3.251,0.969,5.931,0.969
		s4.962-0.399,5.931-0.969c0.165-0.106,0.286-0.269,0.339-0.459s0.034-0.392-0.054-0.568L369.4,547.64L363.184,559.845z"/>
	<path class="st4" d="M368.83,572.448l-1.768-0.399c-0.171-0.062-0.312-0.183-0.399-0.342c-0.081-0.159-0.096-0.344-0.043-0.514
		c0.054-0.171,0.171-0.313,0.328-0.398c0.086-0.05,0.181-0.083,0.279-0.096c0.098-0.013,0.198-0.006,0.294,0.021
		c0.096,0.026,0.185,0.072,0.263,0.134c0.078,0.062,0.143,0.139,0.19,0.226L368.83,572.448z"/>
	<path class="st4" d="M368.83,572.448l-0.114-1.768c-0.003-0.084,0.01-0.167,0.039-0.245c0.03-0.079,0.074-0.15,0.132-0.211
		c0.048-0.074,0.114-0.136,0.19-0.181c0.077-0.045,0.163-0.071,0.251-0.076c0.088-0.006,0.177,0.01,0.259,0.044
		c0.082,0.035,0.154,0.088,0.212,0.156c0.149,0.123,0.244,0.298,0.265,0.49c0.021,0.192-0.033,0.384-0.151,0.536L368.83,572.448z"/>
	<path class="st20" d="M369.172,574.102c-0.97,0.285-1.882,0-2.11-0.627c-0.228-0.627,0.114-0.969,1.027-1.198
		c0.398-0.103,0.781-0.255,1.141-0.456c0.741-0.399,1.141,0.057,1.312,0.57C370.712,572.905,370.141,573.76,369.172,574.102z"/>
	<path class="st21" d="M367.424,572.379l-0.684-0.012c-0.472-0.008-0.862,0.368-0.87,0.841l-0.001,0.051
		c-0.008,0.472,0.368,0.862,0.841,0.87l0.684,0.012c0.472,0.008,0.862-0.368,0.87-0.841l0.001-0.051
		C368.273,572.777,367.897,572.387,367.424,572.379z"/>
	<path class="st4" d="M370.655,565.719l1.597-0.855c0.126-0.108,0.224-0.245,0.285-0.399c0.026-0.086,0.035-0.177,0.027-0.266
		s-0.035-0.177-0.078-0.256c-0.042-0.079-0.1-0.15-0.169-0.207c-0.07-0.057-0.15-0.1-0.236-0.126
		c-0.189-0.052-0.391-0.028-0.562,0.068c-0.171,0.096-0.297,0.257-0.35,0.445L370.655,565.719z"/>
	<path class="st4" d="M370.655,565.719l-0.285-1.768c-0.061-0.171-0.158-0.327-0.285-0.456c-0.157-0.084-0.339-0.112-0.514-0.082
		c-0.176,0.031-0.336,0.12-0.455,0.253c-0.109,0.175-0.147,0.385-0.104,0.588c0.043,0.202,0.162,0.38,0.332,0.496L370.655,565.719z"
		/>
	<path class="st20" d="M371.111,565.491c0.798,0.57,1.198,1.483,0.798,1.996c-0.399,0.513-0.855,0.57-1.597-0.057
		c-0.312-0.254-0.658-0.465-1.027-0.627c-0.141-0.035-0.269-0.107-0.372-0.21c-0.103-0.102-0.175-0.231-0.21-0.371
		c-0.035-0.141-0.031-0.289,0.011-0.427c0.043-0.139,0.122-0.263,0.23-0.36C369.286,564.863,370.313,564.92,371.111,565.491z"/>
	<path class="st21" d="M370.715,567.543l0.403,0.553c0.278,0.382,0.813,0.465,1.195,0.187l0.041-0.03
		c0.382-0.278,0.466-0.814,0.188-1.195l-0.403-0.553c-0.279-0.382-0.814-0.465-1.195-0.187l-0.042,0.03
		C370.52,566.626,370.436,567.161,370.715,567.543z"/>
	<path class="st14" d="M369.4,560.814c3.244,0,5.874-0.638,5.874-1.426c0-0.788-2.63-1.426-5.874-1.426
		c-3.244,0-5.874,0.638-5.874,1.426C363.526,560.176,366.156,560.814,369.4,560.814z"/>
	<path class="st14" d="M375.331,559.388h-11.805v0.81h11.805V559.388z"/>
	<path class="st4" d="M371.795,559.845c-0.285,0.057-0.513,0.228-0.513,0.513c0.007,0.06,0.026,0.118,0.056,0.171
		c0.03,0.052,0.07,0.099,0.117,0.136c0.048,0.037,0.103,0.064,0.161,0.08c0.059,0.016,0.12,0.02,0.18,0.012l0.97-0.171
		c0.128-0.022,0.246-0.083,0.338-0.175c0.092-0.092,0.153-0.21,0.175-0.338c-0.006-0.059-0.025-0.115-0.055-0.166
		c-0.03-0.05-0.071-0.094-0.12-0.127c-0.049-0.033-0.105-0.054-0.163-0.063c-0.059-0.009-0.118-0.004-0.175,0.013L371.795,559.845z"
		/>
	<path class="st7" d="M369.4,547.64l-3.023,14.029"/>
	<path class="st7" d="M369.856,548.61l-1.483-3.194"/>
	<path class="st7" d="M369.514,548.781l0.171-3.65"/>
	<path class="st4" d="M353.489,585.794c1.882-2.167,1.597-3.479,0.97-3.878c-0.627-0.399-1.597,0.342-3.308,3.08
		C349.439,587.733,350.865,588.759,353.489,585.794z"/>
	<path class="st4" d="M344.535,585.794c-1.255-2.623-3.422-4.505-5.418-4.22s-1.198,3.251,1.426,5.247
		C343.166,588.816,345.904,588.645,344.535,585.794z"/>
	<path d="M354.344,583.398c0.111-0.513,0.071-1.048-0.114-1.54c-0.513-0.057-1.312,0.513-2.395,2.053
		c0.114,0.798,0.513,1.369,0.97,1.426C353.26,585.394,354.23,584.596,354.344,583.398z"/>
	<path d="M344.592,585.965c0-0.057-0.057-0.114-0.057-0.171c-0.609-1.321-1.528-2.476-2.68-3.365
		c-0.329,0.652-0.468,1.383-0.399,2.11c0.114,1.54,0.913,2.737,1.825,2.68c0.323-0.043,0.625-0.188,0.861-0.413
		C344.376,586.581,344.534,586.286,344.592,585.965z"/>
	<path class="st7" d="M345.675,591.668c3.593-0.912,5.019-1.312,5.589-0.513c0.57,0.798,0.057,1.711-0.798,2.623
		c0.912,1.996,0.627,2.909-1.141,2.909c-1.289-0.092-2.538-0.482-3.65-1.141"/>
	<path class="st7" d="M349.496,592.808c-0.224,0.592-0.531,1.149-0.913,1.654"/>
	<path d="M105.349,625.715h5.931l4.448-13.573h-11.691L105.349,625.715z"/>
	<path class="st22" d="M180.116,625.715H148.35c-20.417,0-32.165-5.874-40.948-12.547l-2.053,12.547h-5.19
		c0-60.224,7.756-117.369,7.756-117.369c1.141-6.444,13.402-9.353,28.629-4.049c15.227,5.304,19.276,12.09,18.706,18.25
		c-0.57,6.159-5.418,47.677-7.243,67.125l3.251,3.536c1.121,1.165,1.953,2.577,2.428,4.122c0.476,1.546,0.582,3.181,0.309,4.775
		l-0.342,1.882C166.201,612.085,185.591,608.035,180.116,625.715z"/>
	<path class="st23" d="M114.246,519.41c-0.513,7.186-0.627,10.151-0.627,11.292c-0.004,0.18,0.03,0.359,0.099,0.526
		c0.068,0.167,0.171,0.318,0.301,0.443c3.365,3.365,7.357,4.448,10.494,4.848c0.181,0.024,0.366,0.01,0.541-0.042
		c0.176-0.052,0.338-0.139,0.478-0.257c0.14-0.119,0.253-0.265,0.333-0.429c0.08-0.165,0.124-0.344,0.131-0.527l0.627-9.125"/>
	<path class="st24" d="M111.737,586.307c-1.889,0.04-3.756-0.412-5.418-1.312"/>
	<path class="st24" d="M107.003,588.93c2.452,0.342,5.475-0.741,5.475-0.741"/>
	<path class="st25" d="M140.822,547.982c-0.513,5.133-0.627,10.779,1.939,12.262c1.597,0.97,4.848,0.855,8.44-0.855
		c1.426-14.201,2.966-26.405,3.707-33.306l-16.995,2.794C136.26,543.534,135.974,548.325,140.822,547.982z"/>
	<path d="M152.645,527.212c2.725-5.714-4.583-14.886-16.324-20.486c-11.741-5.6-23.469-5.508-26.194,0.206
		c-2.725,5.714,4.583,14.886,16.324,20.487C138.192,533.019,149.92,532.926,152.645,527.212z"/>
	<path class="st26" d="M107.402,613.168c8.783,6.673,20.531,12.547,40.948,12.547h31.766c0.541-1.641,0.848-3.349,0.912-5.076
		c-33.705,0-53.266-0.684-80.413-20.987c-0.228,8.098-0.399,16.824-0.456,26.063h5.19L107.402,613.168z"/>
	<path class="st4" d="M109.683,584.482c1.483,5.76,5.532,10.151,9.068,9.809c3.536-0.342,3.65-3.65,2.281-9.182
		c-0.342-1.483-0.627-2.909-0.912-4.391c-1.027-5.247-3.593-7.528-6.73-7.243C110.254,573.76,108.144,578.779,109.683,584.482z"/>
	<path class="st4" d="M109.683,584.482c1.483,5.76,5.532,10.151,9.068,9.809c3.536-0.342,3.65-3.65,2.281-9.182
		c-0.342-1.483-0.627-2.909-0.912-4.391c-1.027-5.247-3.593-7.528-6.73-7.243C110.254,573.76,108.144,578.779,109.683,584.482z"/>
	<path d="M118.979,584.539c0.57,2.509,0.171,4.734-0.798,4.905c-0.97,0.171-2.167-1.141-2.566-4.277
		c-0.399-3.137-0.171-4.848,0.798-4.848C117.383,580.319,118.466,581.973,118.979,584.539z"/>
	<path class="st25" d="M152,603.53c0.084,0.005,0.169-0.011,0.246-0.047c0.077-0.036,0.144-0.09,0.194-0.158
		c0.051-0.067,0.084-0.147,0.097-0.23c0.013-0.084,0.005-0.169-0.024-0.249c-1.141-5.703-4.619-6.501-11.064-5.019
		c-6.444,1.483-9.011,2.053-10.265,2.509c-1.255,0.456-0.684,0.741,7.813,2.053C143.294,603.112,147.642,603.494,152,603.53z"/>
	<path d="M180.743,617.731c-6.33,0.057-16.881-0.057-27.261-0.741c-19.276-1.312-37.013-8.497-52.753-21.329v1.026
		c15.74,12.718,33.42,19.847,52.696,21.101c9.695,0.684,19.504,0.798,25.949,0.798h1.54L180.743,617.731z"/>
	<path class="st9" d="M120.12,580.775c-1.027-5.247-3.593-7.528-6.73-7.243c-3.137,0.285-3.992,2.623-4.22,5.988
		C112.701,580.66,116.423,581.086,120.12,580.775z"/>
	<path d="M201.046,534.979l-18.991,10.608c0.325,0.301,0.734,0.494,1.173,0.556c0.439,0.061,0.885-0.014,1.28-0.214
		c1.084-0.456,3.707-2.852,4.734-3.422c1.027-0.57,3.935-1.711,5.361-2.281c1.758-0.696,3.409-1.637,4.905-2.794
		C200.761,536.405,201.217,536.006,201.046,534.979z"/>
	<path class="st27" d="M154.167,495.571c-3.479-2.167-3.65-2.11-5.589-5.589c-1.939-3.479-4.391-5.19-7.243-5.589L144.871,510
		c7.414,2.167,11.976-1.597,13.003-5.304S157.703,497.739,154.167,495.571z"/>
	<path class="st27" d="M150.688,498.936c-0.97-4.163-3.536-9.011-6.559-12.661c-1.083-1.319-1.851-2.867-2.246-4.527
		c-0.395-1.66-0.407-3.388-0.035-5.054l1.255-5.703c0.882-3.958,0.412-8.098-1.335-11.758c-1.747-3.66-4.671-6.628-8.303-8.431
		c-2.084-1.026-4.353-1.627-6.673-1.768c-4.365-0.32-8.682,1.074-12.036,3.885c-3.354,2.811-5.481,6.818-5.929,11.171
		c-0.095,0.737-0.133,1.481-0.114,2.224v2.452l0.114,10.265c0.124,4.612-0.854,9.186-2.852,13.345
		c-0.829,1.65-1.461,3.392-1.882,5.19l27.888,29.656C145.27,524.999,153.597,512.167,150.688,498.936z"/>
	<path class="st28" d="M132.039,527.223c13.231-2.224,21.558-15.056,18.649-28.287c-0.912-3.935-3.251-8.498-6.045-12.033"/>
	<path class="st27" d="M141.792,499.792c2.623-4.334,3.65-3.764,8.326-2.509c3.764,0.97,8.098,8.669,2.338,12.547
		C146.696,513.707,134.948,511.369,141.792,499.792z"/>
	<path d="M128.79,487.009c0.526-0.402,0.61-1.174,0.189-1.725c-0.421-0.55-1.188-0.671-1.713-0.269
		c-0.525,0.402-0.61,1.174-0.189,1.724C127.498,487.291,128.265,487.411,128.79,487.009z"/>
	<path d="M135.974,487.455c0.525-0.401,0.61-1.174,0.189-1.724c-0.421-0.55-1.188-0.671-1.714-0.269
		c-0.525,0.402-0.61,1.174-0.189,1.724C134.681,487.737,135.448,487.857,135.974,487.455z"/>
	<path class="st29" d="M135.233,486.561c6.102,5.019,3.593,8.612,8.498,16.026"/>
	<path class="st10" d="M128.332,497.796c3.764-2.623,4.905-3.365,6.33-3.308l3.707,0.342l-0.97,15.056l-9.41-0.285L128.332,497.796z
		"/>
	<path d="M146.582,493.975c0.071-0.199,0.095-0.412,0.07-0.622c-0.025-0.21-0.099-0.411-0.214-0.588
		c-0.116-0.177-0.271-0.324-0.454-0.431c-0.183-0.107-0.388-0.169-0.599-0.184l-6.273-0.913c-0.455-0.048-0.914,0.061-1.297,0.31
		c-0.384,0.249-0.671,0.623-0.813,1.059l-3.536,13.117c-0.071,0.2-0.095,0.412-0.07,0.622c0.025,0.21,0.099,0.411,0.214,0.588
		c0.116,0.177,0.271,0.324,0.455,0.431c0.183,0.107,0.387,0.169,0.598,0.184l6.273,0.913c0.456,0.048,0.914-0.061,1.298-0.31
		c0.384-0.249,0.671-0.623,0.812-1.059L146.582,493.975z"/>
	<path d="M146.297,492.663l0.684,0.798l-1.882,0.171L146.297,492.663z"/>
	<path class="st10" d="M149.377,501.331c-0.798-1.312-1.54-2.966-3.707-3.308l-0.285,2.737L149.377,501.331z"/>
	<path class="st4" d="M147.209,494.716c0.06-0.199,0.075-0.409,0.045-0.615c-0.03-0.206-0.105-0.403-0.219-0.577
		s-0.265-0.321-0.441-0.43s-0.376-0.179-0.582-0.204l-6.33-0.913c-0.453-0.038-0.907,0.076-1.289,0.323
		c-0.382,0.248-0.671,0.615-0.821,1.045l-3.536,13.117c-0.06,0.2-0.075,0.409-0.045,0.615c0.03,0.206,0.105,0.403,0.219,0.577
		c0.114,0.174,0.265,0.321,0.441,0.431c0.177,0.109,0.376,0.178,0.582,0.203l6.33,0.855c0.444,0.073,0.899-0.021,1.277-0.263
		c0.379-0.242,0.655-0.615,0.776-1.049L147.209,494.716z"/>
	<path class="st10" d="M145.27,499.906l2.566,0.399c0.52,0.058,0.996,0.317,1.327,0.722c0.331,0.405,0.489,0.924,0.441,1.445
		c-0.013,0.271-0.083,0.536-0.204,0.778c-0.122,0.242-0.293,0.456-0.502,0.628c-0.21,0.172-0.453,0.298-0.715,0.37
		c-0.261,0.072-0.535,0.089-0.803,0.048l-1.882-0.285c-0.585-0.084-1.125-0.359-1.538-0.781c-0.412-0.423-0.674-0.97-0.743-1.557
		c-0.014-0.261,0.032-0.522,0.135-0.763c0.103-0.241,0.259-0.455,0.457-0.626c0.198-0.171,0.433-0.294,0.687-0.359
		C144.749,499.86,145.014,499.853,145.27,499.906z"/>
	<path class="st10" d="M144.415,503.727l1.768,0.285c0.296,0.038,0.58,0.139,0.833,0.297c0.253,0.158,0.468,0.37,0.63,0.619
		c0.163,0.25,0.27,0.532,0.313,0.827c0.043,0.295,0.021,0.595-0.064,0.881c-0.121,0.46-0.412,0.857-0.814,1.11
		c-0.402,0.254-0.885,0.346-1.353,0.258l-1.084-0.171c-0.591-0.082-1.14-0.354-1.562-0.776c-0.422-0.422-0.695-0.971-0.776-1.562
		c-0.017-0.267,0.03-0.534,0.136-0.781c0.106-0.246,0.268-0.464,0.473-0.636c0.205-0.172,0.448-0.293,0.709-0.354
		C143.883,503.663,144.155,503.664,144.415,503.727z"/>
	<path class="st10" d="M138.883,510.228l-6.159-0.855l0.285-2.509l6.159,0.913L138.883,510.228z"/>
	<path class="st10" d="M140.366,500.248l-3.878-0.57c-0.185-0.025-0.358-0.103-0.5-0.225c-0.141-0.121-0.245-0.281-0.298-0.46
		l-0.342-1.027l-0.285-2.11l-2.11,7.414l6.273,0.913c0.584,0.078,1.177-0.043,1.684-0.343c0.507-0.3,0.898-0.762,1.11-1.311
		c0.068-0.261,0.077-0.533,0.027-0.798c-0.05-0.265-0.158-0.515-0.316-0.733c-0.158-0.218-0.363-0.399-0.598-0.528
		C140.897,500.34,140.635,500.264,140.366,500.248z"/>
	<path class="st10" d="M139.111,504.126l-6.159-0.855l0.285,4.106l4.734,0.684c0.578,0.086,1.167-0.033,1.666-0.334
		c0.5-0.302,0.878-0.769,1.071-1.32c0.078-0.257,0.097-0.528,0.055-0.793c-0.042-0.265-0.144-0.517-0.298-0.737
		c-0.154-0.22-0.356-0.402-0.591-0.532C139.64,504.216,139.379,504.14,139.111,504.126z"/>
	<path class="st6" d="M182.796,529.276c0.171-6.159-4.905-7.129-8.383-9.296c-3.479-2.167-7.585-6.73-11.862-9.809
		s-7.984-3.023-15.227-0.798l8.269,16.083c4.676,2.395,5.703,5.019,8.212,8.555s5.874,4.905,9.239,4.277
		c1.768,2.909,2.11,3.593,4.676,2.68c2.566-0.912,6.787-2.852,7.927-6.216C186.789,531.387,185.135,530.816,182.796,529.276z"/>
	<path class="st30" d="M178.519,539.029c-2.167-0.513-3.023-1.711-4.391-3.593l-1.198-1.597c-5.874-1.198-8.269-4.334-9.581-6.615
		c-0.627-1.084-1.768-1.939-2.852-2.737c-1.084-0.798-2.167-1.654-2.794-2.68c-0.472-0.769-0.891-1.569-1.255-2.395
		c-0.456-1.198-0.855-1.996-1.597-2.224c-0.741-0.228-1.996,0.228-3.194,0.741c-1.088,0.524-2.237,0.907-3.422,1.141
		c-0.098,0.018-0.199-0.001-0.283-0.054c-0.084-0.052-0.146-0.135-0.173-0.231c-0.003-0.103,0.029-0.205,0.091-0.288
		c0.062-0.083,0.151-0.142,0.251-0.168c1.116-0.188,2.194-0.553,3.194-1.084c1.369-0.57,2.509-1.084,3.707-0.741
		c1.198,0.342,1.597,1.369,2.11,2.623c0.513,1.255,0.684,1.483,1.141,2.281c0.755,0.958,1.66,1.786,2.68,2.452
		c1.141,0.912,2.338,1.825,3.023,3.023c1.312,2.338,3.593,5.133,9.239,6.273h0.114l0.114,0.114c0.513,0.627,0.912,1.255,1.312,1.768
		c1.255,1.768,2.053,2.852,3.878,3.308c0.05-0.004,0.099,0.005,0.144,0.025c0.045,0.021,0.084,0.053,0.112,0.094
		c0.029,0.04,0.047,0.087,0.052,0.136c0.005,0.05-0.003,0.099-0.023,0.144c0.004,0.05-0.005,0.099-0.025,0.144
		c-0.021,0.045-0.053,0.084-0.093,0.113c-0.04,0.029-0.088,0.046-0.137,0.051C178.614,539.057,178.565,539.049,178.519,539.029z"/>
	<path class="st28" d="M155.251,515.988c-0.766,2.448-1.263,4.973-1.483,7.528"/>
	<path class="st14" d="M158.616,545.644c-5.19,4.677-9.581,3.365-11.634,3.137c-2.053-0.228-1.825-1.711-1.996-2.966
		c-0.171-1.255-0.285-3.137-0.285-3.137c-5.19-0.342-5.817-3.878-5.931-7.015s-0.912-3.593-1.312-5.817
		c-6.257-1.124-12.171-3.674-17.285-7.452c-5.113-3.778-9.287-8.683-12.2-14.334l5.418-3.935l12.09,7.87
		c8.155-3.023,12.661-4.562,17.052-4.848c4.391-0.285,8.726,1.369,10.151,7.471c1.426,6.102,1.597,7.984,2.909,10.893
		c0.342,0.741,0.912,1.768,1.483,2.852c1.597,3.251,3.251,7.813,0,12.775C157.472,542.678,157.987,544.184,158.616,545.644z"/>
	<path d="M116.812,519.581c-0.171-4.049,1.369-6.901,4.163-7.357l-7.072-4.905l-5.133,2.224
		C110.083,513.194,113.447,517.186,116.812,519.581z"/>
	<path class="st6" d="M148.692,546.728l0.114-0.741c-1.027-0.171-1.084-0.912-1.369-4.391v-0.456l-0.228-0.114
		c-2.281-0.57-3.821-1.939-3.935-6.558c-0.019-2.194-0.465-4.363-1.312-6.387c-0.221-0.475-0.394-0.972-0.513-1.483
		c-0.114-0.456-0.285-0.912-0.399-1.312c-0.644-1.61-0.822-3.369-0.513-5.076c0.228-1.768,0.057-2.737-0.513-3.251
		c-0.57-0.513-1.996-0.342-4.106,0.342h-0.285c-3.365,1.084-10.094,3.308-16.881,3.878l0.855,0.627
		c6.616-0.627,13.003-2.737,16.254-3.764l0.285-0.114c1.711-0.57,2.909-0.855,3.422-0.456c0.513,0.399,0.399,1.141,0.228,2.566
		c-0.304,1.824-0.107,3.697,0.57,5.418c0.148,0.408,0.262,0.828,0.342,1.255c0.171,0.513,0.342,1.027,0.57,1.54
		c0.814,1.953,1.24,4.045,1.255,6.159c0.114,4.277,1.312,6.387,4.22,7.243C146.981,545.131,147.095,546.443,148.692,546.728z"/>
	<path class="st27" d="M128.446,496.997c-1.654-1.426-2.909-1.312-4.905-0.456c-2.11-1.939-4.848-2.224-7.699-1.255
		c-2.852,0.97-7.243,2.281-9.809,2.966c-0.143,0.054-0.299,0.064-0.448,0.032c-0.149-0.033-0.286-0.108-0.395-0.216
		c-0.108-0.108-0.182-0.245-0.215-0.395c-0.033-0.149-0.022-0.305,0.031-0.448l1.882-6.844c-6.102,4.562-8.098,14.315-6.159,19.618
		c1.939,5.304,10.38,5.247,13.06,3.764c2.68-1.483,3.593-1.939,6.673-1.369c3.08,0.57,5.475,0.97,9.524-2.11l2.395-0.798
		C133.294,504.297,132.496,500.533,128.446,496.997z"/>
	<path class="st28" d="M128.446,496.997c-1.654-1.426-2.909-1.312-4.905-0.456c-2.11-1.939-4.848-2.224-7.699-1.255
		c-2.852,0.97-7.243,2.281-9.809,2.966"/>
	<path class="st28" d="M123.542,496.541c1.703,1.319,3.122,2.97,4.171,4.851c1.049,1.882,1.706,3.957,1.932,6.099"/>
	<path class="st22" d="M140.822,494.83c0.026-0.079,0.034-0.162,0.025-0.244c-0.01-0.083-0.037-0.162-0.081-0.232
		c-0.043-0.071-0.102-0.131-0.171-0.177c-0.069-0.046-0.147-0.076-0.229-0.088h-0.57c-0.159-0.035-0.325-0.006-0.463,0.079
		c-0.139,0.085-0.238,0.221-0.279,0.378l-0.513,1.882c-0.026,0.083-0.033,0.171-0.02,0.257c0.013,0.086,0.046,0.168,0.095,0.24
		c0.05,0.071,0.115,0.131,0.191,0.173c0.076,0.042,0.161,0.067,0.248,0.071h0.57c0.15,0.019,0.302-0.017,0.428-0.1
		c0.125-0.084,0.217-0.21,0.257-0.356L140.822,494.83z"/>
	<path class="st10" d="M131.697,483.88c0.441-0.893,1.092-1.665,1.896-2.251c0.805-0.586,1.739-0.968,2.724-1.114
		c0.114,0,0.171-0.114,0.114-0.171c-0.741-2.737-0.399-4.277,0.57-6.273c0.01-0.014,0.016-0.031,0.018-0.048
		c0.002-0.017,0.001-0.035-0.005-0.051c-0.006-0.017-0.015-0.032-0.027-0.044c-0.012-0.012-0.027-0.022-0.043-0.028
		c-3.194-1.369-4.391-3.65-4.734-5.361c-0.057-0.114-0.228-0.171-0.285-0.057c-1.426,2.852-3.365,2.966-5.019,2.738
		c-0.114,0-0.171,0.114-0.114,0.171c1.654,3.194,0.456,5.475-1.198,7.072c-0.009,0.022-0.013,0.046-0.012,0.07
		c0.001,0.024,0.007,0.048,0.018,0.069c0.011,0.021,0.026,0.041,0.044,0.056c0.018,0.015,0.04,0.026,0.063,0.033
		c3.194,0.57,4.905,2.68,5.703,5.133C131.469,483.937,131.64,483.994,131.697,483.88z"/>
	<path class="st28" d="M139.111,504.126l-3.251-0.456"/>
	<path class="st28" d="M145.042,503.955l1.825,0.285"/>
	<path class="st28" d="M132.096,468.425c1.426-3.194,1.312-5.418,0.912-6.673"/>
	<path class="st28" d="M136.659,474.014c0.89,0.136,1.799,0.08,2.664-0.166c0.866-0.246,1.669-0.675,2.354-1.259"/>
	<path class="st28" d="M131.697,483.88c0.005,0.424-0.053,0.847-0.171,1.255"/>
	<path class="st28" d="M125.88,478.519c-2.11,1.483-5.304,1.255-7.528,0.57"/>
	<path class="st28" d="M126.907,471.22c-0.798-1.654-2.281-3.536-3.65-4.163"/>
	<path class="st28" d="M136.431,480.344c0.736,0.393,1.523,0.681,2.338,0.855"/>
	<path class="st31" d="M130.328,474.242c0.97,3.764,2.224,3.536,2.794,2.395c0.57-1.141,0.97-2.566,1.882-2.452
		s0.684,1.711-0.399,3.992s-2.852,2.794-4.505,0.798c-1.654-1.996-1.711-3.935-1.768-5.304
		C128.275,472.303,129.701,471.961,130.328,474.242z"/>
	<path class="st29" d="M128.047,486.104c0.684,7.87-3.308,11.634-4.562,19.447"/>
	<path class="st28" d="M137.001,529.904c-1.027-3.365-1.483-9.524,1.312-14.942"/>
	<path class="st28" d="M136.374,521.52c-0.643-1.25-0.958-2.644-0.912-4.049"/>
	<path class="st28" d="M108.258,497.625l-4.22,1.369"/>
	<path class="st28" d="M150.175,497.111l2.852,0.798"/>
	<path class="st10" d="M201.046,534.922c-0.313,0.457-0.676,0.878-1.084,1.255c-1.825,1.825-5.988,3.878-8.212,4.734
		c-1.692,0.536-3.248,1.43-4.562,2.623c-1.654,1.312-3.707,3.08-5.133,2.053c-1.796-1.653-3.437-3.467-4.905-5.418
		c-0.083-0.102-0.137-0.225-0.157-0.355c-0.021-0.13-0.005-0.263,0.043-0.386c0.798-2.281,3.365-5.532,7.072-7.243
		c0.123-0.048,0.256-0.064,0.386-0.043c0.131,0.02,0.253,0.074,0.355,0.157c2.167,1.54,3.479,1.939,5.247,1.882
		c1.768-0.057,5.19-1.198,7.984-1.996C200.875,531.387,200.932,532.641,201.046,534.922z"/>
	<path class="st21" d="M178.747,542.165c1.019,1.219,2.124,2.363,3.308,3.422c1.426,1.027,3.479-0.741,5.133-2.053
		c1.314-1.193,2.87-2.088,4.562-2.623c2.224-0.855,6.387-2.909,8.212-4.734c0.407-0.376,0.77-0.797,1.084-1.255
		c-0.114-2.281-0.627-3.422-2.966-2.737c-2.338,0.684-3.65,1.255-5.361,1.654c-0.509,0.136-0.97,0.411-1.333,0.793
		c-0.362,0.383-0.612,0.858-0.72,1.374c-0.057,0.627-0.171,1.255-0.285,1.996c-3.08-0.627-6.045,0.399-6.673,4.448
		C183.709,542.45,181.086,541.025,178.747,542.165z"/>
	<path class="st4" d="M199.963,536.177l1.084-1.198c0.072-0.12,0.112-0.258,0.114-0.399c-0.052-0.432-0.168-0.855-0.342-1.255
		c-0.456,0.855-1.255,1.711-3.023,3.023c-2.795,2.053-5.931,2.794-7.813,3.422c-1.723,0.642-3.295,1.632-4.619,2.909
		c-1.041,1.176-2.412,2.01-3.935,2.395l0.627,0.513c1.426,1.027,3.479-0.741,5.133-2.053c1.314-1.193,2.87-2.088,4.562-2.623
		C193.974,540.055,198.138,538.002,199.963,536.177z"/>
	<path class="st10" d="M165.174,538.743c-2.909-0.798-5.874,0.57-8.498,5.532c-0.741-0.57-2.566-1.198-5.304-0.684
		c-2.737,0.513-3.764,1.711-4.22,2.623c-0.271,0.527-0.352,1.131-0.228,1.711c0.171,0.741,0.399,1.711,0.741,3.308
		c0.513,2.452,0.228,4.62,1.597,4.848l19.162-13.801C168.425,542.279,168.938,539.77,165.174,538.743z"/>
	<path class="st21" d="M165.174,538.743c-2.909-0.798-5.874,0.57-8.498,5.532c-0.364,0.743-0.688,1.504-0.97,2.281
		c-3.023-0.285-4.448,1.027-4.962,3.935c0,0-1.996-1.369-3.194,0.228c0.057,0.171,0.057,0.342,0.114,0.513
		c0.513,2.452,0.228,4.62,1.597,4.848l19.162-13.801C168.425,542.279,168.938,539.77,165.174,538.743z"/>
	<path class="st4" d="M168.425,541.481l-1.426-1.312c-2.452-0.399-4.505-0.456-6.673,1.996c-2.167,2.452-3.593,5.133-5.874,6.73
		c-3.251,2.395-5.988,3.365-6.387,5.133s0.399,1.939,1.198,2.053l19.162-13.801C168.495,542.018,168.495,541.743,168.425,541.481z"
		/>
	<path class="st4" d="M165.972,539.314l1.369,0.399c0.119,0.019,0.232,0.065,0.331,0.134c0.099,0.07,0.181,0.16,0.24,0.265
		c0.529,0.893,0.749,1.935,0.627,2.966l-5.019-0.912c1.654-0.798,2.224-1.54,2.053-2.509c-0.017-0.054-0.018-0.111-0.003-0.165
		c0.015-0.054,0.046-0.102,0.089-0.139c0.043-0.037,0.095-0.06,0.151-0.067C165.866,539.279,165.922,539.289,165.972,539.314z"/>
	<path d="M149.377,556.138c4.905,0.97,7.072-0.57,9.182-2.737c0.875-0.968,1.895-1.795,3.023-2.452
		c2.909-1.654,5.19-3.422,6.73-6.216s-3.194-4.619-6.273-2.053c-3.08,2.566-3.251,5.589-9.353,9.353
		C148.521,554.655,147.951,555.853,149.377,556.138z"/>
	<path class="st4" d="M150.074,547.237c0.029-0.566-0.229-1.039-0.575-1.057c-0.346-0.018-0.65,0.427-0.678,0.993
		c-0.029,0.566,0.229,1.04,0.574,1.057C149.742,548.248,150.046,547.803,150.074,547.237z"/>
	<path class="st4" d="M201.217,534.238c-0.1-0.578-0.293-1.137-0.57-1.654c-0.057-0.057-0.114-0.114-0.171-0.057h-0.057
		c-0.114,0-0.114,0.057-0.114,0.114c0.285,1.198,0.399,2.566-0.228,3.365C201.388,534.979,201.274,534.409,201.217,534.238z"/>
	<path class="st4" d="M180.871,540.302c0.523-0.117,0.802-0.859,0.623-1.659c-0.178-0.799-0.747-1.352-1.269-1.235
		c-0.522,0.117-0.801,0.859-0.623,1.658C179.78,539.865,180.349,540.418,180.871,540.302z"/>
	<path class="st6" d="M223.63,625.715c24.124,0,43.913-10.037,69.919-32.964c26.006-22.926,35.131-30.454,42.488-37.583
		s6.844-11.748,3.023-20.873c-3.821-9.125-6.33-7.813-6.33-7.813c-0.456-7.414-7.699-19.676-15.683-29.542
		c-7.984-9.866-12.775-8.269-21.557-8.269c-8.783,0-11.691,2.395-15.626,12.889c-3.935,10.494-13.744,19.39-32.279,22.641
		s-28.686,3.08-29.2,12.376c-0.513,9.296,0,25.322-8.212,37.982c-10.209,4.934-20.942,8.703-31.994,11.235
		c-6.501,1.483-7.87,5.76-8.498,11.349c-0.627,5.589,1.654,8.612,2.737,10.38c-2.224,2.11-1.768,3.023-0.684,7.984
		c0.456,1.996,0.97,3.992,1.426,5.76c0.372,1.285,1.151,2.414,2.221,3.216c1.07,0.802,2.372,1.235,3.71,1.232H223.63z"/>
	<path class="st30" d="M169.679,597.143c-0.627,5.589,1.654,8.612,2.737,10.38l44.655,5.133l43.229-6.33
		c0,0,28.515-22.983,24.637-30.625c-3.878-7.642-12.033-0.456-22.926,6.958c-10.893,7.414-22.185,8.098-35.131,6.216
		c-12.946-1.882-28.629-7.414-48.704-3.08C171.675,587.276,170.306,591.554,169.679,597.143z"/>
	<path class="st32" d="M289.557,571.878c0.057-9.866-0.285-12.204,3.023-11.748s8.726,1.54,8.726,1.54l-5.874,9.296L289.557,571.878
		z"/>
	<path class="st32" d="M306.894,556.537c0-4.791-0.399-7.927,0.912-8.612c1.312-0.684,2.852,0.171,5.589,2.623
		C316.133,553.001,306.894,556.537,306.894,556.537z"/>
	<path class="st32" d="M175.268,606.325c-0.741-5.76-0.57-10.323,0.97-11.463c1.54-1.141,3.023,1.483,4.106,3.764
		c1.381,2.895,3.105,5.614,5.133,8.098L175.268,606.325z"/>
	<path class="st32" d="M224.77,607.579c1.882-7.699,3.479-9.581,5.076-9.695c1.597-0.114,2.395,3.536,4.676,8.726l-3.764,1.768
		L224.77,607.579z"/>
	<path class="st4" d="M327.425,537.147c-24.238,23.44-38.724,36.328-59.027,51.441c-20.303,15.113-29.371,19.048-46.423,19.048
		s-28.002-9.581-49.559-0.114c-2.224,2.11-1.768,3.023-0.684,7.984c0.456,1.996,0.97,3.992,1.426,5.76
		c0.372,1.285,1.151,2.414,2.221,3.216c1.07,0.802,2.372,1.235,3.71,1.232h44.541c24.124,0,43.913-10.037,69.919-32.964
		c26.006-22.926,35.131-30.454,42.488-37.583s6.844-11.748,3.023-20.873c-3.821-9.125-6.33-7.813-6.33-7.813
		C332.729,529.048,332.9,531.786,327.425,537.147z"/>
	<path class="st21" d="M339.344,534.922c-0.057,3.308-2.11,7.072-7.699,12.205c-10.95,9.98-33.591,30.397-49.16,43.628
		c-17.052,14.657-32.907,26.747-54.008,26.747c-7.357,0-15.398-1.54-23.211-3.023c-13.744-2.623-26.804-5.076-33.42,1.54
		c0.057,0.342,0.171,0.741,0.228,1.084c6.159-6.787,19.219-4.334,33.021-1.711c7.87,1.483,15.969,3.023,23.382,3.023
		c21.386,0,38.039-12.775,54.578-26.918c15.569-13.288,38.267-33.762,49.16-43.685c4.106-3.764,7.072-7.243,7.813-11.064
		L339.344,534.922z"/>
	<path d="M275.527,607.237l-7.927-18.022c-3.041,2.243-5.836,4.239-8.383,5.988l-0.684,0.798c2.966-1.255,5.931,0.399,6.159,5.475
		c0.057,2.737,0.057,8.269,0.057,12.718C268.465,612.073,272.063,609.75,275.527,607.237z"/>
	<path d="M182.397,621.152c-4.562,0.057-6.787,1.882-4.962,3.65c0.664,0.617,1.546,0.945,2.452,0.912h39.18
		C199.563,625.715,197.567,620.924,182.397,621.152z"/>
	<path class="st30" d="M316.76,520.494c-5.874,7.528-7.927,10.494-5.475,18.535c1.027,3.479,2.338,7.186,3.422,10.265l12.718-12.147
		c5.475-5.361,5.304-8.098,5.304-10.665c-0.399-6.33-5.703-16.197-12.262-25.093C323.775,506.179,322.635,512.966,316.76,520.494z"
		/>
	<path class="st14" d="M308.947,510.913c3.365-12.832,3.023-21.386-5.247-22.242c-2.452-0.228-5.076,0-8.212,0
		c-8.84,0-11.691,2.395-15.626,12.889c-3.935,10.494-13.744,19.39-32.279,22.641s-28.686,3.08-29.2,12.376
		c-0.513,9.296,0,25.322-8.212,37.982c-1.198,2.11,0.228,3.536,17.28,3.536s27.204-1.027,30.055-8.155
		c2.852-7.129,6.958-22.698,9.011-28.857c2.053-6.159,1.711-9.695,13.06-12.262C290.926,526.254,305.754,523.288,308.947,510.913z"
		/>
	<path d="M269.539,527.223c9.125-3.764,15.569-2.909,25.264-7.528c9.695-4.62,10.95-8.041,12.147-14.372s2.053-13.801-3.821-14.315
		s-11.178-0.285-13.858,0.627c-2.68,0.912-3.365,2.566-6.273,8.555s-4.334,14.885-17.394,20.702L269.539,527.223z"/>
	<path class="st32" d="M192.662,603.473c0.057,2.909,0.855,7.072,2.452,7.471c1.597,0.399,2.338-2.852,3.992-6.901
		C197.339,602.218,192.662,600.336,192.662,603.473z"/>
	<path class="st2" d="M265.433,590.242c-1.413,0.058-2.796,0.428-4.049,1.084c-5.304,2.68-5.247,4.962-5.076,5.76
		c7.243-4.391,10.437,0.456,12.49,14.657c0.798,5.589,2.224,8.326,6.33,8.326c5.019,0,7.984-3.536,7.642-12.661
		c-0.077-1.722-0.267-3.436-0.57-5.133c-1.426-7.642-4.391-15.341-11.577-15.341c-1.078,0.054-2.123,0.387-3.033,0.967
		S265.937,589.288,265.433,590.242z"/>
	<path class="st3" d="M318.985,564.521c-3.08,2.737-6.159,2.966-6.844,0.57c-0.684-2.395,1.198-6.616,4.277-9.296l5.361-4.734
		c3.08-2.737,6.159-2.966,6.844-0.57c0.684,2.395-1.255,6.616-4.277,9.296L318.985,564.521z"/>
	<path class="st7" d="M265.433,590.242c4.791,0.513,8.441,2.737,9.98,8.783c1.084,4.277,0.741,9.296,1.483,13.63"/>
	<path class="st9" d="M320.011,521.805l-1.426,1.939c-4.505,5.874-6.159,8.041-1.369,23.154l0.741-0.684
		c-4.505-14.258-3.023-16.254,1.312-21.9l1.483-1.939c3.536-4.791,4.848-9.524,4.734-13.573l-1.027-1.597
		C325.03,511.369,323.889,516.559,320.011,521.805z"/>
	<path class="st32" d="M255.053,600.736c0.456-2.566-0.114-3.821-1.426-3.65s-2.452,0.97-3.707,3.878
		C250.947,612.085,253.913,607.75,255.053,600.736z"/>
	<path class="st2" d="M301.934,492.834l8.954-1.141c1.426-0.171,1.939-3.422,2.566-7.528c0.627-4.106-0.114-11.577-0.114-11.577
		l-9.239,2.794L301.934,492.834z"/>
	<path class="st10" d="M326.799,469.908c-3.821-4.277-23.211-19.219-23.211-19.219l-4.562,6.558c0,0,6.444,7.129,11.064,11.919
		c-9.353,0.741-26.234,2.966-26.234,2.966c-11.976-2.395-17.052-3.536-17.052-3.536l12.319-11.691l-4.505-6.73
		c0,0-11.748,7.186-18.364,12.376c-6.616,5.19-7.699,11.577-1.426,16.425c6.273,4.848,8.383,6.33,8.383,6.33l40.435,4.163
		c11.862-3.308,18.934-6.901,23.211-10.608C331.133,475.155,330.62,474.185,326.799,469.908z"/>
	<path class="st7" d="M259.845,467.969c1.426,0.228,3.935,0.912,3.935,0.912"/>
	<path d="M301.135,448.635l-4.049,6.787l4.562,4.676c1.483-1.654,2.966-4.562,2.509-8.954L301.135,448.635z"/>
	<path class="st2" d="M274.901,478.291c-5.475-6.73-7.414-9.638-8.555-13.003c-0.798-2.452,4.049-0.97,10.322,0.913
		C282.942,468.083,281.973,469.851,274.901,478.291z"/>
	<path class="st2" d="M267.031,468.425c-5.76,6.444-5.874,14.315-5.247,25.321c0,0-9.923,9.98-8.498,18.706
		c1.426,8.726,14.999,12.49,30.454,12.319c12.433-0.114,13.801-3.023,14.942-8.897c0.684-3.821,1.198-8.212,1.54-11.634
		c0.345-3.597,1.25-7.119,2.68-10.437c7.642-17.736,1.483-24.124,1.483-24.124l-20.645,1.654L267.031,468.425z"/>
	<path class="st21" d="M271.593,459.186c-4.848,3.593-3.821,9.068,3.023,16.596l3.08,3.08l19.904-3.251
		c6.387-7.927,5.133-13.231,2.795-16.539c3.251-5.361,3.479-9.068,3.422-12.376c-0.057-5.589-5.133-14.372-17.908-14.258
		c-6.958,0.057-13.117,2.794-15.341,11.634C269.768,447.153,269.597,452.171,271.593,459.186z"/>
	<path d="M296.231,439.682c0.152-0.001,0.303,0.031,0.443,0.092c0.14,0.061,0.265,0.152,0.367,0.265
		c0.103,0.113,0.18,0.246,0.227,0.391c0.047,0.145,0.063,0.298,0.047,0.45l-0.684,7.699c-0.202,1.727-1.015,3.325-2.29,4.506
		c-1.276,1.181-2.931,1.869-4.668,1.938h-1.54c-1.816,0.017-3.576-0.627-4.951-1.814c-1.375-1.186-2.271-2.832-2.52-4.631
		l-0.285-2.566c-0.042-0.302-0.192-0.579-0.423-0.779c-0.231-0.199-0.526-0.308-0.831-0.305c-0.314-0.001-0.617,0.115-0.849,0.326
		c-0.232,0.211-0.377,0.502-0.405,0.814l-0.342,4.106c-0.127,1.357-0.749,2.62-1.749,3.546c-1,0.926-2.306,1.451-3.669,1.473
		c-0.817,0.031-1.631-0.116-2.386-0.431c-0.755-0.315-1.432-0.789-1.985-1.391c-0.553-0.602-0.969-1.317-1.219-2.095
		c-0.25-0.778-0.327-1.602-0.228-2.413l0.684-7.756c0.04-0.308,0.188-0.591,0.418-0.8c0.23-0.209,0.526-0.329,0.837-0.34
		L296.231,439.682z"/>
	<path d="M296.972,439.967l6.844,6.73v1.369l-6.787-4.734L296.972,439.967z"/>
	<path class="st2" d="M304.386,469.623c-3.21-3.032-6.99-5.397-11.121-6.958c-3.707-1.312-4.562-1.654-5.418,0.456
		c-0.855,2.11-1.768,4.505-2.11,5.304s-4.391,3.536-6.844,5.589s-5.019,6.444-5.019,6.444l26.006,1.996L304.386,469.623z"/>
	<path class="st2" d="M309.975,469.052l3.365,3.536c-1.54,4.791-2.509,10.779-3.08,17.451l-13.288,0.97l7.414-21.329
		L309.975,469.052z"/>
	<path class="st2" d="M267.031,468.425l-2.452-0.456c-0.376-0.055-0.76-0.027-1.124,0.082c-0.364,0.108-0.701,0.295-0.986,0.546
		c-2.792,2.541-4.675,5.926-5.361,9.638c-0.741,4.334-0.513,4.79,4.505,7.471c3.365,1.825,6.844-6.159,8.726-11.577
		c0.218-0.591,0.304-1.222,0.25-1.85c-0.054-0.628-0.245-1.235-0.561-1.78c-0.317-0.545-0.749-1.013-1.267-1.371
		C268.243,468.768,267.652,468.529,267.031,468.425z"/>
	<path class="st16" d="M269.426,512.795c-4.366-5.089-9.282-9.679-14.657-13.687l-12.775,6.673l4.163,12.433
		c0,0,3.422,4.334,6.616,7.756s8.954,3.536,19.561,4.448C276.327,523.288,274.502,518.783,269.426,512.795z"/>
	<path class="st7" d="M248.61,517.984l1.141-5.532"/>
	<path class="st27" d="M293.436,510.456c-1.027-2.794-4.163-5.019-18.193-5.703l-5.19-5.247l-14.429,11.007
		c5.133,8.669,10.95,19.105,16.71,19.904c5.76,0.798,10.95,0.399,17.794-3.764c4.334-2.68,4.905-3.935,5.019-6.216
		C295.06,517.045,294.484,513.684,293.436,510.456z"/>
	<path class="st14" d="M308.948,510.913c-3.194,12.376-18.022,15.284-29.371,17.908c-10.266,2.338-10.95,5.418-12.49,10.551
		l-7.756-2.053v-7.984l10.208-2.11c9.125-3.764,15.569-2.909,25.264-7.528c9.695-4.62,10.95-8.041,12.147-14.372
		c0.741-3.707,1.312-7.927,0.399-10.836l3.251,0.456C311.458,498.822,310.716,504.297,308.948,510.913z"/>
	<path class="st30" d="M222.148,523.174c-0.756,0.458-1.336,1.157-1.646,1.985c-0.311,0.828-0.333,1.735-0.064,2.578
		c1.654,5.247,2.395,9.296,0.855,22.071c-1.54,12.775-4.106,19.847-5.304,22.47c-0.074,0.156-0.109,0.327-0.104,0.499
		c0.006,0.172,0.052,0.34,0.136,0.49c0.084,0.151,0.202,0.279,0.345,0.375c0.143,0.096,0.307,0.156,0.478,0.176
		c6.387,0.97,15.969,0.855,26.462-0.513c1.77-0.232,3.447-0.93,4.86-2.022c1.413-1.092,2.51-2.539,3.181-4.194
		c2.698-6.694,4.909-13.575,6.616-20.588c3.821-15.74,3.365-15.455,11.577-19.276c-0.627-5.646-0.57-11.064-6.73-11.862
		c-7.186-0.912-15.056,2.623-26.348,5.703C233.896,518.783,231.558,517.642,222.148,523.174z"/>
	<path class="st33" d="M253.059,516.216c-4.734,1.141-10.094,3.08-16.596,4.848c-1.882-1.654-3.65-2.737-8.155-0.97
		c-0.167,0.426-0.301,0.865-0.399,1.312c-2.053,10.208-5.931,26.918,5.703,26.006c11.634-0.912,12.946-7.813,12.604-14.086
		c-0.342-6.273-1.084-9.752,0-11.577C247.298,519.923,251.119,516.73,253.059,516.216z"/>
	<path d="M263.495,530.645c-0.798-6.673-1.312-9.866-3.137-11.121c-1.825-1.255-2.452-0.855-4.848-0.342
		c-2.395,0.513-5.418,1.426-9.296,2.566c-7.243,2.11-16.254,4.791-19.676,4.562l-1.141-0.171c0.798-0.855,5.703-2.623,8.954-3.821
		l2.281-0.855c0.054-0.013,0.104-0.037,0.148-0.07c0.044-0.034,0.08-0.076,0.107-0.124c0.027-0.049,0.043-0.102,0.048-0.157
		c0.005-0.055-0.001-0.11-0.018-0.163l-0.456,0.114l-0.399-0.342l-2.053,0.741c-7.585,2.794-9.752,3.764-9.581,4.848
		c0.171,1.084,1.027,0.855,2.053,0.913c3.536,0.228,12.262-2.338,20.018-4.62c3.821-1.141,7.129-2.11,9.182-2.509
		c2.053-0.399,3.365-0.399,4.163,0.171c0.798,0.57,2.053,4.562,2.794,11.292L263.495,530.645z"/>
	<path class="st9" d="M266.404,447.723l10.836-7.87l-4.049,0.057l-6.501,4.734L266.404,447.723z"/>
	<path class="st9" d="M269.027,454.396c0.934,0.544,1.999,0.821,3.08,0.798c1.362-0.022,2.669-0.547,3.669-1.473
		c1-0.926,1.622-2.189,1.749-3.546l0.171-2.053L269.027,454.396z"/>
	<path class="st9" d="M296.231,439.682h-4.505l-11.121,8.041v0.855c0.128,0.882,0.418,1.733,0.855,2.509l15.455-11.121
		C296.723,439.802,296.483,439.702,296.231,439.682z"/>
	<path class="st9" d="M296.63,448.578l0.342-3.707l-12.661,9.182c1.169,0.647,2.485,0.981,3.821,0.97h1.54
		c1.737-0.07,3.392-0.757,4.668-1.938C295.615,451.903,296.427,450.305,296.63,448.578z"/>
	<path class="st7" d="M276.954,455.878c1.522-0.332,3.097-0.332,4.62,0"/>
	<path d="M229.163,501.16c0.057,0.171,0.114,0.285,0.171,0.285s0.114-0.057,0.171-0.228"/>
	<path class="st16" d="M238.858,498.537c-6.159,2.395-14.771,7.414-22.185,11.577c-4.106,2.281-5.361,3.65-3.194,7.813
		c2.167,4.163,6.273,8.155,9.353,10.893c3.08,2.737,4.791,1.597,7.072,0.114l16.254-10.722l8.612-19.105
		C251.177,496.598,245.074,496.085,238.858,498.537z"/>
	<path class="st34" d="M221.464,521.178c2.623,0.513,2.623,0.798,5.874-1.312c3.251-2.11,19.618-11.976,21.272-13.06"/>
	<path class="st27" d="M262.64,492.492c-2.566-1.882-4.334-1.996-18.136-3.137c-13.801-1.141-20.246-2.566-21.843-0.057
		c-1.597,2.509-0.171,8.783,1.426,13.516c1.597,4.734,2.509,6.273,4.734,6.444c2.224,0.171,22.983,0.855,26.804,1.255l1.882,3.194
		l17.736-8.954C275.243,504.753,265.149,494.374,262.64,492.492z"/>
	<path d="M218.84,517.357c-3.422-2.794-4.791-3.308-4.391-1.426s2.566,4.677,4.905,7.186c2.338,2.509,5.019,5.076,5.931,4.905
		s-0.171-1.882-1.597-4.619C222.47,521.098,220.825,519.046,218.84,517.357z"/>
	<path class="st2" d="M222.604,521.52l-2.852,1.996l-2.338,1.654c-2.795,2.053-1.654,3.707-1.426,5.646
		c0.228,1.939-0.399,3.365-1.711,3.365c-1.312,0-3.251-5.475-4.619-8.098s-5.874-4.734-8.212-6.73c-0.97-0.855-1.198-2.281,0-2.737
		c-0.513-0.741-1.198-2.623,0.513-3.194c1.711-0.57,4.277,2.566,5.703,3.536c1.426,0.97,3.194,1.882,4.505,1.312
		c0.902-0.401,1.778-0.859,2.623-1.369l1.939-1.198l2.11,1.654C220.272,518.573,221.538,519.973,222.604,521.52z"/>
	<path class="st6" d="M308.948,510.913c-3.194,12.376-18.022,15.284-29.371,17.908c-11.349,2.623-11.007,6.045-13.06,12.262
		c-2.053,6.216-6.159,21.786-9.011,28.857l37.925-22.299l15.512-29.428L308.948,510.913z"/>
	<path class="st4" d="M264.978,560.985c-1.255,4.391-2.281,7.699-2.852,10.094s2.053,2.167,4.848,1.369
		c2.794-0.798,3.992-1.996,3.536-4.448C270.054,565.548,266.347,556.024,264.978,560.985z"/>
	<path d="M218.84,517.357l-2.11-1.654c-0.513-0.057-0.798-0.057-1.027,0.114c-0.228,0.171-0.171,0.285-0.114,0.57
		c1.312-0.228,4.562,2.11,4.676,6.73c0.741,0.342,1.141,0.57,1.426,0.399c0.285-0.171,0.684-0.969,0.912-1.996
		C221.538,519.973,220.272,518.573,218.84,517.357z"/>
	<path class="st17" d="M213.822,531.672c-0.57-2.167-2.509-6.616-4.163-8.383c-1.654-1.768-4.277-5.931-5.133-7.3
		c-0.855-1.369-3.08-3.08-3.593-1.54c-0.111,0.761,0.072,1.536,0.513,2.167c-1.198,0.456-0.97,1.882,0,2.737
		c2.338,1.996,6.73,3.821,8.212,6.73c1.483,2.909,2.509,7.129,4.106,7.984l0.456,0.114
		C214.506,534.124,214.335,533.326,213.822,531.672z"/>
	<path class="st35" d="M279.064,429.017c-0.723,2.037-0.802,4.247-0.228,6.33c0.091,0.367,0.305,0.691,0.606,0.919
		c0.301,0.228,0.671,0.347,1.048,0.336h3.479c0.387,0.002,0.77-0.079,1.125-0.236c0.354-0.157,0.67-0.388,0.928-0.677
		c2.11-2.224,5.931-2.794,8.897-1.54l1.768-2.566c0.189-0.251,0.282-0.563,0.261-0.877c-0.021-0.314-0.154-0.61-0.375-0.834
		c-1.729-1.634-3.793-2.873-6.048-3.631c-2.255-0.758-4.647-1.018-7.012-0.76c-0.996,0.12-1.94,0.514-2.725,1.138
		C280.003,427.243,279.405,428.073,279.064,429.017z"/>
	<path d="M310.488,487.359c-0.228,2.68,0.228,3.593,0.855,2.509c0.441-0.973,0.711-2.015,0.798-3.08L310.488,487.359z"/>
	<path class="st7" d="M303.645,469.851c-4.905,0.627-7.642,1.483-10.094,2.623"/>
	<path class="st7" d="M313.682,473.273l2.11,2.11"/>
	<path class="st7" d="M301.192,493.518c0,0-2.566,1.882-4.22,3.251"/>
	<path class="st36" d="M278.665,478.805l-0.456,6.73h-3.023c0.177-2.209,0.52-4.401,1.027-6.558
		c0.113-0.368,0.286-0.715,0.513-1.027l0,0c0.759-0.95,1.641-1.794,2.623-2.509l5.247-3.935c1.485-1.095,2.615-2.602,3.251-4.334
		c0.741-1.939,1.654-4.391,2.053-4.905"/>
	<path class="st37" d="M310.431,469.509c-2.395,6.045-5.019,16.311-3.023,21.215c0.2,0.462,0.449,0.902,0.741,1.312l1.141-0.114
		c-0.432-0.448-0.78-0.969-1.027-1.54c-1.825-4.391,0.456-13.858,2.852-20.132L310.431,469.509z"/>
	<path class="st37" d="M257.621,483.139c0.228,0.269,0.497,0.5,0.798,0.684c0.57-6.673,3.308-12.319,7.528-15.626l-1.141-0.171
		C260.872,471.391,258.248,476.808,257.621,483.139z"/>
	<path class="st7" d="M303.416,493.119l-6.33,0.741"/>
	<path class="st9" d="M294.919,517.3c-2.281,1.54-7.129,3.878-10.208,4.562c-0.769,0.158-1.553,0.234-2.338,0.228
		c-1.235,0.046-2.463-0.21-3.576-0.748c-1.113-0.537-2.078-1.337-2.812-2.332l-2.966-4.163c-2.566-3.65-5.817-8.155-8.155-11.406
		c-0.057-0.114-0.057-0.171-0.114-0.228c-3.536-4.962-5.418-7.129-8.041-7.528c-2.623-0.399-10.208-1.084-23.497-2.11
		c-3.308-0.228-3.821-0.171-4.448,1.312c-0.018,0.056-0.048,0.107-0.088,0.15c-0.04,0.043-0.089,0.076-0.143,0.098
		c-0.055,0.022-0.113,0.031-0.172,0.028c-0.059-0.003-0.116-0.02-0.167-0.048c-0.105-0.049-0.19-0.132-0.242-0.236
		c-0.052-0.103-0.067-0.221-0.043-0.335c0.912-2.224,2.281-2.11,5.361-1.882c7.756,0.627,21.044,1.654,23.611,2.11
		c2.566,0.456,5.361,3.365,8.612,7.927c0,0.057,0.057,0.114,0.114,0.171c2.338,3.251,5.532,7.813,8.155,11.406l2.966,4.22
		c1.597,2.224,4.505,3.137,7.756,2.452c3.251-0.684,8.555-3.422,10.323-4.677C294.871,516.612,294.909,516.956,294.919,517.3z"/>
	<path d="M224.429,490.268c-1.654,1.54-0.798,4.562,0.342,8.726c1.141,4.163,2.566,7.927,3.308,7.813
		c0.741-0.114,1.141-1.597,1.312-3.764c0.171-2.167,0.114-6.045-0.741-8.954S225.684,489.07,224.429,490.268z"/>
	<path class="st2" d="M229.505,501.217l-4.22-0.513c-2.053-0.285-4.106-0.456-6.159-0.57c-0.399,2.452-1.255,5.589-2.452,6.844
		s-3.308,1.198-3.536-1.654c-0.228-2.852-0.057-6.901-1.939-15.341c-0.684-3.137-1.939-5.019-2.395-7.414
		c-0.456-2.395,0.912-2.794,2.167-2.566c-0.285-1.597-0.171-3.65,1.825-3.935c1.996-0.285,2.794,1.426,2.794,3.65
		c0.296-0.41,0.723-0.707,1.21-0.841c0.487-0.135,1.005-0.1,1.47,0.1c1.369,0.513,1.654,2.224,1.483,4.962
		c-0.171,2.737-0.228,5.646,0.912,6.616s1.426,0.627,3.023,0.855l3.878,0.342c0.463,0.728,0.827,1.515,1.084,2.338
		C229.239,496.418,229.527,498.814,229.505,501.217z"/>
	<path d="M229.505,501.217c0.022-2.403-0.266-4.799-0.855-7.129c-0.257-0.824-0.621-1.61-1.084-2.338h-0.513
		c1.426,1.825,2.281,6.616,0,9.182c0.321,0.272,0.688,0.484,1.084,0.627C228.618,501.606,229.101,501.485,229.505,501.217z"/>
	<path class="st17" d="M218.327,482.34c0.228-2.68-1.654-3.821-2.737-2.623c0-2.224-0.741-3.935-2.794-3.65
		c-2.053,0.285-2.11,2.338-1.825,3.935c-1.255-0.228-2.623,0.228-2.167,2.566c0.456,2.338,1.711,4.277,2.395,7.414
		c1.882,8.441,1.654,11.976,1.939,15.341c0.004,0.678,0.224,1.337,0.627,1.882c1.312,1.369,1.882-0.285,1.825-2.794
		c-0.031-3.927,0.197-7.851,0.684-11.748C216.844,488.1,218.156,485.021,218.327,482.34z"/>
	<path class="st2" d="M213.023,476.067c1.768-0.057,1.825,2.167,1.768,4.619l0.798-0.97
		C215.59,477.607,214.905,475.896,213.023,476.067z"/>
	<path class="st7" d="M258.819,504.126c-0.897,2.209-1.964,4.345-3.194,6.387c2.623-1.141,3.707-1.711,3.707-1.711"/>
	<path class="st7" d="M275.757,505.267l6.045,6.159c4.905,0.627,6.045,1.654,7.357,3.308"/>
	<path class="st7" d="M281.802,511.426l5.532,0.171"/>
	<path d="M266.746,569.084c-0.741,1.882-1.996,3.137-2.795,2.852c-0.798-0.285-0.798-1.198,0-2.966
		c0.344-0.717,0.63-1.461,0.855-2.224c0.456-1.654,1.312-1.939,1.939-1.654C267.373,565.377,267.544,567.145,266.746,569.084z"/>
	<path class="st38" d="M221.92,543.705c-0.057,0.97-0.171,2.053-0.285,3.194l12.775,1.426l-13.459,4.22
		c-0.285,1.939-0.57,3.707-0.855,5.361l8.897,0.912c-3.023,1.084-6.33,2.224-9.866,3.593c-0.456,2.015-0.912,3.726-1.369,5.133
		l4.163,0.114l-4.676,1.312c-0.343,1.13-0.762,2.235-1.255,3.308c-0.058,0.147-0.096,0.3-0.114,0.456
		c5.076-1.597,10.208-2.909,15.17-3.992c5.065,0.914,10.059,2.191,14.942,3.821c1.234-0.519,2.343-1.297,3.251-2.281
		c-1.939-0.684-4.791-1.597-8.269-2.566l-1.996-0.513c4.734-0.798,9.125-1.483,13.117-1.996c0.627-1.597,1.312-3.479,1.996-5.532
		c-3.707-0.855-7.528-1.54-11.235-2.167c5.361-1.654,9.581-2.852,13.117-3.707c0.57-1.939,1.141-3.992,1.711-6.159l-7.699-0.798
		l8.498-2.623l0.912-3.593l-17.394,5.304L221.92,543.705z M250.606,562.183c-5.817,0.798-12.604,1.825-19.675,3.365
		c-2.662-0.456-5.456-0.798-8.383-1.027c5.076-1.882,9.524-3.479,13.516-4.791C240.683,560.358,245.702,561.156,250.606,562.183z
		 M255.511,550.606c-4.848,1.198-11.121,2.966-19.733,5.874c-4.619-0.627-8.783-1.084-12.147-1.426l18.706-5.874L255.511,550.606z"
		/>
	<path class="st38" d="M222.148,539.2c-0.057,1.084-0.057,2.281-0.171,3.65c14.6-0.456,31.31-2.224,37.583-2.966
		c0.342-1.483,0.684-2.737,1.027-3.821C256.081,536.633,237.888,538.743,222.148,539.2z"/>
	<path d="M246.842,569.483l2.395,0.798c-0.908,0.984-2.017,1.762-3.251,2.281l-2.281-0.741
		C244.903,571.27,245.972,570.473,246.842,569.483z"/>
	<path d="M252.203,559.274l1.882,0.399c-0.684,2.053-1.369,3.935-1.996,5.532l-2.509,0.342
		C250.644,563.541,251.523,561.442,252.203,559.274z"/>
	<path d="M255.454,547.412l2.224,0.228c-0.57,2.167-1.141,4.22-1.711,6.159l-2.281,0.57c0.342-1.141,0.627-2.338,0.912-3.536
		c0.057-0.114,0.057-0.228,0.114-0.342C254.941,549.465,255.226,548.439,255.454,547.412z"/>
	<path d="M256.937,541.367l2.452-0.741l-0.912,3.593l-2.452,0.741C256.309,543.762,256.651,542.565,256.937,541.367z"/>
	<path d="M260.587,536.063c-0.342,1.084-0.684,2.338-1.027,3.821l-2.338,0.228l1.027-3.764L260.587,536.063z"/>
	<path d="M217.243,568.97l2.852-0.798c-0.399,1.255-0.798,2.452-1.255,3.65l-2.966,0.912c0.018-0.156,0.056-0.31,0.114-0.456
		C216.481,571.205,216.901,570.099,217.243,568.97z"/>
	<path d="M219.125,562.411l2.566-0.97c-0.399,2.167-0.855,4.163-1.426,6.159h-2.509
		C218.213,566.156,218.669,564.426,219.125,562.411z"/>
	<path d="M220.95,552.545l2.11-0.684c-0.228,2.224-0.513,4.277-0.798,6.273l-2.167-0.228
		C220.38,556.252,220.665,554.484,220.95,552.545z"/>
	<path d="M221.92,543.705l1.939,0.228l-0.342,3.137l-1.882-0.171C221.749,545.758,221.863,544.675,221.92,543.705z"/>
	<path d="M224.315,539.143l-0.342,3.65h-1.996c0.114-1.369,0.114-2.566,0.171-3.65H224.315z"/>
	<path class="st4" d="M279.863,553.628l0.114,4.848c0.003,0.252,0.074,0.497,0.202,0.713c0.129,0.216,0.314,0.394,0.533,0.515
		c0.22,0.121,0.469,0.183,0.72,0.177c0.251-0.005,0.497-0.077,0.712-0.208c0.257-0.168,0.456-0.412,0.568-0.699
		c0.112-0.286,0.133-0.6,0.059-0.898l-1.654-5.703L279.863,553.628z"/>
	<path class="st38" d="M271.536,539.029c4.562,1.426,5.475,6.273,6.444,14.486c0.019,0.202,0.093,0.395,0.212,0.559
		c0.119,0.165,0.28,0.294,0.466,0.375c0.186,0.082,0.39,0.112,0.592,0.088c0.201-0.024,0.393-0.102,0.555-0.224l1.597-1.198
		c0.418-0.299,0.746-0.707,0.947-1.18c0.201-0.473,0.268-0.992,0.193-1.5c-0.171-1.027-0.456-2.623-0.741-4.791
		c-0.684-4.22-3.479-9.353-8.84-9.98c-0.291-0.029-0.583,0.032-0.839,0.174c-0.255,0.143-0.46,0.361-0.587,0.624
		c-0.273,0.65-0.408,1.349-0.399,2.053c0.006,0.116,0.048,0.228,0.119,0.319C271.328,538.926,271.425,538.994,271.536,539.029z"/>
</g>
</svg>
